<svg width="328" height="337" viewBox="0 0 328 337" fill="none" xmlns="http://www.w3.org/2000/svg">
<g opacity="0.15">
<path d="M64.6381 63.7651C64.8055 63.0325 65.1402 62.4627 65.7261 61.9743C65.8098 61.8929 65.8098 61.8929 65.8935 61.8115C65.9772 61.7301 66.0609 61.6487 66.1446 61.6487L79.2849 54.2414V53.753C79.2849 52.0436 80.3729 50.497 82.3816 49.3574C84.8925 48.055 87.7381 47.5666 90.5001 47.8922L103.138 40.8105V40.7291C103.138 39.0197 104.226 37.4731 106.235 36.3335C109.834 34.2985 115.525 34.2985 119.208 36.3335C121.133 37.3917 122.221 38.9383 122.221 40.5663V40.6477V40.8105L134.943 47.8922C137.788 47.5666 140.885 48.055 143.145 49.3574C145.07 50.4156 146.158 51.9622 146.158 53.5902V53.6716V54.16L159.298 61.5673C159.382 61.6487 159.466 61.6487 159.549 61.7301L159.717 61.8929C160.219 62.3813 160.637 63.0325 160.805 63.6837C160.805 63.7651 160.805 63.8465 160.805 63.8465C160.805 63.9279 160.805 64.0907 160.805 64.1721V105.604C160.805 106.663 160.135 107.721 159.214 108.291L114.186 133.525C114.102 133.606 114.019 133.606 113.851 133.687C113.014 134.013 112.094 134.013 111.257 133.687C111.173 133.606 111.006 133.606 110.922 133.525L65.8935 108.291C64.9728 107.721 64.3033 106.744 64.3033 105.604V64.2535C64.3033 64.1721 64.3033 64.0093 64.3033 63.9279C64.5544 63.8465 64.5544 63.8465 64.6381 63.7651ZM83.7207 51.5552C82.6327 52.2064 81.9631 52.939 81.9631 53.6716V53.753C81.9631 53.8344 81.9631 53.9158 81.9631 53.9158V53.9972C82.2142 54.6484 82.6327 55.2182 83.2186 55.5438L83.3022 55.6252C83.3859 55.7066 83.5534 55.788 83.637 55.8694C86.399 57.416 91.086 57.416 93.9316 55.8694C94.099 55.788 94.1827 55.7066 94.3501 55.6252L94.5175 55.5438C94.6012 55.4624 94.6849 55.4624 94.6849 55.381L94.8523 55.2182C94.936 55.2182 94.936 55.1368 95.0197 55.1368C95.1034 55.0554 95.1034 54.974 95.1871 54.974L95.2708 54.8926C95.3545 54.8112 95.3545 54.7298 95.4382 54.6484V54.567C95.5219 54.4856 95.5219 54.4042 95.6056 54.3228C95.6893 54.16 95.6893 53.9158 95.6893 53.753V53.6716C95.6893 52.939 95.0197 52.2064 94.0153 51.5552C91.1697 50.0086 86.4827 50.0086 83.7207 51.5552ZM81.9631 57.9044V61.4045C81.9631 62.2999 82.8838 62.9511 83.637 63.4395C86.399 64.9861 91.086 64.9861 93.9316 63.4395C95.0197 62.7883 95.6893 62.0557 95.6893 61.4045V57.9044C95.5219 57.9858 95.4382 58.0672 95.2708 58.1486C94.7686 58.3928 94.3501 58.637 93.8479 58.7998H93.7642C93.5132 58.8812 93.3458 58.9626 93.0947 59.044L92.5925 59.2068L92.2577 59.2882L91.5882 59.451H91.4208C91.1697 59.451 91.0023 59.5324 90.7512 59.5324H90.5838C90.3327 59.5324 89.9979 59.6138 89.7468 59.6138C89.4958 59.6138 89.2447 59.6138 88.9936 59.6138H88.9099C88.6588 59.6138 88.4077 59.6138 88.1566 59.6138H88.0729C86.1479 59.5324 84.2229 59.044 82.4653 58.0672C82.2142 58.0672 82.0468 57.9858 81.9631 57.9044ZM119.626 40.6477C119.626 39.9151 118.957 39.1011 117.952 38.5313C115.19 36.9847 110.503 36.9847 107.658 38.5313C106.57 39.1825 105.9 39.9151 105.9 40.6477V40.7291C105.9 40.8105 105.9 40.8919 105.9 40.8919V40.9733C106.151 41.6245 106.57 42.1943 107.156 42.5199C107.156 42.5199 107.239 42.5199 107.239 42.6013C107.323 42.6827 107.49 42.7641 107.574 42.8455C110.169 44.3106 114.521 44.392 117.283 43.0897C117.45 43.0083 117.618 42.9269 117.785 42.8455C117.952 42.7641 118.036 42.6827 118.203 42.6013L118.371 42.4385L118.538 42.3571L118.706 42.1943L118.789 42.1129C118.873 42.0315 118.873 41.9501 118.957 41.9501L119.04 41.8687C119.124 41.7873 119.124 41.7059 119.208 41.6245L119.292 41.5431C119.375 41.4617 119.375 41.3803 119.375 41.2989V41.2175C119.375 41.1361 119.459 41.0547 119.459 40.9733C119.459 40.8919 119.459 40.8105 119.459 40.7291V40.6477H119.626ZM119.208 45.0432C117.785 45.8572 116.111 46.3456 114.437 46.5084C114.186 46.5084 113.851 46.5898 113.6 46.5898C113.349 46.5898 113.098 46.5898 112.763 46.5898H112.596H111.926H111.591L111.089 46.5084C110.838 46.5084 110.671 46.427 110.42 46.427H110.169C109.918 46.3456 109.666 46.3456 109.499 46.2642H109.332C108.244 46.02 107.239 45.613 106.319 45.1246C106.151 45.0432 106.068 44.9618 105.9 44.8804V48.3806C105.9 49.276 106.821 49.9272 107.574 50.4156C110.336 51.9622 115.023 51.9622 117.869 50.4156C118.957 49.7644 119.626 49.0318 119.626 48.2992V44.799L119.208 45.0432ZM143.563 53.6716C143.563 52.939 142.894 52.125 141.806 51.5552C139.044 50.0086 134.357 50.0086 131.511 51.5552C130.423 52.2064 129.754 52.939 129.754 53.6716V53.753C129.754 53.8344 129.754 53.9158 129.754 53.9158V53.9972C130.005 54.6484 130.423 55.2182 131.009 55.5438L131.093 55.6252C131.176 55.7066 131.344 55.788 131.427 55.8694C134.189 57.416 138.876 57.416 141.722 55.8694C141.889 55.788 141.973 55.7066 142.141 55.6252L142.308 55.5438C142.392 55.4624 142.475 55.4624 142.475 55.381L142.643 55.2182L142.81 55.1368C142.894 55.0554 142.894 55.0554 142.977 54.974L143.061 54.8926C143.145 54.8112 143.145 54.7298 143.229 54.6484C143.229 54.6484 143.229 54.6484 143.312 54.567C143.396 54.4856 143.396 54.4042 143.396 54.3228C143.396 54.2414 143.48 54.16 143.48 54.0786C143.48 53.9158 143.48 53.8344 143.563 53.6716C143.48 53.753 143.48 53.753 143.563 53.6716ZM143.145 58.1486C142.643 58.3928 142.224 58.637 141.722 58.7998H141.638C141.387 58.8812 141.136 58.9626 140.969 59.044L140.467 59.2068L140.132 59.2882L139.462 59.451H139.295C139.044 59.451 138.876 59.5324 138.625 59.5324H138.458C138.207 59.5324 137.872 59.6138 137.621 59.6138C137.37 59.6138 137.119 59.6138 136.868 59.6138H136.784C136.533 59.6138 136.282 59.6138 136.031 59.6138H135.863C133.938 59.5324 132.013 59.044 130.256 58.0672C130.088 57.9858 130.005 57.9044 129.837 57.823V61.4045C129.837 62.2999 130.758 62.9511 131.511 63.4395C134.273 64.9861 138.96 64.9861 141.806 63.4395C142.894 62.7883 143.563 62.0557 143.563 61.4045V57.9044C143.396 57.9858 143.229 58.0672 143.145 58.1486ZM114.102 130.757L158.043 106.093C158.21 106.011 158.294 105.849 158.294 105.686V65.4745L114.353 90.1386C114.186 90.22 114.102 90.3828 114.102 90.5456V130.757ZM112.512 87.8594C112.68 87.9408 112.847 87.9408 113.014 87.8594L156.955 63.1953L146.158 57.1718V61.3232C146.074 63.0325 144.986 64.5791 143.061 65.6373C139.044 67.6723 134.189 67.6723 130.088 65.6373C127.577 64.2535 127.075 62.5441 127.075 61.4045V53.753C127.075 52.0436 128.163 50.497 130.172 49.3574C130.507 49.1946 130.842 49.0318 131.26 48.869L122.221 43.8222V48.3806C122.221 50.09 121.049 51.6366 119.124 52.6948C117.115 53.753 114.939 54.2414 112.68 54.2414C110.42 54.2414 108.16 53.753 106.235 52.6948C103.724 51.311 103.222 49.6016 103.222 48.462V43.9037L94.1827 48.9504C94.5175 49.1132 94.936 49.276 95.2708 49.4388C97.1958 50.497 98.2838 52.0436 98.2838 53.6716V53.753V61.4045C98.2001 63.1139 97.1121 64.6605 95.1871 65.7187C91.1697 67.7537 86.3153 67.7537 82.2142 65.7187C79.7033 64.3349 79.2011 62.6255 79.2011 61.4859V57.2532L68.4881 63.2767L112.512 87.8594ZM67.2326 105.686C67.2326 105.849 67.3163 106.011 67.4837 106.093L111.424 130.757V90.5456C111.424 90.3828 111.34 90.22 111.173 90.1386L67.2326 65.4745V105.686Z" fill="white"/>
<path d="M106.319 62.3812C109.918 60.3462 115.609 60.3462 119.292 62.3812C121.217 63.4394 122.305 64.986 122.305 66.614V66.6954V74.3469C122.305 76.0563 121.133 77.6029 119.208 78.6611C115.191 80.6961 110.336 80.6961 106.235 78.6611C103.724 77.2773 103.222 75.5679 103.222 74.4283V66.7768C103.222 65.0674 104.31 63.5208 106.319 62.3812ZM105.9 74.5097C105.9 75.4051 106.821 76.0563 107.574 76.5447C110.336 78.0913 115.023 78.0913 117.869 76.5447C118.957 75.8935 119.626 75.1609 119.626 74.5097V71.0096L119.208 71.2538C118.957 71.4166 118.706 71.498 118.538 71.5794C118.371 71.6608 118.204 71.7422 118.036 71.7422L117.785 71.8236C117.701 71.905 117.534 71.905 117.367 71.9864C117.199 72.0678 117.116 72.0678 116.948 72.1492L116.697 72.2306C116.53 72.312 116.362 72.312 116.195 72.3934L115.944 72.4748C115.776 72.5562 115.525 72.5562 115.358 72.5562H115.107C114.939 72.5562 114.688 72.6375 114.437 72.6375H114.27L113.6 72.719H113.433C113.182 72.719 112.931 72.719 112.763 72.719H112.596C112.345 72.719 112.177 72.719 111.926 72.719H111.675C111.424 72.719 111.257 72.7189 111.006 72.6375H110.922C110.671 72.6375 110.42 72.5562 110.169 72.5562L109.834 72.4748L109.332 72.3934L108.997 72.312L108.495 72.1492C108.327 72.0678 108.16 72.0678 107.993 71.9864L107.742 71.905C107.491 71.8236 107.323 71.7422 107.156 71.6608L107.072 71.5794C106.821 71.498 106.57 71.3352 106.402 71.2538C106.235 71.1724 106.151 71.091 105.984 71.0096L105.9 74.5097ZM105.9 66.7768C105.9 66.9396 105.9 66.9396 105.9 67.021V67.1024C106.151 67.7536 106.57 68.3234 107.156 68.649L107.239 68.7304C107.323 68.8118 107.49 68.8932 107.574 68.9746C110.169 70.4398 114.521 70.5212 117.283 69.2188C117.45 69.1374 117.618 69.056 117.785 68.9746C117.953 68.8932 118.036 68.8118 118.204 68.7304L118.371 68.5676L118.538 68.4862L118.706 68.3234L118.789 68.242C118.873 68.1606 118.873 68.0792 118.957 68.0792L119.041 67.9978C119.124 67.9164 119.124 67.835 119.208 67.7536C119.208 67.7536 119.208 67.7536 119.208 67.6722C119.292 67.5908 119.292 67.5094 119.375 67.428C119.375 67.3466 119.459 67.2652 119.459 67.1838C119.459 67.1024 119.459 67.021 119.459 66.9396V66.7768C119.459 66.0442 118.789 65.2302 117.785 64.6604C115.023 63.1138 110.336 63.1138 107.491 64.6604C106.402 65.3116 105.817 66.0442 105.9 66.7768Z" fill="white"/>
<path d="M153.359 142.723C153.526 141.99 153.861 141.42 154.447 140.932C154.531 140.85 154.531 140.85 154.615 140.769C154.698 140.688 154.782 140.606 154.866 140.606L168.09 133.199V132.71C168.09 131.001 169.178 129.454 171.186 128.315C173.697 127.012 176.543 126.524 179.305 126.85L191.943 119.768V119.686C191.943 117.977 193.031 116.43 195.04 115.291C198.639 113.256 204.33 113.256 208.013 115.291C209.938 116.349 211.026 117.896 211.026 119.524V119.605V119.768L223.747 126.85C226.593 126.524 229.69 127.012 231.95 128.315C233.875 129.373 234.963 130.92 234.963 132.548V132.629V133.117L248.103 140.525C248.187 140.606 248.27 140.606 248.354 140.688L248.521 140.85C249.024 141.339 249.442 141.99 249.609 142.641C249.609 142.723 249.609 142.804 249.609 142.804C249.609 142.885 249.609 143.048 249.609 143.13V184.562C249.609 185.62 248.94 186.678 248.019 187.248L202.991 212.482C202.907 212.563 202.823 212.563 202.656 212.645C201.819 212.97 200.898 212.97 200.061 212.645C199.978 212.563 199.81 212.563 199.727 212.482L154.698 187.248C153.778 186.678 153.108 185.701 153.108 184.562V143.13C153.108 143.048 153.108 142.885 153.108 142.804C153.275 142.804 153.275 142.804 153.359 142.723ZM172.442 130.513C171.354 131.164 170.684 131.896 170.684 132.629V132.71C170.684 132.792 170.684 132.873 170.684 132.873V132.955C170.935 133.606 171.354 134.176 171.94 134.501L172.023 134.583C172.107 134.664 172.274 134.745 172.358 134.827C175.12 136.373 179.807 136.373 182.653 134.827C182.82 134.745 182.904 134.664 183.071 134.583L183.239 134.501C183.322 134.42 183.406 134.42 183.406 134.338L183.573 134.176C183.657 134.176 183.657 134.094 183.741 134.094C183.824 134.013 183.824 133.931 183.908 133.931L183.992 133.85C184.075 133.769 184.075 133.687 184.159 133.606V133.524C184.243 133.443 184.243 133.362 184.327 133.28C184.41 133.117 184.41 132.873 184.41 132.71V132.629C184.41 131.896 183.741 131.164 182.736 130.513C179.891 128.966 175.204 128.966 172.442 130.513ZM170.684 136.862V140.362C170.684 141.257 171.605 141.909 172.358 142.397C175.12 143.944 179.807 143.944 182.653 142.397C183.741 141.746 184.41 141.013 184.41 140.362V136.862C184.243 136.943 184.159 137.025 183.992 137.106C183.49 137.35 183.071 137.594 182.569 137.757H182.485C182.234 137.839 182.067 137.92 181.816 138.001L181.313 138.164L180.979 138.246L180.309 138.408H180.142C179.891 138.408 179.723 138.49 179.472 138.49H179.305C179.054 138.49 178.719 138.571 178.468 138.571C178.217 138.571 177.966 138.571 177.715 138.571H177.631C177.38 138.571 177.129 138.571 176.878 138.571H176.794C174.869 138.49 172.944 138.001 171.186 137.025C170.935 137.025 170.768 136.943 170.684 136.862ZM208.347 119.605C208.347 118.872 207.678 118.058 206.673 117.489C203.911 115.942 199.224 115.942 196.379 117.489C195.291 118.14 194.621 118.872 194.621 119.605V119.686C194.621 119.768 194.621 119.849 194.621 119.849V119.931C194.872 120.582 195.291 121.152 195.877 121.477C195.877 121.477 195.96 121.477 195.96 121.559C196.044 121.64 196.211 121.721 196.295 121.803C198.89 123.268 203.242 123.349 206.004 122.047C206.171 121.966 206.339 121.884 206.506 121.803C206.673 121.721 206.757 121.64 206.924 121.559L207.092 121.396L207.259 121.314L207.427 121.152L207.51 121.07C207.594 120.989 207.594 120.907 207.678 120.907L207.761 120.826C207.845 120.745 207.845 120.663 207.929 120.582L208.013 120.5C208.096 120.419 208.096 120.338 208.096 120.256V120.175C208.096 120.093 208.18 120.012 208.18 119.931C208.18 119.849 208.18 119.768 208.18 119.686V119.605H208.347ZM207.929 124.001C206.506 124.815 204.832 125.303 203.158 125.466C202.907 125.466 202.572 125.547 202.321 125.547C202.07 125.547 201.819 125.547 201.484 125.547H201.317H200.647H200.312L199.81 125.466C199.559 125.466 199.392 125.384 199.141 125.384H198.89C198.639 125.303 198.387 125.303 198.22 125.222H198.053C196.965 124.977 195.96 124.57 195.04 124.082C194.872 124.001 194.789 123.919 194.621 123.838V127.338C194.621 128.233 195.542 128.885 196.295 129.373C199.057 130.92 203.744 130.92 206.59 129.373C207.678 128.722 208.347 127.989 208.347 127.257V123.756L207.929 124.001ZM232.284 132.629C232.284 131.896 231.615 131.082 230.527 130.513C227.765 128.966 223.078 128.966 220.232 130.513C219.144 131.164 218.474 131.896 218.474 132.629V132.71C218.474 132.792 218.474 132.873 218.474 132.873V132.955C218.726 133.606 219.144 134.176 219.73 134.501L219.814 134.583C219.897 134.664 220.065 134.745 220.148 134.827C222.91 136.373 227.597 136.373 230.443 134.827C230.61 134.745 230.694 134.664 230.861 134.583L231.029 134.501C231.113 134.42 231.196 134.42 231.196 134.338L231.364 134.176L231.531 134.094C231.615 134.013 231.615 134.013 231.698 133.931L231.782 133.85C231.866 133.769 231.866 133.687 231.95 133.606C231.95 133.606 231.95 133.606 232.033 133.524C232.117 133.443 232.117 133.362 232.117 133.28C232.117 133.199 232.201 133.117 232.201 133.036C232.201 132.873 232.201 132.792 232.284 132.629C232.201 132.71 232.201 132.71 232.284 132.629ZM231.866 137.106C231.364 137.35 230.945 137.594 230.443 137.757H230.359C230.108 137.839 229.857 137.92 229.69 138.001L229.188 138.164L228.853 138.246L228.183 138.408H228.016C227.765 138.408 227.597 138.49 227.346 138.49H227.179C226.928 138.49 226.593 138.571 226.342 138.571C226.091 138.571 225.84 138.571 225.589 138.571H225.505C225.254 138.571 225.003 138.571 224.752 138.571H224.584C222.659 138.49 220.734 138.001 218.977 137.025C218.809 136.943 218.726 136.862 218.558 136.78V140.362C218.558 141.257 219.479 141.909 220.232 142.397C222.994 143.944 227.681 143.944 230.527 142.397C231.615 141.746 232.284 141.013 232.284 140.362V136.862C232.117 136.943 231.95 137.025 231.866 137.106ZM202.823 209.714L246.764 185.05C246.931 184.969 247.015 184.806 247.015 184.643V144.432L203.074 169.096C202.907 169.177 202.823 169.34 202.823 169.503V209.714ZM201.233 166.817C201.401 166.898 201.568 166.898 201.735 166.817L245.676 142.153L234.879 136.129V140.281C234.795 141.99 233.707 143.537 231.782 144.595C227.765 146.63 222.91 146.63 218.809 144.595C216.298 143.211 215.796 141.502 215.796 140.362V132.71C215.796 131.001 216.884 129.454 218.893 128.315C219.228 128.152 219.563 127.989 219.981 127.826L210.942 122.78V127.338C210.942 129.047 209.77 130.594 207.845 131.652C205.836 132.71 203.66 133.199 201.401 133.199C199.141 133.199 196.881 132.71 194.956 131.652C192.445 130.268 191.943 128.559 191.943 127.419V122.861L182.904 127.908C183.239 128.071 183.657 128.233 183.992 128.396C185.917 129.454 187.005 131.001 187.005 132.629V132.71V132.792V140.443C186.921 142.153 185.833 143.699 183.908 144.758C179.891 146.793 175.036 146.793 170.935 144.758C168.424 143.374 167.922 141.664 167.922 140.525V136.292L157.209 142.316L201.233 166.817ZM155.954 184.643C155.954 184.806 156.037 184.969 156.205 185.05L200.145 209.714V169.503C200.145 169.34 200.061 169.177 199.894 169.096L155.954 144.432V184.643Z" fill="white"/>
<path d="M195.039 141.339C198.638 139.304 204.33 139.304 208.012 141.339C209.937 142.397 211.025 143.943 211.025 145.571V145.653V153.304C211.025 155.014 209.854 156.56 207.929 157.619C203.911 159.654 199.057 159.654 194.956 157.619C192.445 156.235 191.943 154.525 191.943 153.386V145.734C191.943 144.025 193.031 142.478 195.039 141.339ZM194.621 153.467C194.621 154.363 195.542 155.014 196.295 155.502C199.057 157.049 203.744 157.049 206.59 155.502C207.678 154.851 208.347 154.118 208.347 153.467V149.967L207.929 150.211C207.678 150.374 207.426 150.455 207.259 150.537C207.092 150.618 206.924 150.7 206.757 150.7L206.506 150.781C206.422 150.862 206.255 150.862 206.087 150.944C205.92 151.025 205.836 151.025 205.669 151.107L205.418 151.188C205.25 151.269 205.083 151.269 204.916 151.351L204.665 151.432C204.497 151.514 204.246 151.514 204.079 151.514H203.828C203.66 151.514 203.409 151.595 203.158 151.595H202.991L202.321 151.676H202.154C201.903 151.676 201.651 151.676 201.484 151.676H201.317C201.066 151.676 200.898 151.676 200.647 151.676H200.396C200.145 151.676 199.978 151.676 199.726 151.595H199.643C199.392 151.595 199.141 151.514 198.889 151.514L198.555 151.432L198.053 151.351L197.718 151.269L197.216 151.107C197.048 151.025 196.881 151.025 196.713 150.944L196.462 150.862C196.211 150.781 196.044 150.7 195.876 150.618L195.793 150.537C195.542 150.455 195.291 150.293 195.123 150.211C194.956 150.13 194.872 150.048 194.705 149.967L194.621 153.467ZM194.621 145.734C194.621 145.897 194.621 145.897 194.621 145.978V146.06C194.872 146.711 195.291 147.281 195.876 147.606L195.96 147.688C196.044 147.769 196.211 147.851 196.295 147.932C198.889 149.397 203.242 149.479 206.004 148.176C206.171 148.095 206.338 148.013 206.506 147.932C206.673 147.851 206.757 147.769 206.924 147.688L207.092 147.525L207.259 147.444L207.426 147.281L207.51 147.199C207.594 147.118 207.594 147.037 207.678 147.037L207.761 146.955C207.845 146.874 207.845 146.792 207.929 146.711C207.929 146.711 207.929 146.711 207.929 146.63C208.012 146.548 208.012 146.467 208.096 146.385C208.096 146.304 208.18 146.223 208.18 146.141C208.18 146.06 208.18 145.978 208.18 145.897V145.734C208.18 145.002 207.51 144.188 206.506 143.618C203.744 142.071 199.057 142.071 196.211 143.618C195.123 144.269 194.537 145.002 194.621 145.734Z" fill="white"/>
<path d="M1.03096 202.144C1.19835 201.412 1.53312 200.842 2.119 200.353C2.20269 200.272 2.2027 200.272 2.2864 200.191C2.37009 200.109 2.45378 200.028 2.53748 200.028L15.7614 192.621V192.132C15.7614 190.423 16.8495 188.876 18.8582 187.737C21.369 186.434 24.2147 185.946 26.9767 186.271L39.6148 179.19V179.108C39.6148 177.399 40.7028 175.852 42.7115 174.713C46.3104 172.678 52.0018 172.678 55.6844 174.713C57.6094 175.771 58.6974 177.317 58.6974 178.945V179.027V179.19L71.4192 186.271C74.2649 185.946 77.3616 186.434 79.6214 187.737C81.5464 188.795 82.6345 190.341 82.6345 191.969V192.051V192.539L95.7747 199.946C95.8584 200.028 95.9421 200.028 96.0258 200.109L96.1932 200.272C96.6954 200.76 97.1139 201.412 97.2812 202.063C97.2812 202.144 97.2812 202.226 97.2812 202.226C97.2812 202.307 97.2812 202.47 97.2812 202.551V243.984C97.2812 245.042 96.6117 246.1 95.691 246.67L50.6626 271.904C50.5789 271.985 50.4952 271.985 50.3278 272.066C49.4909 272.392 48.5702 272.392 47.7333 272.066C47.6496 271.985 47.4822 271.985 47.3985 271.904L2.37009 246.67C1.44944 246.1 0.779877 245.123 0.779877 243.984V202.551C0.779877 202.47 0.779877 202.307 0.779877 202.226C0.947273 202.226 0.947258 202.226 1.03096 202.144ZM20.1136 189.934C19.0256 190.586 18.356 191.318 18.356 192.051V192.132C18.356 192.214 18.356 192.295 18.356 192.295V192.376C18.6071 193.028 19.0256 193.597 19.6115 193.923L19.6951 194.004C19.7788 194.086 19.9462 194.167 20.0299 194.249C22.7919 195.795 27.4789 195.795 30.3245 194.249C30.4919 194.167 30.5756 194.086 30.743 194.004L30.9104 193.923C30.9941 193.842 31.0778 193.842 31.0778 193.76L31.2452 193.597C31.3289 193.597 31.3289 193.516 31.4126 193.516C31.4963 193.435 31.4963 193.353 31.58 193.353L31.6637 193.272C31.7474 193.19 31.7473 193.109 31.831 193.028V192.946C31.9147 192.865 31.9147 192.783 31.9984 192.702C32.0821 192.539 32.0821 192.295 32.0821 192.132V192.051C32.0821 191.318 31.4126 190.586 30.4082 189.934C27.5626 188.388 22.8756 188.388 20.1136 189.934ZM18.356 196.284V199.784C18.356 200.679 19.2767 201.33 20.0299 201.819C22.7919 203.365 27.4789 203.365 30.3245 201.819C31.4126 201.167 32.0821 200.435 32.0821 199.784V196.284C31.9147 196.365 31.8311 196.446 31.6637 196.528C31.1615 196.772 30.743 197.016 30.2408 197.179H30.1571C29.906 197.26 29.7387 197.342 29.4876 197.423L28.9854 197.586L28.6506 197.667L27.981 197.83H27.8136C27.5626 197.83 27.3952 197.911 27.1441 197.911H26.9767C26.7256 197.911 26.3908 197.993 26.1397 197.993C25.8886 197.993 25.6376 197.993 25.3865 197.993H25.3028C25.0517 197.993 24.8006 197.993 24.5495 197.993H24.4658C22.5408 197.911 20.6158 197.423 18.8582 196.446C18.6071 196.446 18.4397 196.365 18.356 196.284ZM56.0192 179.027C56.0192 178.294 55.3496 177.48 54.3453 176.91C51.5833 175.364 46.8963 175.364 44.0506 176.91C42.9626 177.562 42.293 178.294 42.293 179.027V179.108C42.293 179.19 42.293 179.271 42.293 179.271V179.352C42.5441 180.004 42.9626 180.573 43.5485 180.899C43.5485 180.899 43.6322 180.899 43.6322 180.98C43.7159 181.062 43.8833 181.143 43.9669 181.225C46.5615 182.69 50.9137 182.771 53.6757 181.469C53.8431 181.387 54.0105 181.306 54.1779 181.225C54.3452 181.143 54.4289 181.062 54.5963 180.98L54.7637 180.818L54.9311 180.736L55.0985 180.573L55.1822 180.492C55.2659 180.411 55.2659 180.329 55.3496 180.329L55.4333 180.248C55.517 180.166 55.517 180.085 55.6007 180.004L55.6844 179.922C55.7681 179.841 55.7681 179.759 55.7681 179.678V179.597C55.7681 179.515 55.8518 179.434 55.8518 179.352C55.8518 179.271 55.8518 179.19 55.8518 179.108V179.027H56.0192ZM55.6007 183.422C54.1779 184.236 52.5039 184.725 50.83 184.888C50.5789 184.888 50.2442 184.969 49.9931 184.969C49.742 184.969 49.4909 184.969 49.1561 184.969H48.9887H48.3191H47.9844L47.4822 184.888C47.2311 184.888 47.0637 184.806 46.8126 184.806H46.5615C46.3104 184.725 46.0594 184.725 45.892 184.643H45.7246C44.6365 184.399 43.6322 183.992 42.7115 183.504C42.5441 183.422 42.4604 183.341 42.293 183.26V186.76C42.293 187.655 43.2137 188.306 43.9669 188.795C46.7289 190.341 51.4159 190.341 54.2616 188.795C55.3496 188.144 56.0192 187.411 56.0192 186.678V183.178L55.6007 183.422ZM79.9562 192.051C79.9562 191.318 79.2866 190.504 78.1986 189.934C75.4366 188.388 70.7496 188.388 67.904 189.934C66.8159 190.586 66.1464 191.318 66.1464 192.051V192.132C66.1464 192.214 66.1464 192.295 66.1464 192.295V192.376C66.3974 193.028 66.8159 193.597 67.4018 193.923L67.4855 194.004C67.5692 194.086 67.7366 194.167 67.8203 194.249C70.5822 195.795 75.2692 195.795 78.1149 194.249C78.2823 194.167 78.366 194.086 78.5334 194.004L78.7007 193.923C78.7844 193.842 78.8682 193.842 78.8682 193.76L79.0356 193.597L79.2029 193.516C79.2866 193.435 79.2866 193.435 79.3703 193.353L79.454 193.272C79.5377 193.19 79.5377 193.109 79.6214 193.028C79.6214 193.028 79.6214 193.028 79.7051 192.946C79.7888 192.865 79.7888 192.783 79.7888 192.702C79.7888 192.621 79.8725 192.539 79.8725 192.458C79.8725 192.295 79.8725 192.214 79.9562 192.051C79.8725 192.132 79.8725 192.132 79.9562 192.051ZM79.5377 196.528C79.0355 196.772 78.6171 197.016 78.1149 197.179H78.0312C77.7801 197.26 77.529 197.342 77.3616 197.423L76.8595 197.586L76.5247 197.667L75.8551 197.83H75.6877C75.4366 197.83 75.2692 197.911 75.0181 197.911H74.8508C74.5997 197.911 74.2649 197.993 74.0138 197.993C73.7627 197.993 73.5116 197.993 73.2605 197.993H73.1768C72.9258 197.993 72.6746 197.993 72.4236 197.993H72.2562C70.3312 197.911 68.4062 197.423 66.6485 196.446C66.4812 196.365 66.3975 196.284 66.2301 196.202V199.784C66.2301 200.679 67.1507 201.33 67.904 201.819C70.6659 203.365 75.3529 203.365 78.1986 201.819C79.2866 201.167 79.9562 200.435 79.9562 199.784V196.284C79.7888 196.365 79.6214 196.446 79.5377 196.528ZM50.4952 269.136L94.4356 244.472C94.603 244.391 94.6867 244.228 94.6867 244.065V203.854L50.7463 228.518C50.5789 228.599 50.4952 228.762 50.4952 228.925V269.136ZM48.905 226.239C49.0724 226.32 49.2398 226.32 49.4072 226.239L93.3475 201.574L82.5508 195.551V199.702C82.4671 201.412 81.379 202.958 79.454 204.016C75.4366 206.051 70.5823 206.051 66.4812 204.016C63.9703 202.633 63.4681 200.923 63.4681 199.784V192.132C63.4681 190.423 64.5561 188.876 66.5648 187.737C66.8996 187.574 67.2344 187.411 67.6529 187.248L58.6137 182.201V186.76C58.6137 188.469 57.442 190.016 55.517 191.074C53.5083 192.132 51.3322 192.621 49.0724 192.621C46.8126 192.621 44.5528 192.132 42.6278 191.074C40.117 189.69 39.6148 187.981 39.6148 186.841V182.283L30.5756 187.33C30.9104 187.492 31.3289 187.655 31.6637 187.818C33.5887 188.876 34.6767 190.423 34.6767 192.051V192.132V192.214V199.865C34.593 201.574 33.505 203.121 31.58 204.179C27.5626 206.214 22.7082 206.214 18.6071 204.179C16.0962 202.795 15.594 201.086 15.594 199.946V195.714L4.88097 201.737L48.905 226.239ZM3.62553 244.065C3.62553 244.228 3.70922 244.391 3.87661 244.472L47.817 269.136V228.925C47.817 228.762 47.7333 228.599 47.5659 228.518L3.62553 203.854V244.065Z" fill="white"/>
<path d="M42.7114 200.76C46.3103 198.726 52.0016 198.726 55.6842 200.76C57.6092 201.819 58.6973 203.365 58.6973 204.993V205.075V212.726C58.6973 214.436 57.5255 215.982 55.6005 217.04C51.5831 219.075 46.7288 219.075 42.6277 217.04C40.1168 215.657 39.6146 213.947 39.6146 212.808V205.156C39.6146 203.447 40.7027 201.9 42.7114 200.76ZM42.2929 212.889C42.2929 213.784 43.2135 214.436 43.9668 214.924C46.7288 216.471 51.4157 216.471 54.2614 214.924C55.3494 214.273 56.019 213.54 56.019 212.889V209.389L55.6005 209.633C55.3494 209.796 55.0983 209.877 54.931 209.959C54.7636 210.04 54.5962 210.121 54.4288 210.121L54.1777 210.203C54.094 210.284 53.9266 210.284 53.7592 210.366C53.5918 210.447 53.5081 210.447 53.3407 210.528L53.0897 210.61C52.9223 210.691 52.7549 210.691 52.5875 210.773L52.3364 210.854C52.169 210.935 51.9179 210.935 51.7505 210.935H51.4994C51.332 210.935 51.0809 211.017 50.8299 211.017H50.6625L49.9929 211.098H49.8255C49.5744 211.098 49.3233 211.098 49.1559 211.098H48.9885C48.7375 211.098 48.5701 211.098 48.319 211.098H48.0679C47.8168 211.098 47.6494 211.098 47.3983 211.017H47.3146C47.0635 211.017 46.8125 210.935 46.5614 210.935L46.2266 210.854L45.7244 210.773L45.3896 210.691L44.8875 210.528C44.7201 210.447 44.5527 210.447 44.3853 210.366L44.1342 210.284C43.8831 210.203 43.7157 210.121 43.5483 210.04L43.4646 209.959C43.2136 209.877 42.9624 209.714 42.7951 209.633C42.6277 209.552 42.544 209.47 42.3766 209.389L42.2929 212.889ZM42.2929 205.156C42.2929 205.319 42.2929 205.319 42.2929 205.4V205.482C42.544 206.133 42.9624 206.703 43.5483 207.028L43.632 207.11C43.7157 207.191 43.8831 207.272 43.9668 207.354C46.5614 208.819 50.9136 208.9 53.6755 207.598C53.8429 207.517 54.0103 207.435 54.1777 207.354C54.3451 207.272 54.4288 207.191 54.5962 207.11L54.7636 206.947L54.931 206.865L55.0984 206.703L55.1821 206.621C55.2658 206.54 55.2657 206.458 55.3494 206.458L55.4331 206.377C55.5168 206.296 55.5168 206.214 55.6005 206.133C55.6005 206.133 55.6005 206.133 55.6005 206.051C55.6842 205.97 55.6842 205.889 55.7679 205.807C55.7679 205.726 55.8516 205.644 55.8516 205.563C55.8516 205.482 55.8516 205.4 55.8516 205.319V205.156C55.8516 204.423 55.182 203.609 54.1777 203.04C51.4157 201.493 46.7288 201.493 43.8831 203.04C42.7951 203.691 42.2092 204.423 42.2929 205.156Z" fill="white"/>
<path d="M180.14 266.45C180.308 265.717 180.642 265.147 181.228 264.659C181.312 264.578 181.312 264.578 181.396 264.496C181.479 264.415 181.563 264.333 181.647 264.333L194.871 256.926V256.438C194.871 254.728 195.959 253.182 197.968 252.042C200.478 250.74 203.324 250.251 206.086 250.577L218.724 243.495V243.414C218.724 241.704 219.812 240.158 221.821 239.018C225.42 236.983 231.111 236.983 234.794 239.018C236.719 240.076 237.807 241.623 237.807 243.251V243.332V243.495L250.529 250.577C253.374 250.251 256.471 250.74 258.731 252.042C260.656 253.1 261.744 254.647 261.744 256.275V256.356V256.845L274.884 264.252C274.968 264.333 275.051 264.333 275.135 264.415L275.303 264.578C275.805 265.066 276.223 265.717 276.391 266.368C276.391 266.45 276.391 266.531 276.391 266.531C276.391 266.613 276.391 266.775 276.391 266.857V308.289C276.391 309.347 275.721 310.406 274.8 310.975L229.772 336.209C229.688 336.291 229.605 336.291 229.437 336.372C228.6 336.698 227.68 336.698 226.843 336.372C226.759 336.291 226.592 336.291 226.508 336.209L181.479 310.975C180.559 310.406 179.889 309.429 179.889 308.289V266.857C179.889 266.775 179.889 266.613 179.889 266.531C180.057 266.531 180.057 266.531 180.14 266.45ZM199.223 254.24C198.135 254.891 197.465 255.624 197.465 256.356V256.438C197.465 256.519 197.465 256.6 197.465 256.6V256.682C197.716 257.333 198.135 257.903 198.721 258.228L198.804 258.31C198.888 258.391 199.056 258.473 199.139 258.554C201.901 260.101 206.588 260.101 209.434 258.554C209.601 258.473 209.685 258.391 209.852 258.31L210.02 258.228C210.103 258.147 210.187 258.147 210.187 258.066L210.355 257.903C210.438 257.903 210.438 257.821 210.522 257.821C210.606 257.74 210.606 257.659 210.689 257.659L210.773 257.577C210.857 257.496 210.857 257.414 210.94 257.333V257.252C211.024 257.17 211.024 257.089 211.108 257.007C211.191 256.845 211.191 256.6 211.191 256.438V256.356C211.191 255.624 210.522 254.891 209.518 254.24C206.672 252.693 201.985 252.693 199.223 254.24ZM197.465 260.589V264.089C197.465 264.985 198.386 265.636 199.139 266.124C201.901 267.671 206.588 267.671 209.434 266.124C210.522 265.473 211.191 264.74 211.191 264.089V260.589C211.024 260.67 210.94 260.752 210.773 260.833C210.271 261.077 209.852 261.322 209.35 261.484H209.266C209.015 261.566 208.848 261.647 208.597 261.729L208.095 261.891L207.76 261.973L207.09 262.136H206.923C206.672 262.136 206.505 262.217 206.253 262.217H206.086C205.835 262.217 205.5 262.298 205.249 262.298C204.998 262.298 204.747 262.298 204.496 262.298H204.412C204.161 262.298 203.91 262.298 203.659 262.298H203.575C201.65 262.217 199.725 261.729 197.968 260.752C197.716 260.752 197.549 260.67 197.465 260.589ZM235.129 243.332C235.129 242.6 234.459 241.786 233.455 241.216C230.693 239.669 226.006 239.669 223.16 241.216C222.072 241.867 221.402 242.6 221.402 243.332V243.414C221.402 243.495 221.402 243.577 221.402 243.577V243.658C221.653 244.309 222.072 244.879 222.658 245.205C222.658 245.205 222.742 245.205 222.742 245.286C222.825 245.367 222.993 245.449 223.076 245.53C225.671 246.995 230.023 247.077 232.785 245.774C232.952 245.693 233.12 245.612 233.287 245.53C233.455 245.449 233.538 245.367 233.706 245.286L233.873 245.123L234.04 245.042L234.208 244.879L234.292 244.798C234.375 244.716 234.375 244.635 234.459 244.635L234.543 244.553C234.626 244.472 234.626 244.391 234.71 244.309L234.794 244.228C234.877 244.146 234.877 244.065 234.877 243.984V243.902C234.877 243.821 234.961 243.739 234.961 243.658C234.961 243.577 234.961 243.495 234.961 243.414V243.332H235.129ZM234.71 247.728C233.287 248.542 231.613 249.03 229.939 249.193C229.688 249.193 229.354 249.275 229.102 249.275C228.851 249.275 228.6 249.275 228.265 249.275H228.098H227.429H227.094L226.592 249.193C226.34 249.193 226.173 249.112 225.922 249.112H225.671C225.42 249.03 225.169 249.03 225.001 248.949H224.834C223.746 248.705 222.742 248.298 221.821 247.809C221.653 247.728 221.57 247.647 221.402 247.565V251.065C221.402 251.961 222.323 252.612 223.076 253.1C225.838 254.647 230.525 254.647 233.371 253.1C234.459 252.449 235.129 251.716 235.129 250.984V247.484L234.71 247.728ZM259.066 256.356C259.066 255.624 258.396 254.81 257.308 254.24C254.546 252.693 249.859 252.693 247.013 254.24C245.925 254.891 245.256 255.624 245.256 256.356V256.438C245.256 256.519 245.256 256.6 245.256 256.6V256.682C245.507 257.333 245.925 257.903 246.511 258.228L246.595 258.31C246.679 258.391 246.846 258.473 246.93 258.554C249.692 260.101 254.379 260.101 257.224 258.554C257.392 258.473 257.475 258.391 257.643 258.31L257.81 258.228C257.894 258.147 257.978 258.147 257.978 258.066L258.145 257.903L258.312 257.821C258.396 257.74 258.396 257.74 258.48 257.659L258.563 257.577C258.647 257.496 258.647 257.414 258.731 257.333C258.731 257.333 258.731 257.333 258.814 257.252C258.898 257.17 258.898 257.089 258.898 257.007C258.898 256.926 258.982 256.845 258.982 256.763C258.982 256.6 258.982 256.519 259.066 256.356C258.982 256.438 258.982 256.438 259.066 256.356ZM258.647 260.833C258.145 261.077 257.726 261.322 257.224 261.484H257.141C256.889 261.566 256.638 261.647 256.471 261.729L255.969 261.891L255.634 261.973L254.964 262.136H254.797C254.546 262.136 254.379 262.217 254.128 262.217H253.96C253.709 262.217 253.374 262.298 253.123 262.298C252.872 262.298 252.621 262.298 252.37 262.298H252.286C252.035 262.298 251.784 262.298 251.533 262.298H251.366C249.441 262.217 247.516 261.729 245.758 260.752C245.591 260.67 245.507 260.589 245.339 260.508V264.089C245.339 264.985 246.26 265.636 247.013 266.124C249.775 267.671 254.462 267.671 257.308 266.124C258.396 265.473 259.066 264.74 259.066 264.089V260.589C258.898 260.67 258.731 260.752 258.647 260.833ZM229.605 333.442L273.545 308.778C273.712 308.696 273.796 308.533 273.796 308.371V268.159L229.856 292.823C229.688 292.905 229.605 293.067 229.605 293.23V333.442ZM228.014 290.544C228.182 290.625 228.349 290.625 228.517 290.544L272.457 265.88L261.66 259.856V264.008C261.576 265.717 260.488 267.264 258.563 268.322C254.546 270.357 249.692 270.357 245.591 268.322C243.08 266.938 242.577 265.229 242.577 264.089V256.438C242.577 254.728 243.666 253.182 245.674 252.042C246.009 251.879 246.344 251.716 246.762 251.554L237.723 246.507V251.065C237.723 252.775 236.551 254.321 234.626 255.379C232.618 256.438 230.442 256.926 228.182 256.926C225.922 256.926 223.662 256.438 221.737 255.379C219.226 253.996 218.724 252.286 218.724 251.147V246.588L209.685 251.635C210.02 251.798 210.438 251.961 210.773 252.124C212.698 253.182 213.786 254.728 213.786 256.356V256.438V256.519V264.171C213.702 265.88 212.614 267.427 210.689 268.485C206.672 270.52 201.818 270.52 197.716 268.485C195.206 267.101 194.703 265.392 194.703 264.252V260.019L183.99 266.043L228.014 290.544ZM182.735 308.371C182.735 308.533 182.819 308.696 182.986 308.778L226.926 333.442V293.23C226.926 293.067 226.843 292.905 226.675 292.823L182.735 268.159V308.371Z" fill="white"/>
<path d="M221.821 265.066C225.42 263.031 231.111 263.031 234.794 265.066C236.719 266.124 237.807 267.671 237.807 269.299V269.38V277.032C237.807 278.741 236.635 280.288 234.71 281.346C230.692 283.381 225.838 283.381 221.737 281.346C219.226 279.962 218.724 278.253 218.724 277.113V269.462C218.724 267.752 219.812 266.206 221.821 265.066ZM221.402 277.195C221.402 278.09 222.323 278.741 223.076 279.23C225.838 280.776 230.525 280.776 233.371 279.23C234.459 278.578 235.128 277.846 235.128 277.195V273.694L234.71 273.939C234.459 274.101 234.208 274.183 234.04 274.264C233.873 274.346 233.706 274.427 233.538 274.427L233.287 274.508C233.203 274.59 233.036 274.59 232.869 274.671C232.701 274.753 232.617 274.753 232.45 274.834L232.199 274.915C232.032 274.997 231.864 274.997 231.697 275.078L231.446 275.16C231.278 275.241 231.027 275.241 230.86 275.241H230.609C230.441 275.241 230.19 275.322 229.939 275.322H229.772L229.102 275.404H228.935C228.684 275.404 228.433 275.404 228.265 275.404H228.098C227.847 275.404 227.679 275.404 227.428 275.404H227.177C226.926 275.404 226.759 275.404 226.508 275.322H226.424C226.173 275.322 225.922 275.241 225.671 275.241L225.336 275.16L224.834 275.078L224.499 274.997L223.997 274.834C223.829 274.753 223.662 274.753 223.495 274.671L223.244 274.59C222.992 274.508 222.825 274.427 222.658 274.346L222.574 274.264C222.323 274.183 222.072 274.02 221.904 273.939C221.737 273.857 221.653 273.776 221.486 273.694L221.402 277.195ZM221.402 269.462C221.402 269.624 221.402 269.624 221.402 269.706V269.787C221.653 270.438 222.072 271.008 222.658 271.334L222.741 271.415C222.825 271.497 222.992 271.578 223.076 271.659C225.671 273.125 230.023 273.206 232.785 271.904C232.952 271.822 233.12 271.741 233.287 271.659C233.454 271.578 233.538 271.497 233.706 271.415L233.873 271.252L234.04 271.171L234.208 271.008L234.291 270.927C234.375 270.845 234.375 270.764 234.459 270.764L234.542 270.683C234.626 270.601 234.626 270.52 234.71 270.438C234.71 270.438 234.71 270.438 234.71 270.357C234.794 270.276 234.794 270.194 234.877 270.113C234.877 270.031 234.961 269.95 234.961 269.869C234.961 269.787 234.961 269.706 234.961 269.624V269.462C234.961 268.729 234.291 267.915 233.287 267.345C230.525 265.799 225.838 265.799 222.992 267.345C221.904 267.996 221.319 268.729 221.402 269.462Z" fill="white"/>
<path d="M231.531 29.0074C231.698 28.2748 232.033 27.705 232.619 27.2166C232.703 27.1352 232.703 27.1352 232.786 27.0538C232.87 26.9724 232.954 26.891 233.037 26.891L246.261 19.4837V19.0767C246.261 17.3673 247.349 15.8207 249.358 14.6811C251.869 13.3787 254.715 12.8903 257.477 13.2159L270.115 6.05277V5.97137C270.115 4.26198 271.203 2.71539 273.212 1.5758C276.81 -0.459186 282.502 -0.459186 286.184 1.5758C288.109 2.63399 289.197 4.18058 289.197 5.80858V5.88997V6.05277L301.919 13.2159C304.765 12.8903 307.862 13.3787 310.121 14.6811C312.046 15.7393 313.134 17.2859 313.134 18.9139V18.9953V19.4837L326.275 26.891C326.358 26.9724 326.442 26.9724 326.526 27.0538L326.693 27.2166C327.195 27.705 327.614 28.3562 327.781 29.0074C327.781 29.0888 327.781 29.1702 327.781 29.1702C327.781 29.2516 327.781 29.4144 327.781 29.4958V70.9282C327.781 71.9864 327.112 73.0446 326.191 73.6144L281.163 98.8482C281.079 98.9296 280.995 98.9296 280.828 99.011C279.991 99.3366 279.07 99.3366 278.233 99.011C278.15 98.9296 277.982 98.9296 277.898 98.8482L232.87 73.6144C231.949 73.0446 231.28 72.0678 231.28 70.9282V29.5772C231.28 29.4958 231.28 29.333 231.28 29.2516C231.531 29.1702 231.531 29.0888 231.531 29.0074ZM250.614 16.8789C249.526 17.5301 248.856 18.2627 248.856 18.9953V19.0767C248.856 19.1581 248.856 19.2395 248.856 19.2395V19.3209C249.107 19.9721 249.526 20.5419 250.111 20.8675L250.195 20.9489C250.279 21.0303 250.446 21.1117 250.53 21.1931C253.292 22.7397 257.979 22.7397 260.825 21.1931C260.992 21.1117 261.076 21.0303 261.243 20.9489L261.41 20.8675C261.494 20.7861 261.578 20.7861 261.578 20.7047L261.745 20.5419C261.829 20.5419 261.829 20.4605 261.913 20.4605C261.996 20.3791 261.996 20.2977 262.08 20.2977L262.164 20.2163C262.247 20.1349 262.247 20.0535 262.331 19.9721V19.8907C262.415 19.8093 262.415 19.7279 262.498 19.6465C262.582 19.4023 262.582 19.2395 262.582 18.9953V18.9139C262.582 18.1813 261.913 17.4487 260.908 16.7975C258.146 15.3323 253.459 15.3323 250.614 16.8789ZM248.856 23.1467V26.6468C248.856 27.5422 249.777 28.1934 250.53 28.6818C253.292 30.2284 257.979 30.2284 260.825 28.6818C261.913 28.0306 262.582 27.298 262.582 26.6468V23.1467C262.415 23.2281 262.331 23.3095 262.164 23.3909C261.661 23.6351 261.243 23.8793 260.741 24.0421H260.657C260.406 24.1235 260.239 24.2049 259.988 24.2863L259.485 24.4491L259.151 24.5305L258.481 24.6933H258.314C258.063 24.6933 257.895 24.7747 257.644 24.7747H257.477C257.226 24.7747 256.891 24.8561 256.64 24.8561C256.389 24.8561 256.138 24.8561 255.886 24.8561H255.803C255.552 24.8561 255.301 24.8561 255.049 24.8561H254.966C253.041 24.7747 251.116 24.2863 249.358 23.3095C249.107 23.3095 249.023 23.2281 248.856 23.1467ZM286.519 5.88997C286.519 5.15738 285.85 4.34338 284.845 3.77359C282.083 2.227 277.396 2.227 274.551 3.77359C273.463 4.42478 272.793 5.15738 272.793 5.88997V5.97137C272.793 6.05277 272.793 6.13417 272.793 6.13417V6.21557C273.044 6.86677 273.463 7.43657 274.048 7.76216C274.048 7.76216 274.132 7.76216 274.132 7.84356C274.216 7.92496 274.383 8.00636 274.467 8.08776C277.062 9.55295 281.414 9.63435 284.176 8.33196C284.343 8.25056 284.51 8.16916 284.678 8.08776C284.845 8.00636 284.929 7.92496 285.096 7.84356L285.264 7.68076L285.431 7.59936L285.599 7.43657L285.766 7.35517C285.85 7.27377 285.85 7.19237 285.933 7.19237L286.017 7.02957C286.101 6.94817 286.101 6.86677 286.184 6.78537L286.268 6.70397C286.352 6.62257 286.352 6.54117 286.352 6.45977V6.54117C286.352 6.45977 286.435 6.37837 286.435 6.29697C286.435 6.21557 286.435 6.13417 286.435 6.05277V5.88997H286.519ZM286.101 10.3669C284.678 11.1809 283.004 11.6693 281.33 11.8321C281.079 11.8321 280.744 11.9135 280.493 11.9135C280.242 11.9135 279.991 11.9135 279.656 11.9135H279.489H278.819H278.484L277.982 11.8321C277.731 11.8321 277.564 11.7507 277.313 11.7507H277.062C276.81 11.6693 276.559 11.6693 276.392 11.5879H276.225C275.137 11.3437 274.132 10.9367 273.212 10.4483C273.044 10.3669 272.96 10.2855 272.793 10.2041V13.7043C272.793 14.5997 273.714 15.2509 274.467 15.7393C277.229 17.2859 281.916 17.2859 284.762 15.7393C285.85 15.0881 286.519 14.3555 286.519 13.6229V10.1227L286.101 10.3669ZM310.456 18.9953C310.456 18.2627 309.787 17.4487 308.699 16.8789C305.937 15.3323 301.25 15.3323 298.404 16.8789C297.316 17.5301 296.646 18.2627 296.646 18.9953V19.0767C296.646 19.1581 296.646 19.2395 296.646 19.2395V19.3209C296.897 19.9721 297.316 20.5419 297.902 20.8675L297.985 20.9489C298.069 21.0303 298.237 21.1117 298.32 21.1931C301.082 22.7397 305.769 22.7397 308.615 21.1931C308.782 21.1117 308.866 21.0303 309.033 20.9489L309.201 20.8675C309.284 20.7861 309.368 20.7861 309.368 20.7047L309.536 20.5419L309.787 20.3791C309.87 20.2977 309.87 20.2977 309.954 20.2163L310.038 20.1349C310.121 20.0535 310.121 19.9721 310.205 19.8907C310.205 19.8907 310.205 19.8907 310.289 19.8093C310.372 19.7279 310.372 19.6465 310.372 19.5651C310.372 19.4837 310.456 19.4023 310.456 19.3209C310.372 19.2395 310.372 19.1581 310.456 18.9953C310.372 19.0767 310.372 19.0767 310.456 18.9953ZM310.038 23.3909C309.536 23.6351 309.117 23.8793 308.615 24.0421H308.531C308.28 24.1235 308.029 24.2049 307.862 24.2863L307.359 24.4491L307.025 24.5305L306.355 24.6933H306.188C305.937 24.6933 305.769 24.7747 305.518 24.7747H305.351C305.1 24.7747 304.765 24.8561 304.514 24.8561C304.263 24.8561 304.012 24.8561 303.761 24.8561H303.593C303.342 24.8561 303.091 24.8561 302.84 24.8561H302.672C300.747 24.7747 298.822 24.2863 297.065 23.3095C296.897 23.2281 296.814 23.1467 296.646 23.0653V26.6468C296.646 27.5422 297.567 28.1934 298.32 28.6818C301.082 30.2284 305.769 30.2284 308.615 28.6818C309.703 28.0306 310.372 27.298 310.372 26.6468V23.1467C310.372 23.2281 310.205 23.3095 310.038 23.3909ZM280.995 96.0806L324.936 71.4166C325.103 71.3352 325.187 71.1724 325.187 71.0096V30.7982L281.246 55.3809C281.079 55.4623 280.995 55.6251 280.995 55.7879V96.0806ZM279.405 53.1831C279.572 53.2645 279.74 53.2645 279.907 53.1831L323.931 28.519L313.134 22.4955V26.6468C313.051 28.3562 311.963 29.9028 310.038 30.961C306.02 32.996 301.166 32.996 297.065 30.961C294.554 29.5772 294.052 27.8678 294.052 26.7282V19.0767C294.052 17.3673 295.14 15.8207 297.149 14.6811C297.483 14.5183 297.818 14.3555 298.237 14.1927L289.197 9.14596V13.7043C289.197 15.4137 288.026 16.9603 286.101 18.0185C284.092 19.0767 281.916 19.5651 279.656 19.5651C277.396 19.5651 275.137 19.0767 273.212 18.0185C270.701 16.6347 270.198 14.9253 270.198 13.7857V9.22736L261.159 14.2741C261.494 14.4369 261.913 14.5997 262.247 14.7625C264.172 15.8207 265.26 17.3673 265.26 18.9953V19.0767V19.1581V26.8096C265.177 28.519 264.089 30.0656 262.164 31.1238C258.146 33.1588 253.292 33.1588 249.191 31.1238C246.68 29.74 246.178 28.0306 246.178 26.891V22.6583L235.465 28.6818L279.405 53.1831ZM234.126 70.9282C234.126 71.091 234.209 71.2538 234.377 71.3352L278.317 96.0806V55.8693C278.317 55.7065 278.233 55.5437 278.066 55.4623L234.126 30.7982V70.9282Z" fill="white"/>
<path d="M273.211 27.705C276.81 25.67 282.502 25.67 286.184 27.705C288.109 28.7631 289.197 30.3097 289.197 31.9377V32.0191V39.6707C289.197 41.3801 288.026 42.9267 286.101 43.9849C282.083 46.0199 277.229 46.0199 273.128 43.9849C270.617 42.6011 270.115 40.8917 270.115 39.7521V32.0191C270.115 30.3911 271.286 28.8445 273.211 27.705ZM272.793 39.7521C272.793 40.6475 273.714 41.2987 274.467 41.7871C277.229 43.3337 281.916 43.3337 284.761 41.7871C285.849 41.1359 286.519 40.4033 286.519 39.7521V36.2519L286.101 36.4961C285.849 36.6589 285.598 36.7403 285.431 36.8217C285.264 36.9031 285.096 36.9845 284.929 36.9845L284.678 37.0659C284.594 37.1473 284.427 37.1473 284.259 37.2287C284.092 37.3101 284.008 37.3101 283.841 37.3915L283.59 37.4729C283.422 37.5543 283.255 37.5543 283.087 37.6357L282.836 37.7171C282.669 37.7985 282.418 37.7985 282.251 37.7985H281.999C281.832 37.7985 281.581 37.8799 281.33 37.8799H281.162L280.493 37.9613H280.325C280.074 37.9613 279.823 37.9613 279.656 37.9613H279.489C279.237 37.9613 279.07 37.9613 278.819 37.9613H278.568C278.317 37.9613 278.149 37.9613 277.898 37.8799H277.815C277.564 37.8799 277.312 37.7985 277.061 37.7985L276.727 37.7171L276.224 37.6357L275.89 37.5543L275.387 37.3915C275.22 37.3101 275.053 37.3101 274.885 37.2287L274.634 37.1473C274.383 37.0659 274.216 36.9845 274.048 36.9031L273.965 36.8217C273.714 36.7403 273.462 36.5775 273.295 36.4961C273.128 36.4147 273.044 36.3333 272.877 36.2519L272.793 39.7521ZM272.793 32.1005C272.793 32.2633 272.793 32.2633 272.793 32.3447V32.4261C273.044 33.0773 273.462 33.6471 274.048 33.9727L274.132 34.0541C274.216 34.1355 274.383 34.2169 274.467 34.2983C277.061 35.7635 281.414 35.8449 284.176 34.5425C284.343 34.4611 284.51 34.3797 284.678 34.2983C284.845 34.2169 284.929 34.1355 285.096 34.0541L285.264 33.8913L285.431 33.8099L285.598 33.6471L285.682 33.5657C285.766 33.4843 285.766 33.4029 285.849 33.4029L286.017 33.2401C286.101 33.1587 286.101 33.0773 286.184 32.9959C286.184 32.9959 286.184 32.9959 286.184 32.9145C286.268 32.8331 286.268 32.7517 286.352 32.6703C286.352 32.5889 286.435 32.5075 286.435 32.4261C286.435 32.3447 286.435 32.2633 286.435 32.1819V32.1005C286.435 31.3679 285.766 30.5539 284.761 29.9841C281.999 28.4375 277.312 28.4375 274.467 29.9841C273.379 30.5539 272.709 31.3679 272.793 32.1005Z" fill="white"/>
</g>
</svg>
