<svg width="328" height="337" viewBox="0 0 328 337" fill="none" xmlns="http://www.w3.org/2000/svg">
<g opacity="0.15">
<path d="M263.362 63.7651C263.194 63.0325 262.86 62.4627 262.274 61.9743C262.19 61.8929 262.19 61.8929 262.106 61.8115C262.023 61.7301 261.939 61.6487 261.855 61.6487L248.715 54.2414V53.753C248.715 52.0436 247.627 50.497 245.618 49.3574C243.107 48.055 240.262 47.5666 237.5 47.8922L224.862 40.8105V40.7291C224.862 39.0197 223.774 37.4731 221.765 36.3335C218.166 34.2985 212.475 34.2985 208.792 36.3335C206.867 37.3917 205.779 38.9383 205.779 40.5663V40.6477V40.8105L193.057 47.8922C190.212 47.5666 187.115 48.055 184.855 49.3574C182.93 50.4156 181.842 51.9622 181.842 53.5902V53.6716V54.16L168.702 61.5673C168.618 61.6487 168.534 61.6487 168.451 61.7301L168.283 61.8929C167.781 62.3813 167.363 63.0325 167.195 63.6837C167.195 63.7651 167.195 63.8465 167.195 63.8465C167.195 63.9279 167.195 64.0907 167.195 64.1721V105.604C167.195 106.663 167.865 107.721 168.786 108.291L213.814 133.525C213.898 133.606 213.981 133.606 214.149 133.687C214.986 134.013 215.906 134.013 216.743 133.687C216.827 133.606 216.994 133.606 217.078 133.525L262.106 108.291C263.027 107.721 263.697 106.744 263.697 105.604V64.2535C263.697 64.1721 263.697 64.0093 263.697 63.9279C263.446 63.8465 263.446 63.8465 263.362 63.7651ZM244.279 51.5552C245.367 52.2064 246.037 52.939 246.037 53.6716V53.753C246.037 53.8344 246.037 53.9158 246.037 53.9158V53.9972C245.786 54.6484 245.367 55.2182 244.781 55.5438L244.698 55.6252C244.614 55.7066 244.447 55.788 244.363 55.8694C241.601 57.416 236.914 57.416 234.068 55.8694C233.901 55.788 233.817 55.7066 233.65 55.6252L233.482 55.5438C233.399 55.4624 233.315 55.4624 233.315 55.381L233.148 55.2182C233.064 55.2182 233.064 55.1368 232.98 55.1368C232.897 55.0554 232.897 54.974 232.813 54.974L232.729 54.8926C232.645 54.8112 232.646 54.7298 232.562 54.6484V54.567C232.478 54.4856 232.478 54.4042 232.394 54.3228C232.311 54.16 232.311 53.9158 232.311 53.753V53.6716C232.311 52.939 232.98 52.2064 233.985 51.5552C236.83 50.0086 241.517 50.0086 244.279 51.5552ZM246.037 57.9044V61.4045C246.037 62.2999 245.116 62.9511 244.363 63.4395C241.601 64.9861 236.914 64.9861 234.068 63.4395C232.98 62.7883 232.311 62.0557 232.311 61.4045V57.9044C232.478 57.9858 232.562 58.0672 232.729 58.1486C233.231 58.3928 233.65 58.637 234.152 58.7998H234.236C234.487 58.8812 234.654 58.9626 234.905 59.044L235.407 59.2068L235.742 59.2882L236.412 59.451H236.579C236.83 59.451 236.998 59.5324 237.249 59.5324H237.416C237.667 59.5324 238.002 59.6138 238.253 59.6138C238.504 59.6138 238.755 59.6138 239.006 59.6138H239.09C239.341 59.6138 239.592 59.6138 239.843 59.6138H239.927C241.852 59.5324 243.777 59.044 245.535 58.0672C245.786 58.0672 245.953 57.9858 246.037 57.9044ZM208.374 40.6477C208.374 39.9151 209.043 39.1011 210.048 38.5313C212.81 36.9847 217.497 36.9847 220.342 38.5313C221.43 39.1825 222.1 39.9151 222.1 40.6477V40.7291C222.1 40.8105 222.1 40.8919 222.1 40.8919V40.9733C221.849 41.6245 221.43 42.1943 220.844 42.5199C220.844 42.5199 220.761 42.5199 220.761 42.6013C220.677 42.6827 220.51 42.7641 220.426 42.8455C217.831 44.3106 213.479 44.392 210.717 43.0897C210.55 43.0083 210.382 42.9269 210.215 42.8455C210.048 42.7641 209.964 42.6827 209.797 42.6013L209.629 42.4385L209.462 42.3571L209.294 42.1943L209.211 42.1129C209.127 42.0315 209.127 41.9501 209.043 41.9501L208.96 41.8687C208.876 41.7873 208.876 41.7059 208.792 41.6245L208.708 41.5431C208.625 41.4617 208.625 41.3803 208.625 41.2989V41.2175C208.625 41.1361 208.541 41.0547 208.541 40.9733C208.541 40.8919 208.541 40.8105 208.541 40.7291V40.6477H208.374ZM208.792 45.0432C210.215 45.8572 211.889 46.3456 213.563 46.5084C213.814 46.5084 214.149 46.5898 214.4 46.5898C214.651 46.5898 214.902 46.5898 215.237 46.5898H215.404H216.074H216.408L216.911 46.5084C217.162 46.5084 217.329 46.427 217.58 46.427H217.831C218.082 46.3456 218.333 46.3456 218.501 46.2642H218.668C219.756 46.02 220.761 45.613 221.681 45.1246C221.849 45.0432 221.932 44.9618 222.1 44.8804V48.3806C222.1 49.276 221.179 49.9272 220.426 50.4156C217.664 51.9622 212.977 51.9622 210.131 50.4156C209.043 49.7644 208.374 49.0318 208.374 48.2992V44.799L208.792 45.0432ZM184.437 53.6716C184.437 52.939 185.106 52.125 186.194 51.5552C188.956 50.0086 193.643 50.0086 196.489 51.5552C197.577 52.2064 198.246 52.939 198.246 53.6716V53.753C198.246 53.8344 198.246 53.9158 198.246 53.9158V53.9972C197.995 54.6484 197.577 55.2182 196.991 55.5438L196.907 55.6252C196.824 55.7066 196.656 55.788 196.573 55.8694C193.811 57.416 189.124 57.416 186.278 55.8694C186.111 55.788 186.027 55.7066 185.859 55.6252L185.692 55.5438C185.608 55.4624 185.525 55.4624 185.525 55.381L185.357 55.2182L185.19 55.1368C185.106 55.0554 185.106 55.0554 185.023 54.974L184.939 54.8926C184.855 54.8112 184.855 54.7298 184.771 54.6484C184.771 54.6484 184.771 54.6484 184.688 54.567C184.604 54.4856 184.604 54.4042 184.604 54.3228C184.604 54.2414 184.52 54.16 184.52 54.0786C184.52 53.9158 184.52 53.8344 184.437 53.6716C184.52 53.753 184.52 53.753 184.437 53.6716ZM184.855 58.1486C185.357 58.3928 185.776 58.637 186.278 58.7998H186.362C186.613 58.8812 186.864 58.9626 187.031 59.044L187.533 59.2068L187.868 59.2882L188.538 59.451H188.705C188.956 59.451 189.124 59.5324 189.375 59.5324H189.542C189.793 59.5324 190.128 59.6138 190.379 59.6138C190.63 59.6138 190.881 59.6138 191.132 59.6138H191.216C191.467 59.6138 191.718 59.6138 191.969 59.6138H192.137C194.062 59.5324 195.987 59.044 197.744 58.0672C197.912 57.9858 197.995 57.9044 198.163 57.823V61.4045C198.163 62.2999 197.242 62.9511 196.489 63.4395C193.727 64.9861 189.04 64.9861 186.194 63.4395C185.106 62.7883 184.437 62.0557 184.437 61.4045V57.9044C184.604 57.9858 184.771 58.0672 184.855 58.1486ZM213.898 130.757L169.957 106.093C169.79 106.011 169.706 105.849 169.706 105.686V65.4745L213.647 90.1386C213.814 90.22 213.898 90.3828 213.898 90.5456V130.757ZM215.488 87.8594C215.32 87.9408 215.153 87.9408 214.986 87.8594L171.045 63.1953L181.842 57.1718V61.3231C181.926 63.0325 183.014 64.5791 184.939 65.6373C188.956 67.6723 193.811 67.6723 197.912 65.6373C200.423 64.2535 200.925 62.5441 200.925 61.4045V53.753C200.925 52.0436 199.837 50.497 197.828 49.3574C197.493 49.1946 197.158 49.0318 196.74 48.869L205.779 43.8222V48.3806C205.779 50.09 206.951 51.6366 208.876 52.6948C210.885 53.753 213.061 54.2414 215.32 54.2414C217.58 54.2414 219.84 53.753 221.765 52.6948C224.276 51.311 224.778 49.6016 224.778 48.462V43.9036L233.817 48.9504C233.482 49.1132 233.064 49.276 232.729 49.4388C230.804 50.497 229.716 52.0436 229.716 53.6716V53.753V61.4045C229.8 63.1139 230.888 64.6605 232.813 65.7187C236.83 67.7537 241.685 67.7537 245.786 65.7187C248.297 64.3349 248.799 62.6255 248.799 61.4859V57.2532L259.512 63.2767L215.488 87.8594ZM260.767 105.686C260.767 105.849 260.684 106.011 260.516 106.093L216.576 130.757V90.5456C216.576 90.3828 216.66 90.22 216.827 90.1386L260.767 65.4745V105.686Z" fill="white"/>
<path d="M221.681 62.3813C218.082 60.3464 212.391 60.3464 208.708 62.3813C206.783 63.4395 205.695 64.9861 205.695 66.6141V66.6955V74.3471C205.695 76.0565 206.867 77.6031 208.792 78.6613C212.809 80.6963 217.664 80.6963 221.765 78.6613C224.276 77.2775 224.778 75.5681 224.778 74.4285V66.7769C224.778 65.0675 223.69 63.5209 221.681 62.3813ZM222.1 74.5099C222.1 75.4053 221.179 76.0565 220.426 76.5449C217.664 78.0915 212.977 78.0915 210.131 76.5449C209.043 75.8937 208.374 75.1611 208.374 74.5099V71.0097L208.792 71.2539C209.043 71.4167 209.294 71.4981 209.462 71.5795C209.629 71.6609 209.796 71.7423 209.964 71.7423L210.215 71.8237C210.299 71.9051 210.466 71.9051 210.633 71.9865C210.801 72.0679 210.884 72.0679 211.052 72.1493L211.303 72.2307C211.47 72.3121 211.638 72.3121 211.805 72.3935L212.056 72.4749C212.224 72.5563 212.475 72.5563 212.642 72.5563H212.893C213.061 72.5563 213.312 72.6377 213.563 72.6377H213.73L214.4 72.7191H214.567C214.818 72.7191 215.069 72.7191 215.237 72.7191H215.404C215.655 72.7191 215.823 72.7191 216.074 72.7191H216.325C216.576 72.7191 216.743 72.7191 216.994 72.6377H217.078C217.329 72.6377 217.58 72.5563 217.831 72.5563L218.166 72.4749L218.668 72.3935L219.003 72.3121L219.505 72.1493C219.673 72.0679 219.84 72.0679 220.007 71.9865L220.258 71.9051C220.509 71.8237 220.677 71.7423 220.844 71.6609L220.928 71.5795C221.179 71.4981 221.43 71.3353 221.598 71.2539C221.765 71.1725 221.849 71.0911 222.016 71.0097L222.1 74.5099ZM222.1 66.7769C222.1 66.9397 222.1 66.9397 222.1 67.0211V67.1025C221.849 67.7537 221.43 68.3235 220.844 68.6491L220.761 68.7305C220.677 68.8119 220.509 68.8933 220.426 68.9747C217.831 70.4399 213.479 70.5213 210.717 69.2189C210.55 69.1375 210.382 69.0561 210.215 68.9747C210.047 68.8933 209.964 68.8119 209.796 68.7305L209.629 68.5677L209.462 68.4863L209.294 68.3235L209.211 68.2421C209.127 68.1607 209.127 68.0793 209.043 68.0793L208.959 67.9979C208.876 67.9165 208.876 67.8351 208.792 67.7537C208.792 67.7537 208.792 67.7537 208.792 67.6723C208.708 67.5909 208.708 67.5095 208.625 67.4281C208.625 67.3467 208.541 67.2653 208.541 67.1839C208.541 67.1025 208.541 67.0211 208.541 66.9397V66.7769C208.541 66.0443 209.211 65.2303 210.215 64.6605C212.977 63.1139 217.664 63.1139 220.509 64.6605C221.598 65.3117 222.183 66.0443 222.1 66.7769Z" fill="white"/>
<path d="M174.641 142.723C174.473 141.99 174.139 141.42 173.553 140.932C173.469 140.85 173.469 140.85 173.385 140.769C173.302 140.688 173.218 140.606 173.134 140.606L159.91 133.199V132.71C159.91 131.001 158.822 129.455 156.814 128.315C154.303 127.013 151.457 126.524 148.695 126.85L136.057 119.768V119.687C136.057 117.977 134.969 116.431 132.96 115.291C129.361 113.256 123.67 113.256 119.987 115.291C118.062 116.349 116.974 117.896 116.974 119.524V119.605V119.768L104.253 126.85C101.407 126.524 98.3102 127.013 96.0505 128.315C94.1254 129.373 93.0374 130.92 93.0374 132.548V132.629V133.117L79.8972 140.525C79.8135 140.606 79.7298 140.606 79.6461 140.688L79.4787 140.85C78.9765 141.339 78.558 141.99 78.3906 142.641C78.3906 142.723 78.3906 142.804 78.3906 142.804C78.3906 142.885 78.3906 143.048 78.3906 143.13V184.562C78.3906 185.62 79.0602 186.678 79.9808 187.248L125.009 212.482C125.093 212.563 125.177 212.563 125.344 212.645C126.181 212.97 127.102 212.97 127.939 212.645C128.022 212.563 128.19 212.563 128.273 212.482L173.302 187.248C174.222 186.678 174.892 185.702 174.892 184.562V143.13C174.892 143.048 174.892 142.885 174.892 142.804C174.725 142.804 174.725 142.804 174.641 142.723ZM155.558 130.513C156.646 131.164 157.316 131.896 157.316 132.629V132.71C157.316 132.792 157.316 132.873 157.316 132.873V132.955C157.065 133.606 156.646 134.176 156.06 134.501L155.977 134.583C155.893 134.664 155.726 134.745 155.642 134.827C152.88 136.373 148.193 136.373 145.347 134.827C145.18 134.745 145.096 134.664 144.929 134.583L144.761 134.501C144.678 134.42 144.594 134.42 144.594 134.338L144.427 134.176C144.343 134.176 144.343 134.094 144.259 134.094C144.176 134.013 144.176 133.931 144.092 133.931L144.008 133.85C143.924 133.769 143.924 133.687 143.841 133.606V133.524C143.757 133.443 143.757 133.362 143.673 133.28C143.59 133.117 143.59 132.873 143.59 132.71V132.629C143.59 131.896 144.259 131.164 145.264 130.513C148.109 128.966 152.796 128.966 155.558 130.513ZM157.316 136.862V140.362C157.316 141.257 156.395 141.909 155.642 142.397C152.88 143.944 148.193 143.944 145.347 142.397C144.259 141.746 143.59 141.013 143.59 140.362V136.862C143.757 136.943 143.841 137.025 144.008 137.106C144.51 137.35 144.929 137.594 145.431 137.757H145.515C145.766 137.839 145.933 137.92 146.184 138.001L146.686 138.164L147.021 138.246L147.691 138.408H147.858C148.109 138.408 148.277 138.49 148.528 138.49H148.695C148.946 138.49 149.281 138.571 149.532 138.571C149.783 138.571 150.034 138.571 150.285 138.571H150.369C150.62 138.571 150.871 138.571 151.122 138.571H151.206C153.131 138.49 155.056 138.001 156.814 137.025C157.065 137.025 157.232 136.943 157.316 136.862ZM119.653 119.605C119.653 118.873 120.322 118.059 121.327 117.489C124.089 115.942 128.776 115.942 131.621 117.489C132.709 118.14 133.379 118.873 133.379 119.605V119.687C133.379 119.768 133.379 119.849 133.379 119.849V119.931C133.128 120.582 132.709 121.152 132.123 121.477C132.123 121.477 132.04 121.477 132.04 121.559C131.956 121.64 131.789 121.722 131.705 121.803C129.11 123.268 124.758 123.35 121.996 122.047C121.829 121.966 121.661 121.884 121.494 121.803C121.327 121.722 121.243 121.64 121.076 121.559L120.908 121.396L120.741 121.315L120.573 121.152L120.49 121.07C120.406 120.989 120.406 120.908 120.322 120.908L120.239 120.826C120.155 120.745 120.155 120.663 120.071 120.582L119.987 120.501C119.904 120.419 119.904 120.338 119.904 120.256V120.175C119.904 120.094 119.82 120.012 119.82 119.931C119.82 119.849 119.82 119.768 119.82 119.687V119.605H119.653ZM120.071 124.001C121.494 124.815 123.168 125.303 124.842 125.466C125.093 125.466 125.428 125.547 125.679 125.547C125.93 125.547 126.181 125.547 126.516 125.547H126.683H127.353H127.687L128.19 125.466C128.441 125.466 128.608 125.385 128.859 125.385H129.11C129.361 125.303 129.612 125.303 129.78 125.222H129.947C131.035 124.978 132.04 124.571 132.96 124.082C133.128 124.001 133.211 123.919 133.379 123.838V127.338C133.379 128.234 132.458 128.885 131.705 129.373C128.943 130.92 124.256 130.92 121.41 129.373C120.322 128.722 119.653 127.989 119.653 127.257V123.757L120.071 124.001ZM95.7157 132.629C95.7157 131.896 96.3852 131.083 97.4733 130.513C100.235 128.966 104.922 128.966 107.768 130.513C108.856 131.164 109.525 131.896 109.525 132.629V132.71C109.525 132.792 109.525 132.873 109.525 132.873V132.955C109.274 133.606 108.856 134.176 108.27 134.501L108.186 134.583C108.103 134.664 107.935 134.745 107.852 134.827C105.09 136.373 100.403 136.373 97.557 134.827C97.3896 134.745 97.3059 134.664 97.1385 134.583L96.9711 134.501C96.8874 134.42 96.8037 134.42 96.8037 134.338L96.6363 134.176L96.4689 134.094C96.3852 134.013 96.3852 134.013 96.3015 133.931L96.2178 133.85C96.1342 133.769 96.1341 133.687 96.0505 133.606C96.0505 133.606 96.0505 133.606 95.9668 133.524C95.8831 133.443 95.8831 133.362 95.8831 133.28C95.8831 133.199 95.7994 133.117 95.7994 133.036C95.7994 132.873 95.7994 132.792 95.7157 132.629C95.7994 132.71 95.7994 132.71 95.7157 132.629ZM96.1341 137.106C96.6363 137.35 97.0548 137.594 97.557 137.757H97.6407C97.8918 137.839 98.1429 137.92 98.3102 138.001L98.8124 138.164L99.1472 138.246L99.8168 138.408H99.9842C100.235 138.408 100.403 138.49 100.654 138.49H100.821C101.072 138.49 101.407 138.571 101.658 138.571C101.909 138.571 102.16 138.571 102.411 138.571H102.495C102.746 138.571 102.997 138.571 103.248 138.571H103.416C105.341 138.49 107.266 138.001 109.023 137.025C109.191 136.943 109.274 136.862 109.442 136.78V140.362C109.442 141.257 108.521 141.909 107.768 142.397C105.006 143.944 100.319 143.944 97.4733 142.397C96.3852 141.746 95.7157 141.013 95.7157 140.362V136.862C95.8831 136.943 96.0505 137.025 96.1341 137.106ZM125.177 209.714L81.2363 185.05C81.0689 184.969 80.9852 184.806 80.9852 184.643V144.432L124.926 169.096C125.093 169.177 125.177 169.34 125.177 169.503V209.714ZM126.767 166.817C126.599 166.898 126.432 166.898 126.265 166.817L82.3243 142.153L93.1211 136.129V140.281C93.2048 141.99 94.2928 143.537 96.2178 144.595C100.235 146.63 105.09 146.63 109.191 144.595C111.702 143.211 112.204 141.502 112.204 140.362V132.71C112.204 131.001 111.116 129.455 109.107 128.315C108.772 128.152 108.437 127.989 108.019 127.827L117.058 122.78V127.338C117.058 129.048 118.23 130.594 120.155 131.652C122.164 132.71 124.34 133.199 126.599 133.199C128.859 133.199 131.119 132.71 133.044 131.652C135.555 130.269 136.057 128.559 136.057 127.42V122.861L145.096 127.908C144.761 128.071 144.343 128.234 144.008 128.396C142.083 129.455 140.995 131.001 140.995 132.629V132.71V132.792V140.443C141.079 142.153 142.167 143.699 144.092 144.758C148.109 146.793 152.964 146.793 157.065 144.758C159.576 143.374 160.078 141.664 160.078 140.525V136.292L170.791 142.316L126.767 166.817ZM172.046 184.643C172.046 184.806 171.963 184.969 171.795 185.05L127.855 209.714V169.503C127.855 169.34 127.939 169.177 128.106 169.096L172.046 144.432V184.643Z" fill="white"/>
<path d="M132.961 141.339C129.362 139.304 123.67 139.304 119.988 141.339C118.063 142.397 116.975 143.944 116.975 145.572V145.653V153.304C116.975 155.014 118.146 156.56 120.071 157.619C124.089 159.654 128.943 159.654 133.044 157.619C135.555 156.235 136.057 154.525 136.057 153.386V145.734C136.057 144.025 134.969 142.478 132.961 141.339ZM133.379 153.467C133.379 154.363 132.458 155.014 131.705 155.502C128.943 157.049 124.256 157.049 121.41 155.502C120.322 154.851 119.653 154.118 119.653 153.467V149.967L120.071 150.211C120.322 150.374 120.574 150.455 120.741 150.537C120.908 150.618 121.076 150.7 121.243 150.7L121.494 150.781C121.578 150.862 121.745 150.862 121.913 150.944C122.08 151.025 122.164 151.025 122.331 151.107L122.582 151.188C122.75 151.269 122.917 151.269 123.084 151.351L123.335 151.432C123.503 151.514 123.754 151.514 123.921 151.514H124.172C124.34 151.514 124.591 151.595 124.842 151.595H125.009L125.679 151.676H125.846C126.097 151.676 126.349 151.676 126.516 151.676H126.683C126.934 151.676 127.102 151.676 127.353 151.676H127.604C127.855 151.676 128.022 151.676 128.274 151.595H128.357C128.608 151.595 128.859 151.514 129.111 151.514L129.445 151.432L129.947 151.351L130.282 151.269L130.784 151.107C130.952 151.025 131.119 151.025 131.287 150.944L131.538 150.862C131.789 150.781 131.956 150.7 132.124 150.618L132.207 150.537C132.458 150.455 132.709 150.293 132.877 150.211C133.044 150.13 133.128 150.048 133.295 149.967L133.379 153.467ZM133.379 145.734C133.379 145.897 133.379 145.897 133.379 145.979V146.06C133.128 146.711 132.709 147.281 132.124 147.607L132.04 147.688C131.956 147.769 131.789 147.851 131.705 147.932C129.11 149.397 124.758 149.479 121.996 148.176C121.829 148.095 121.662 148.013 121.494 147.932C121.327 147.851 121.243 147.769 121.076 147.688L120.908 147.525L120.741 147.444L120.574 147.281L120.49 147.2C120.406 147.118 120.406 147.037 120.322 147.037L120.239 146.955C120.155 146.874 120.155 146.793 120.071 146.711C120.071 146.711 120.071 146.711 120.071 146.63C119.988 146.548 119.988 146.467 119.904 146.386C119.904 146.304 119.82 146.223 119.82 146.141C119.82 146.06 119.82 145.979 119.82 145.897V145.734C119.82 145.002 120.49 144.188 121.494 143.618C124.256 142.071 128.943 142.071 131.789 143.618C132.877 144.269 133.463 145.002 133.379 145.734Z" fill="white"/>
<path d="M326.969 202.144C326.802 201.412 326.467 200.842 325.881 200.353C325.797 200.272 325.797 200.272 325.714 200.191C325.63 200.109 325.546 200.028 325.463 200.028L312.239 192.621V192.132C312.239 190.423 311.151 188.876 309.142 187.737C306.631 186.434 303.785 185.946 301.023 186.271L288.385 179.19V179.108C288.385 177.399 287.297 175.852 285.288 174.713C281.69 172.678 275.998 172.678 272.316 174.713C270.391 175.771 269.303 177.317 269.303 178.945V179.027V179.19L256.581 186.271C253.735 185.946 250.638 186.434 248.379 187.737C246.454 188.795 245.366 190.341 245.366 191.969V192.051V192.539L232.225 199.947C232.142 200.028 232.058 200.028 231.974 200.109L231.807 200.272C231.305 200.76 230.886 201.412 230.719 202.063C230.719 202.144 230.719 202.226 230.719 202.226C230.719 202.307 230.719 202.47 230.719 202.551V243.984C230.719 245.042 231.388 246.1 232.309 246.67L277.337 271.904C277.421 271.985 277.505 271.985 277.672 272.066C278.509 272.392 279.43 272.392 280.267 272.066C280.35 271.985 280.518 271.985 280.602 271.904L325.63 246.67C326.551 246.1 327.22 245.123 327.22 243.984V202.551C327.22 202.47 327.22 202.307 327.22 202.226C327.053 202.226 327.053 202.226 326.969 202.144ZM307.886 189.934C308.974 190.586 309.644 191.318 309.644 192.051V192.132C309.644 192.214 309.644 192.295 309.644 192.295V192.376C309.393 193.028 308.974 193.597 308.389 193.923L308.305 194.004C308.221 194.086 308.054 194.167 307.97 194.249C305.208 195.795 300.521 195.795 297.675 194.249C297.508 194.167 297.424 194.086 297.257 194.004L297.09 193.923C297.006 193.842 296.922 193.842 296.922 193.76L296.755 193.597C296.671 193.597 296.671 193.516 296.587 193.516C296.504 193.435 296.504 193.353 296.42 193.353L296.336 193.272C296.253 193.19 296.253 193.109 296.169 193.028V192.946C296.085 192.865 296.085 192.783 296.002 192.702C295.918 192.539 295.918 192.295 295.918 192.132V192.051C295.918 191.318 296.587 190.586 297.592 189.934C300.437 188.388 305.124 188.388 307.886 189.934ZM309.644 196.284V199.784C309.644 200.679 308.723 201.33 307.97 201.819C305.208 203.365 300.521 203.365 297.675 201.819C296.587 201.167 295.918 200.435 295.918 199.784V196.284C296.085 196.365 296.169 196.446 296.336 196.528C296.838 196.772 297.257 197.016 297.759 197.179H297.843C298.094 197.26 298.261 197.342 298.512 197.423L299.015 197.586L299.349 197.667L300.019 197.83H300.186C300.437 197.83 300.605 197.912 300.856 197.912H301.023C301.274 197.912 301.609 197.993 301.86 197.993C302.111 197.993 302.362 197.993 302.614 197.993H302.697C302.948 197.993 303.199 197.993 303.45 197.993H303.534C305.459 197.912 307.384 197.423 309.142 196.446C309.393 196.446 309.56 196.365 309.644 196.284ZM271.981 179.027C271.981 178.294 272.65 177.48 273.655 176.91C276.417 175.364 281.104 175.364 283.949 176.91C285.037 177.562 285.707 178.294 285.707 179.027V179.108C285.707 179.19 285.707 179.271 285.707 179.271V179.352C285.456 180.004 285.037 180.573 284.452 180.899C284.452 180.899 284.368 180.899 284.368 180.98C284.284 181.062 284.117 181.143 284.033 181.225C281.438 182.69 277.086 182.771 274.324 181.469C274.157 181.387 273.99 181.306 273.822 181.225C273.655 181.143 273.571 181.062 273.404 180.98L273.236 180.818L273.069 180.736L272.901 180.573L272.818 180.492C272.734 180.411 272.734 180.329 272.65 180.329L272.567 180.248C272.483 180.166 272.483 180.085 272.399 180.004L272.316 179.922C272.232 179.841 272.232 179.759 272.232 179.678V179.597C272.232 179.515 272.148 179.434 272.148 179.352C272.148 179.271 272.148 179.19 272.148 179.108V179.027H271.981ZM272.399 183.422C273.822 184.236 275.496 184.725 277.17 184.888C277.421 184.888 277.756 184.969 278.007 184.969C278.258 184.969 278.509 184.969 278.844 184.969H279.011H279.681H280.016L280.518 184.888C280.769 184.888 280.936 184.806 281.187 184.806H281.438C281.69 184.725 281.941 184.725 282.108 184.643H282.275C283.363 184.399 284.368 183.992 285.288 183.504C285.456 183.422 285.54 183.341 285.707 183.26V186.76C285.707 187.655 284.786 188.306 284.033 188.795C281.271 190.341 276.584 190.341 273.738 188.795C272.65 188.144 271.981 187.411 271.981 186.678V183.178L272.399 183.422ZM248.044 192.051C248.044 191.318 248.713 190.504 249.801 189.934C252.563 188.388 257.25 188.388 260.096 189.934C261.184 190.586 261.854 191.318 261.854 192.051V192.132C261.854 192.214 261.854 192.295 261.854 192.295V192.376C261.603 193.028 261.184 193.597 260.598 193.923L260.514 194.004C260.431 194.086 260.263 194.167 260.18 194.249C257.418 195.795 252.731 195.795 249.885 194.249C249.718 194.167 249.634 194.086 249.467 194.004L249.299 193.923C249.216 193.842 249.132 193.842 249.132 193.76L248.964 193.597L248.797 193.516C248.713 193.435 248.713 193.435 248.63 193.353L248.546 193.272C248.462 193.19 248.462 193.109 248.379 193.028C248.379 193.028 248.379 193.028 248.295 192.946C248.211 192.865 248.211 192.783 248.211 192.702C248.211 192.621 248.127 192.539 248.127 192.458C248.127 192.295 248.128 192.214 248.044 192.051C248.128 192.132 248.128 192.132 248.044 192.051ZM248.462 196.528C248.964 196.772 249.383 197.016 249.885 197.179H249.969C250.22 197.26 250.471 197.342 250.638 197.423L251.141 197.586L251.475 197.667L252.145 197.83H252.312C252.563 197.83 252.731 197.912 252.982 197.912H253.149C253.4 197.912 253.735 197.993 253.986 197.993C254.237 197.993 254.488 197.993 254.739 197.993H254.823C255.074 197.993 255.325 197.993 255.576 197.993H255.744C257.669 197.912 259.594 197.423 261.351 196.446C261.519 196.365 261.603 196.284 261.77 196.202V199.784C261.77 200.679 260.849 201.33 260.096 201.819C257.334 203.365 252.647 203.365 249.801 201.819C248.713 201.167 248.044 200.435 248.044 199.784V196.284C248.211 196.365 248.379 196.446 248.462 196.528ZM277.505 269.136L233.564 244.472C233.397 244.391 233.313 244.228 233.313 244.065V203.854L277.254 228.518C277.421 228.599 277.505 228.762 277.505 228.925V269.136ZM279.095 226.239C278.928 226.32 278.76 226.32 278.593 226.239L234.652 201.574L245.449 195.551V199.702C245.533 201.412 246.621 202.958 248.546 204.016C252.563 206.051 257.418 206.051 261.519 204.016C264.03 202.633 264.532 200.923 264.532 199.784V192.132C264.532 190.423 263.444 188.876 261.435 187.737C261.1 187.574 260.766 187.411 260.347 187.248L269.386 182.201V186.76C269.386 188.469 270.558 190.016 272.483 191.074C274.492 192.132 276.668 192.621 278.928 192.621C281.187 192.621 283.447 192.132 285.372 191.074C287.883 189.69 288.385 187.981 288.385 186.841V182.283L297.424 187.33C297.09 187.492 296.671 187.655 296.336 187.818C294.411 188.876 293.323 190.423 293.323 192.051V192.132V192.214V199.865C293.407 201.574 294.495 203.121 296.42 204.179C300.437 206.214 305.292 206.214 309.393 204.179C311.904 202.795 312.406 201.086 312.406 199.947V195.714L323.119 201.737L279.095 226.239ZM324.374 244.065C324.374 244.228 324.291 244.391 324.123 244.472L280.183 269.136V228.925C280.183 228.762 280.267 228.599 280.434 228.518L324.374 203.854V244.065Z" fill="white"/>
<path d="M285.289 200.76C281.69 198.725 275.998 198.725 272.316 200.76C270.391 201.819 269.303 203.365 269.303 204.993V205.075V212.726C269.303 214.435 270.474 215.982 272.399 217.04C276.417 219.075 281.271 219.075 285.372 217.04C287.883 215.656 288.385 213.947 288.385 212.807V205.156C288.385 203.447 287.297 201.9 285.289 200.76ZM285.707 212.889C285.707 213.784 284.786 214.435 284.033 214.924C281.271 216.47 276.584 216.47 273.739 214.924C272.651 214.273 271.981 213.54 271.981 212.889V209.389L272.399 209.633C272.651 209.796 272.902 209.877 273.069 209.958C273.236 210.04 273.404 210.121 273.571 210.121L273.822 210.203C273.906 210.284 274.073 210.284 274.241 210.365C274.408 210.447 274.492 210.447 274.659 210.528L274.91 210.61C275.078 210.691 275.245 210.691 275.413 210.772L275.664 210.854C275.831 210.935 276.082 210.935 276.249 210.935H276.501C276.668 210.935 276.919 211.017 277.17 211.017H277.338L278.007 211.098H278.174C278.426 211.098 278.677 211.098 278.844 211.098H279.011C279.263 211.098 279.43 211.098 279.681 211.098H279.932C280.183 211.098 280.351 211.098 280.602 211.017H280.685C280.936 211.017 281.188 210.935 281.439 210.935L281.773 210.854L282.276 210.772L282.61 210.691L283.113 210.528C283.28 210.447 283.447 210.447 283.615 210.365L283.866 210.284C284.117 210.203 284.284 210.121 284.452 210.04L284.535 209.958C284.786 209.877 285.038 209.714 285.205 209.633C285.372 209.552 285.456 209.47 285.623 209.389L285.707 212.889ZM285.707 205.156C285.707 205.319 285.707 205.319 285.707 205.4V205.482C285.456 206.133 285.038 206.703 284.452 207.028L284.368 207.11C284.284 207.191 284.117 207.272 284.033 207.354C281.439 208.819 277.086 208.9 274.324 207.598C274.157 207.517 273.99 207.435 273.822 207.354C273.655 207.272 273.571 207.191 273.404 207.11L273.236 206.947L273.069 206.865L272.902 206.703L272.818 206.621C272.734 206.54 272.734 206.458 272.651 206.458L272.567 206.377C272.483 206.296 272.483 206.214 272.399 206.133C272.399 206.133 272.399 206.133 272.399 206.051C272.316 205.97 272.316 205.889 272.232 205.807C272.232 205.726 272.148 205.644 272.148 205.563C272.148 205.482 272.148 205.4 272.148 205.319V205.156C272.148 204.423 272.818 203.609 273.822 203.04C276.584 201.493 281.271 201.493 284.117 203.04C285.205 203.691 285.791 204.423 285.707 205.156Z" fill="white"/>
<path d="M147.86 266.45C147.692 265.717 147.358 265.147 146.772 264.659C146.688 264.578 146.688 264.578 146.604 264.496C146.521 264.415 146.437 264.333 146.353 264.333L133.129 256.926V256.438C133.129 254.728 132.041 253.182 130.033 252.042C127.522 250.74 124.676 250.251 121.914 250.577L109.276 243.495V243.414C109.276 241.704 108.188 240.158 106.179 239.018C102.58 236.983 96.8889 236.983 93.2063 239.018C91.2813 240.076 90.1932 241.623 90.1932 243.251V243.332V243.495L77.4714 250.577C74.6258 250.251 71.529 250.74 69.2692 252.042C67.3442 253.1 66.2562 254.647 66.2562 256.275V256.356V256.845L53.1159 264.252C53.0322 264.333 52.9485 264.333 52.8648 264.415L52.6974 264.578C52.1952 265.066 51.7768 265.717 51.6094 266.368C51.6094 266.45 51.6094 266.531 51.6094 266.531C51.6094 266.613 51.6094 266.775 51.6094 266.857V308.289C51.6094 309.347 52.2789 310.405 53.1996 310.975L98.228 336.209C98.3117 336.291 98.3954 336.291 98.5628 336.372C99.3998 336.698 100.32 336.698 101.157 336.372C101.241 336.291 101.408 336.291 101.492 336.209L146.521 310.975C147.441 310.405 148.111 309.429 148.111 308.289V266.857C148.111 266.775 148.111 266.613 148.111 266.531C147.943 266.531 147.943 266.531 147.86 266.45ZM128.777 254.24C129.865 254.891 130.535 255.624 130.535 256.356V256.438C130.535 256.519 130.535 256.6 130.535 256.6V256.682C130.284 257.333 129.865 257.903 129.279 258.228L129.196 258.31C129.112 258.391 128.944 258.473 128.861 258.554C126.099 260.101 121.412 260.101 118.566 258.554C118.399 258.473 118.315 258.391 118.148 258.31L117.98 258.228C117.897 258.147 117.813 258.147 117.813 258.066L117.646 257.903C117.562 257.903 117.562 257.821 117.478 257.821C117.394 257.74 117.394 257.659 117.311 257.659L117.227 257.577C117.143 257.496 117.143 257.414 117.06 257.333V257.252C116.976 257.17 116.976 257.089 116.892 257.007C116.809 256.845 116.809 256.6 116.809 256.438V256.356C116.809 255.624 117.478 254.891 118.482 254.24C121.328 252.693 126.015 252.693 128.777 254.24ZM130.535 260.589V264.089C130.535 264.985 129.614 265.636 128.861 266.124C126.099 267.671 121.412 267.671 118.566 266.124C117.478 265.473 116.809 264.74 116.809 264.089V260.589C116.976 260.67 117.06 260.752 117.227 260.833C117.729 261.077 118.148 261.322 118.65 261.484H118.734C118.985 261.566 119.152 261.647 119.403 261.729L119.905 261.891L120.24 261.973L120.91 262.136H121.077C121.328 262.136 121.496 262.217 121.747 262.217H121.914C122.165 262.217 122.5 262.298 122.751 262.298C123.002 262.298 123.253 262.298 123.504 262.298H123.588C123.839 262.298 124.09 262.298 124.341 262.298H124.425C126.35 262.217 128.275 261.729 130.033 260.752C130.284 260.752 130.451 260.67 130.535 260.589ZM92.8715 243.332C92.8715 242.6 93.5411 241.786 94.5454 241.216C97.3074 239.669 101.994 239.669 104.84 241.216C105.928 241.867 106.598 242.6 106.598 243.332V243.414C106.598 243.495 106.598 243.577 106.598 243.577V243.658C106.347 244.309 105.928 244.879 105.342 245.204C105.342 245.204 105.258 245.204 105.258 245.286C105.175 245.367 105.007 245.449 104.924 245.53C102.329 246.995 97.9769 247.077 95.215 245.774C95.0476 245.693 94.8802 245.611 94.7128 245.53C94.5454 245.449 94.4617 245.367 94.2943 245.286L94.1269 245.123L93.9595 245.042L93.7921 244.879L93.7085 244.797C93.6248 244.716 93.6248 244.635 93.5411 244.635L93.4574 244.553C93.3737 244.472 93.3737 244.39 93.29 244.309L93.2063 244.228C93.1226 244.146 93.1226 244.065 93.1226 243.983V243.902C93.1226 243.821 93.0389 243.739 93.0389 243.658C93.0389 243.576 93.0389 243.495 93.0389 243.414V243.332H92.8715ZM93.29 247.728C94.7128 248.542 96.3867 249.03 98.0606 249.193C98.3117 249.193 98.6465 249.274 98.8976 249.274C99.1487 249.274 99.3998 249.274 99.7346 249.274H99.902H100.572H100.906L101.408 249.193C101.66 249.193 101.827 249.112 102.078 249.112H102.329C102.58 249.03 102.831 249.03 102.999 248.949H103.166C104.254 248.705 105.258 248.298 106.179 247.809C106.347 247.728 106.43 247.646 106.598 247.565V251.065C106.598 251.961 105.677 252.612 104.924 253.1C102.162 254.647 97.4748 254.647 94.6291 253.1C93.5411 252.449 92.8715 251.716 92.8715 250.984V247.484L93.29 247.728ZM68.9344 256.356C68.9344 255.624 69.604 254.81 70.6921 254.24C73.454 252.693 78.141 252.693 80.9867 254.24C82.0747 254.891 82.7443 255.624 82.7443 256.356V256.438C82.7443 256.519 82.7443 256.6 82.7443 256.6V256.682C82.4932 257.333 82.0747 257.903 81.4888 258.228L81.4051 258.31C81.3214 258.391 81.1541 258.473 81.0704 258.554C78.3084 260.101 73.6214 260.101 70.7758 258.554C70.6084 258.473 70.5247 258.391 70.3573 258.31L70.1899 258.228C70.1062 258.147 70.0225 258.147 70.0225 258.066L69.8551 257.903L69.6877 257.821C69.604 257.74 69.604 257.74 69.5203 257.659L69.4366 257.577C69.3529 257.496 69.3529 257.414 69.2692 257.333C69.2692 257.333 69.2692 257.333 69.1855 257.252C69.1018 257.17 69.1018 257.089 69.1018 257.007C69.1018 256.926 69.0181 256.845 69.0181 256.763C69.0181 256.6 69.0181 256.519 68.9344 256.356C69.0181 256.438 69.0181 256.438 68.9344 256.356ZM69.3529 260.833C69.8551 261.077 70.2736 261.322 70.7758 261.484H70.8594C71.1105 261.566 71.3616 261.647 71.529 261.729L72.0312 261.891L72.366 261.973L73.0355 262.136H73.2029C73.454 262.136 73.6214 262.217 73.8725 262.217H74.0399C74.291 262.217 74.6258 262.298 74.8769 262.298C75.1279 262.298 75.379 262.298 75.6301 262.298H75.7138C75.9649 262.298 76.216 262.298 76.4671 262.298H76.6345C78.5595 262.217 80.4845 261.729 82.2421 260.752C82.4095 260.67 82.4932 260.589 82.6606 260.508V264.089C82.6606 264.985 81.7399 265.636 80.9867 266.124C78.2247 267.671 73.5377 267.671 70.6921 266.124C69.604 265.473 68.9344 264.74 68.9344 264.089V260.589C69.1018 260.67 69.2692 260.752 69.3529 260.833ZM98.3954 333.442L54.455 308.777C54.2876 308.696 54.2039 308.533 54.2039 308.37V268.159L98.1443 292.823C98.3117 292.905 98.3954 293.067 98.3954 293.23V333.442ZM99.9857 290.544C99.8183 290.625 99.6509 290.625 99.4835 290.544L55.5431 265.88L66.3399 259.856V264.008C66.4236 265.717 67.5116 267.264 69.4366 268.322C73.454 270.357 78.3084 270.357 82.4095 268.322C84.9204 266.938 85.4226 265.229 85.4226 264.089V256.438C85.4226 254.728 84.3345 253.182 82.3258 252.042C81.991 251.879 81.6562 251.716 81.2378 251.554L90.2769 246.507V251.065C90.2769 252.775 91.4487 254.321 93.3737 255.379C95.3824 256.438 97.5585 256.926 99.8183 256.926C102.078 256.926 104.338 256.438 106.263 255.379C108.774 253.996 109.276 252.286 109.276 251.147V246.588L118.315 251.635C117.98 251.798 117.562 251.961 117.227 252.123C115.302 253.182 114.214 254.728 114.214 256.356V256.438V256.519V264.171C114.298 265.88 115.386 267.427 117.311 268.485C121.328 270.52 126.182 270.52 130.284 268.485C132.794 267.101 133.297 265.392 133.297 264.252V260.019L144.01 266.043L99.9857 290.544ZM145.265 308.37C145.265 308.533 145.181 308.696 145.014 308.777L101.074 333.442V293.23C101.074 293.067 101.157 292.905 101.325 292.823L145.265 268.159V308.37Z" fill="white"/>
<path d="M106.179 265.066C102.58 263.031 96.889 263.031 93.2064 265.066C91.2814 266.124 90.1934 267.671 90.1934 269.299V269.38V277.032C90.1934 278.741 91.3651 280.288 93.2901 281.346C97.3075 283.381 102.162 283.381 106.263 281.346C108.774 279.962 109.276 278.253 109.276 277.113V269.462C109.276 267.752 108.188 266.206 106.179 265.066ZM106.598 277.195C106.598 278.09 105.677 278.741 104.924 279.229C102.162 280.776 97.4749 280.776 94.6292 279.229C93.5412 278.578 92.8716 277.846 92.8716 277.195V273.694L93.2901 273.939C93.5412 274.101 93.7923 274.183 93.9597 274.264C94.1271 274.346 94.2945 274.427 94.4618 274.427L94.7129 274.508C94.7966 274.59 94.964 274.59 95.1314 274.671C95.2988 274.753 95.3825 274.753 95.5499 274.834L95.801 274.915C95.9684 274.997 96.1358 274.997 96.3032 275.078L96.5542 275.16C96.7216 275.241 96.9727 275.241 97.1401 275.241H97.3912C97.5586 275.241 97.8097 275.322 98.0608 275.322H98.2282L98.8977 275.404H99.0651C99.3162 275.404 99.5673 275.404 99.7347 275.404H99.9021C100.153 275.404 100.321 275.404 100.572 275.404H100.823C101.074 275.404 101.241 275.404 101.492 275.322H101.576C101.827 275.322 102.078 275.241 102.329 275.241L102.664 275.16L103.166 275.078L103.501 274.997L104.003 274.834C104.171 274.753 104.338 274.753 104.505 274.671L104.756 274.59C105.008 274.508 105.175 274.427 105.342 274.346L105.426 274.264C105.677 274.183 105.928 274.02 106.096 273.939C106.263 273.857 106.347 273.776 106.514 273.694L106.598 277.195ZM106.598 269.462C106.598 269.624 106.598 269.624 106.598 269.706V269.787C106.347 270.438 105.928 271.008 105.342 271.334L105.259 271.415C105.175 271.497 105.008 271.578 104.924 271.659C102.329 273.125 97.9771 273.206 95.2151 271.904C95.0477 271.822 94.8803 271.741 94.7129 271.659C94.5455 271.578 94.4618 271.497 94.2945 271.415L94.1271 271.252L93.9597 271.171L93.7923 271.008L93.7086 270.927C93.6249 270.845 93.6249 270.764 93.5412 270.764L93.4575 270.683C93.3738 270.601 93.3738 270.52 93.2901 270.438C93.2901 270.438 93.2901 270.438 93.2901 270.357C93.2064 270.276 93.2064 270.194 93.1227 270.113C93.1227 270.031 93.039 269.95 93.039 269.869C93.039 269.787 93.039 269.706 93.039 269.624V269.462C93.039 268.729 93.7086 267.915 94.7129 267.345C97.4749 265.799 102.162 265.799 105.008 267.345C106.096 267.996 106.681 268.729 106.598 269.462Z" fill="white"/>
<path d="M96.469 29.0074C96.3016 28.2748 95.9668 27.705 95.381 27.2166C95.2973 27.1352 95.2973 27.1352 95.2136 27.0538C95.1299 26.9724 95.0462 26.891 94.9625 26.891L81.7385 19.4837V19.0767C81.7385 17.3673 80.6505 15.8207 78.6418 14.6811C76.1309 13.3787 73.2852 12.8903 70.5233 13.2159L57.8852 6.05277V5.97137C57.8852 4.26198 56.7972 2.71539 54.7885 1.5758C51.1895 -0.459186 45.4982 -0.459186 41.8156 1.5758C39.8906 2.63399 38.8025 4.18058 38.8025 5.80858V5.88997V6.05277L26.0808 13.2159C23.2351 12.8903 20.1384 13.3787 17.8786 14.6811C15.9536 15.7393 14.8655 17.2859 14.8655 18.9139V18.9953V19.4837L1.72528 26.891C1.64158 26.9724 1.55788 26.9724 1.47419 27.0538L1.3068 27.2166C0.804621 27.705 0.386142 28.3562 0.21875 29.0074C0.21875 29.0888 0.21875 29.1702 0.21875 29.1702C0.21875 29.2516 0.21875 29.4144 0.21875 29.4958V70.9282C0.21875 71.9864 0.888317 73.0446 1.80897 73.6144L46.8373 98.8482C46.921 98.9296 47.0047 98.9296 47.1721 99.011C48.0091 99.3366 48.9297 99.3366 49.7667 99.011C49.8504 98.9296 50.0178 98.9296 50.1015 98.8482L95.1299 73.6144C96.0505 73.0446 96.7201 72.0678 96.7201 70.9282V29.5772C96.7201 29.4958 96.7201 29.333 96.7201 29.2516C96.469 29.1702 96.469 29.0888 96.469 29.0074ZM77.3863 16.8789C78.4744 17.5301 79.144 18.2627 79.144 18.9953V19.0767C79.144 19.1581 79.144 19.2395 79.144 19.2395V19.3209C78.8929 19.9721 78.4744 20.5419 77.8885 20.8675L77.8048 20.9489C77.7211 21.0303 77.5537 21.1117 77.47 21.1931C74.7081 22.7397 70.0211 22.7397 67.1754 21.1931C67.0081 21.1117 66.9244 21.0303 66.757 20.9489L66.5896 20.8675C66.5059 20.7861 66.4222 20.7861 66.4222 20.7047L66.2548 20.5419C66.1711 20.5419 66.1711 20.4605 66.0874 20.4605C66.0037 20.3791 66.0037 20.2977 65.92 20.2977L65.8363 20.2163C65.7526 20.1349 65.7526 20.0535 65.6689 19.9721V19.8907C65.5852 19.8093 65.5852 19.7279 65.5015 19.6465C65.4178 19.4023 65.4178 19.2395 65.4178 18.9953V18.9139C65.4178 18.1813 66.0874 17.4487 67.0918 16.7975C69.8537 15.3323 74.5407 15.3323 77.3863 16.8789ZM79.144 23.1467V26.6468C79.144 27.5422 78.2233 28.1934 77.47 28.6818C74.7081 30.2284 70.0211 30.2284 67.1754 28.6818C66.0874 28.0306 65.4178 27.298 65.4178 26.6468V23.1467C65.5852 23.2281 65.6689 23.3095 65.8363 23.3909C66.3385 23.6351 66.757 23.8793 67.2591 24.0421H67.3428C67.5939 24.1235 67.7613 24.2049 68.0124 24.2863L68.5146 24.4491L68.8494 24.5305L69.5189 24.6933H69.6863C69.9374 24.6933 70.1048 24.7747 70.3559 24.7747H70.5233C70.7744 24.7747 71.1092 24.8561 71.3602 24.8561C71.6113 24.8561 71.8624 24.8561 72.1135 24.8561H72.1972C72.4483 24.8561 72.6994 24.8561 72.9505 24.8561H73.0342C74.9592 24.7747 76.8842 24.2863 78.6418 23.3095C78.8929 23.3095 78.9766 23.2281 79.144 23.1467ZM41.4808 5.88997C41.4808 5.15738 42.1504 4.34338 43.1547 3.77359C45.9167 2.227 50.6037 2.227 53.4493 3.77359C54.5374 4.42478 55.2069 5.15738 55.2069 5.88997V5.97137C55.2069 6.05277 55.2069 6.13417 55.2069 6.13417V6.21557C54.9559 6.86677 54.5374 7.43657 53.9515 7.76216C53.9515 7.76216 53.8678 7.76216 53.8678 7.84356C53.7841 7.92496 53.6167 8.00636 53.533 8.08776C50.9384 9.55295 46.5863 9.63435 43.8243 8.33196C43.6569 8.25056 43.4895 8.16916 43.3221 8.08776C43.1547 8.00636 43.071 7.92496 42.9036 7.84356L42.7363 7.68076L42.5689 7.59936L42.4015 7.43657L42.2341 7.35517C42.1504 7.27377 42.1504 7.19237 42.0667 7.19237L41.983 7.02957C41.8993 6.94817 41.8993 6.86677 41.8156 6.78537L41.7319 6.70397C41.6482 6.62257 41.6482 6.54117 41.6482 6.45977V6.54117C41.6482 6.45977 41.5645 6.37837 41.5645 6.29697C41.5645 6.21557 41.5645 6.13417 41.5645 6.05277V5.88997H41.4808ZM41.8993 10.3669C43.3221 11.1809 44.996 11.6693 46.67 11.8321C46.921 11.8321 47.2558 11.9135 47.5069 11.9135C47.758 11.9135 48.0091 11.9135 48.3439 11.9135H48.5113H49.1808H49.5156L50.0178 11.8321C50.2689 11.8321 50.4363 11.7507 50.6874 11.7507H50.9384C51.1895 11.6693 51.4406 11.6693 51.608 11.5879H51.7754C52.8635 11.3437 53.8678 10.9367 54.7885 10.4483C54.9559 10.3669 55.0396 10.2855 55.2069 10.2041V13.7043C55.2069 14.5997 54.2863 15.2509 53.533 15.7393C50.7711 17.2859 46.0841 17.2859 43.2384 15.7393C42.1504 15.0881 41.4808 14.3555 41.4808 13.6229V10.1227L41.8993 10.3669ZM17.5438 18.9953C17.5438 18.2627 18.2134 17.4487 19.3014 16.8789C22.0634 15.3323 26.7503 15.3323 29.596 16.8789C30.684 17.5301 31.3536 18.2627 31.3536 18.9953V19.0767C31.3536 19.1581 31.3536 19.2395 31.3536 19.2395V19.3209C31.1025 19.9721 30.684 20.5419 30.0982 20.8675L30.0145 20.9489C29.9308 21.0303 29.7634 21.1117 29.6797 21.1931C26.9177 22.7397 22.2308 22.7397 19.3851 21.1931C19.2177 21.1117 19.134 21.0303 18.9666 20.9489L18.7992 20.8675C18.7155 20.7861 18.6318 20.7861 18.6318 20.7047L18.4644 20.5419L18.2134 20.3791C18.1297 20.2977 18.1297 20.2977 18.046 20.2163L17.9623 20.1349C17.8786 20.0535 17.8786 19.9721 17.7949 19.8907C17.7949 19.8907 17.7949 19.8907 17.7112 19.8093C17.6275 19.7279 17.6275 19.6465 17.6275 19.5651C17.6275 19.4837 17.5438 19.4023 17.5438 19.3209C17.6275 19.2395 17.6275 19.1581 17.5438 18.9953C17.6275 19.0767 17.6275 19.0767 17.5438 18.9953ZM17.9623 23.3909C18.4644 23.6351 18.8829 23.8793 19.3851 24.0421H19.4688C19.7199 24.1235 19.971 24.2049 20.1384 24.2863L20.6405 24.4491L20.9753 24.5305L21.6449 24.6933H21.8123C22.0634 24.6933 22.2308 24.7747 22.4819 24.7747H22.6492C22.9003 24.7747 23.2351 24.8561 23.4862 24.8561C23.7373 24.8561 23.9884 24.8561 24.2395 24.8561H24.4069C24.6579 24.8561 24.909 24.8561 25.1601 24.8561H25.3275C27.2525 24.7747 29.1775 24.2863 30.9351 23.3095C31.1025 23.2281 31.1862 23.1467 31.3536 23.0653V26.6468C31.3536 27.5422 30.433 28.1934 29.6797 28.6818C26.9177 30.2284 22.2308 30.2284 19.3851 28.6818C18.2971 28.0306 17.6275 27.298 17.6275 26.6468V23.1467C17.6275 23.2281 17.7949 23.3095 17.9623 23.3909ZM47.0047 96.0806L3.06441 71.4166C2.89702 71.3352 2.81332 71.1724 2.81332 71.0096V30.7982L46.7537 55.3809C46.921 55.4623 47.0047 55.6251 47.0047 55.7879V96.0806ZM48.595 53.1831C48.4276 53.2645 48.2602 53.2645 48.0928 53.1831L4.06876 28.519L14.8655 22.4955V26.6468C14.9492 28.3562 16.0373 29.9028 17.9623 30.961C21.9797 32.996 26.834 32.996 30.9351 30.961C33.446 29.5772 33.9482 27.8678 33.9482 26.7282V19.0767C33.9482 17.3673 32.8601 15.8207 30.8514 14.6811C30.5167 14.5183 30.1819 14.3555 29.7634 14.1927L38.8025 9.14596V13.7043C38.8025 15.4137 39.9743 16.9603 41.8993 18.0185C43.908 19.0767 46.0841 19.5651 48.3439 19.5651C50.6037 19.5651 52.8635 19.0767 54.7885 18.0185C57.2993 16.6347 57.8015 14.9253 57.8015 13.7857V9.22736L66.8407 14.2741C66.5059 14.4369 66.0874 14.5997 65.7526 14.7625C63.8276 15.8207 62.7396 17.3673 62.7396 18.9953V19.0767V19.1581V26.8096C62.8233 28.519 63.9113 30.0656 65.8363 31.1238C69.8537 33.1588 74.7081 33.1588 78.8092 31.1238C81.3201 29.74 81.8222 28.0306 81.8222 26.891V22.6583L92.5353 28.6818L48.595 53.1831ZM93.8744 70.9282C93.8744 71.091 93.7907 71.2538 93.6233 71.3352L49.683 96.0806V55.8693C49.683 55.7065 49.7667 55.5437 49.9341 55.4623L93.8744 30.7982V70.9282Z" fill="white"/>
<path d="M54.7886 27.7051C51.1897 25.6701 45.4984 25.6701 41.8158 27.7051C39.8908 28.7633 38.8027 30.3099 38.8027 31.9379V32.0193V39.6708C38.8027 41.3802 39.9745 42.9268 41.8995 43.985C45.9169 46.02 50.7712 46.02 54.8723 43.985C57.3832 42.6012 57.8854 40.8918 57.8854 39.7522V32.0193C57.8854 30.3913 56.7136 28.8447 54.7886 27.7051ZM55.2071 39.7522C55.2071 40.6476 54.2865 41.2988 53.5332 41.7872C50.7712 43.3338 46.0843 43.3338 43.2386 41.7872C42.1506 41.136 41.481 40.4034 41.481 39.7522V36.252L41.8995 36.4962C42.1506 36.659 42.4017 36.7404 42.569 36.8218C42.7364 36.9032 42.9038 36.9846 43.0712 36.9846L43.3223 37.066C43.406 37.1474 43.5734 37.1474 43.7408 37.2288C43.9082 37.3102 43.9919 37.3102 44.1593 37.3916L44.4104 37.473C44.5777 37.5544 44.7451 37.5544 44.9125 37.6358L45.1636 37.7172C45.331 37.7986 45.5821 37.7986 45.7495 37.7986H46.0006C46.168 37.7986 46.4191 37.88 46.6701 37.88H46.8375L47.5071 37.9614H47.6745C47.9256 37.9614 48.1767 37.9614 48.3441 37.9614H48.5114C48.7625 37.9614 48.9299 37.9614 49.181 37.9614H49.4321C49.6832 37.9614 49.8506 37.9614 50.1017 37.88H50.1854C50.4364 37.88 50.6875 37.7986 50.9386 37.7986L51.2734 37.7172L51.7756 37.6358L52.1104 37.5544L52.6125 37.3916C52.7799 37.3102 52.9473 37.3102 53.1147 37.2288L53.3658 37.1474C53.6169 37.066 53.7843 36.9846 53.9517 36.9032L54.0354 36.8218C54.2865 36.7404 54.5375 36.5776 54.7049 36.4962C54.8723 36.4148 54.956 36.3334 55.1234 36.252L55.2071 39.7522ZM55.2071 32.1007C55.2071 32.2635 55.2071 32.2635 55.2071 32.3449V32.4263C54.956 33.0774 54.5375 33.6472 53.9517 33.9728L53.868 34.0542C53.7843 34.1356 53.6169 34.217 53.5332 34.2984C50.9386 35.7636 46.5864 35.845 43.8245 34.5426C43.6571 34.4612 43.4897 34.3798 43.3223 34.2984C43.1549 34.217 43.0712 34.1356 42.9038 34.0542L42.7364 33.8914L42.569 33.81L42.4017 33.6472L42.318 33.5658C42.2343 33.4844 42.2343 33.403 42.1506 33.403L41.9832 33.2402C41.8995 33.1588 41.8995 33.0774 41.8158 32.996C41.8158 32.996 41.8158 32.9961 41.8158 32.9147C41.7321 32.8333 41.7321 32.7518 41.6484 32.6705C41.6484 32.5891 41.5647 32.5077 41.5647 32.4263C41.5647 32.3449 41.5647 32.2635 41.5647 32.1821V32.1007C41.5647 31.3681 42.2343 30.5541 43.2386 29.9843C46.0006 28.4377 50.6875 28.4377 53.5332 29.9843C54.6212 30.5541 55.2908 31.3681 55.2071 32.1007Z" fill="white"/>
</g>
</svg>
