<svg width="1352" height="333" viewBox="0 0 1352 333" fill="none" xmlns="http://www.w3.org/2000/svg">
<g opacity="0.15">
<path d="M1287.36 62.9809C1287.19 62.2568 1286.86 61.6937 1286.27 61.211C1286.19 61.1306 1286.19 61.1306 1286.11 61.0501C1286.02 60.9697 1285.94 60.8892 1285.86 60.8892L1272.72 53.5684V53.0857C1272.72 51.3962 1271.63 49.8677 1269.62 48.7414C1267.11 47.4543 1264.26 46.9716 1261.5 47.2934L1248.86 40.2943V40.2139C1248.86 38.5244 1247.77 36.9959 1245.77 35.8696C1242.17 33.8584 1236.48 33.8584 1232.79 35.8696C1230.87 36.9155 1229.78 38.444 1229.78 40.053V40.1334V40.2943L1217.06 47.2934C1214.21 46.9716 1211.12 47.4543 1208.86 48.7414C1206.93 49.7873 1205.84 51.3158 1205.84 52.9248V53.0052V53.4879L1192.7 60.8088C1192.62 60.8892 1192.53 60.8892 1192.45 60.9697L1192.28 61.1306C1191.78 61.6132 1191.36 62.2568 1191.2 62.9004C1191.2 62.9809 1191.2 63.0613 1191.2 63.0613C1191.2 63.1418 1191.2 63.3027 1191.2 63.3831V104.332C1191.2 105.377 1191.87 106.423 1192.79 106.986L1237.81 131.926C1237.9 132.006 1237.98 132.006 1238.15 132.086C1238.99 132.408 1239.91 132.408 1240.74 132.086C1240.83 132.006 1240.99 132.006 1241.08 131.926L1286.11 106.986C1287.03 106.423 1287.7 105.458 1287.7 104.332V63.4636C1287.7 63.3831 1287.7 63.2222 1287.7 63.1418C1287.45 63.0613 1287.45 63.0613 1287.36 62.9809ZM1268.28 50.9136C1269.37 51.5571 1270.04 52.2812 1270.04 53.0052V53.0857C1270.04 53.1661 1270.04 53.2466 1270.04 53.2466V53.327C1269.79 53.9706 1269.37 54.5337 1268.78 54.8555L1268.7 54.936C1268.61 55.0164 1268.45 55.0969 1268.36 55.1773C1265.6 56.7059 1260.91 56.7059 1258.07 55.1773C1257.9 55.0969 1257.82 55.0164 1257.65 54.936L1257.48 54.8555C1257.4 54.7751 1257.32 54.7751 1257.32 54.6946L1257.15 54.5338C1257.06 54.5338 1257.06 54.4533 1256.98 54.4533C1256.9 54.3728 1256.9 54.2924 1256.81 54.2924L1256.73 54.212C1256.65 54.1315 1256.65 54.0511 1256.56 53.9706V53.8902C1256.48 53.8097 1256.48 53.7293 1256.39 53.6488C1256.31 53.4879 1256.31 53.2466 1256.31 53.0857V53.0052C1256.31 52.2812 1256.98 51.5571 1257.98 50.9136C1260.83 49.385 1265.52 49.385 1268.28 50.9136ZM1270.04 57.1886V60.6479C1270.04 61.5328 1269.12 62.1764 1268.36 62.6591C1265.6 64.1876 1260.91 64.1876 1258.07 62.6591C1256.98 62.0155 1256.31 61.2915 1256.31 60.6479V57.1886C1256.48 57.269 1256.56 57.3495 1256.73 57.4299C1257.23 57.6713 1257.65 57.9126 1258.15 58.0735H1258.24C1258.49 58.1539 1258.65 58.2344 1258.91 58.3148L1259.41 58.4757L1259.74 58.5562L1260.41 58.7171H1260.58C1260.83 58.7171 1261 58.7975 1261.25 58.7975H1261.42C1261.67 58.7975 1262 58.878 1262.25 58.878C1262.5 58.878 1262.76 58.878 1263.01 58.878H1263.09C1263.34 58.878 1263.59 58.878 1263.84 58.878H1263.93C1265.85 58.7975 1267.78 58.3148 1269.53 57.3495C1269.79 57.3495 1269.95 57.269 1270.04 57.1886ZM1232.37 40.1334C1232.37 39.4094 1233.04 38.6049 1234.05 38.0417C1236.81 36.5132 1241.5 36.5132 1244.34 38.0417C1245.43 38.6853 1246.1 39.4094 1246.1 40.1334V40.2139C1246.1 40.2943 1246.1 40.3748 1246.1 40.3748V40.4552C1245.85 41.0988 1245.43 41.6619 1244.84 41.9837C1244.84 41.9837 1244.76 41.9837 1244.76 42.0642C1244.68 42.1446 1244.51 42.2251 1244.43 42.3055C1241.83 43.7536 1237.48 43.8341 1234.72 42.5469C1234.55 42.4664 1234.38 42.386 1234.22 42.3055C1234.05 42.2251 1233.96 42.1446 1233.8 42.0642L1233.63 41.9033L1233.46 41.8228L1233.29 41.6619L1233.21 41.5815C1233.13 41.501 1233.13 41.4206 1233.04 41.4206L1232.96 41.3401C1232.88 41.2597 1232.88 41.1792 1232.79 41.0988L1232.71 41.0183C1232.63 40.9379 1232.63 40.8575 1232.63 40.777V40.6966C1232.63 40.6161 1232.54 40.5357 1232.54 40.4552C1232.54 40.3748 1232.54 40.2943 1232.54 40.2139V40.1334H1232.37ZM1232.79 44.4776C1234.22 45.2821 1235.89 45.7648 1237.56 45.9257C1237.81 45.9257 1238.15 46.0062 1238.4 46.0062C1238.65 46.0062 1238.9 46.0062 1239.24 46.0062H1239.4H1240.07H1240.41L1240.91 45.9257C1241.16 45.9257 1241.33 45.8453 1241.58 45.8453H1241.83C1242.08 45.7648 1242.33 45.7648 1242.5 45.6844H1242.67C1243.76 45.443 1244.76 45.0408 1245.68 44.5581C1245.85 44.4776 1245.93 44.3972 1246.1 44.3167V47.776C1246.1 48.661 1245.18 49.3046 1244.43 49.7873C1241.66 51.3158 1236.98 51.3158 1234.13 49.7873C1233.04 49.1437 1232.37 48.4196 1232.37 47.6956V44.2363L1232.79 44.4776ZM1208.44 53.0052C1208.44 52.2812 1209.11 51.4767 1210.19 50.9136C1212.96 49.385 1217.64 49.385 1220.49 50.9136C1221.58 51.5571 1222.25 52.2812 1222.25 53.0052V53.0857C1222.25 53.1661 1222.25 53.2466 1222.25 53.2466V53.327C1222 53.9706 1221.58 54.5337 1220.99 54.8555L1220.91 54.936C1220.82 55.0164 1220.66 55.0969 1220.57 55.1773C1217.81 56.7059 1213.12 56.7059 1210.28 55.1773C1210.11 55.0969 1210.03 55.0164 1209.86 54.936L1209.69 54.8555C1209.61 54.7751 1209.52 54.7751 1209.52 54.6946L1209.36 54.5338L1209.19 54.4533C1209.11 54.3728 1209.11 54.3729 1209.02 54.2924L1208.94 54.212C1208.86 54.1315 1208.86 54.0511 1208.77 53.9706C1208.77 53.9706 1208.77 53.9706 1208.69 53.8902C1208.6 53.8097 1208.6 53.7293 1208.6 53.6488C1208.6 53.5684 1208.52 53.4879 1208.52 53.4075C1208.52 53.2466 1208.52 53.1661 1208.44 53.0052C1208.52 53.0857 1208.52 53.0857 1208.44 53.0052ZM1208.86 57.4299C1209.36 57.6713 1209.78 57.9126 1210.28 58.0735H1210.36C1210.61 58.1539 1210.86 58.2344 1211.03 58.3148L1211.53 58.4757L1211.87 58.5562L1212.54 58.7171H1212.71C1212.96 58.7171 1213.12 58.7975 1213.37 58.7975H1213.54C1213.79 58.7975 1214.13 58.878 1214.38 58.878C1214.63 58.878 1214.88 58.878 1215.13 58.878H1215.22C1215.47 58.878 1215.72 58.878 1215.97 58.878H1216.14C1218.06 58.7975 1219.99 58.3148 1221.74 57.3495C1221.91 57.269 1222 57.1886 1222.16 57.1081V60.6479C1222.16 61.5328 1221.24 62.1764 1220.49 62.6591C1217.73 64.1876 1213.04 64.1876 1210.19 62.6591C1209.11 62.0155 1208.44 61.2915 1208.44 60.6479V57.1886C1208.6 57.269 1208.77 57.3495 1208.86 57.4299ZM1237.9 129.19L1193.96 104.814C1193.79 104.734 1193.71 104.573 1193.71 104.412V64.6703L1237.65 89.0463C1237.81 89.1267 1237.9 89.2876 1237.9 89.4485V129.19ZM1239.49 86.7937C1239.32 86.8742 1239.15 86.8742 1238.99 86.7937L1195.05 62.4177L1205.84 56.4645V60.5674C1205.93 62.2568 1207.01 63.7854 1208.94 64.8312C1212.96 66.8424 1217.81 66.8424 1221.91 64.8312C1224.42 63.4636 1224.92 61.7741 1224.92 60.6479V53.0857C1224.92 51.3962 1223.84 49.8677 1221.83 48.7414C1221.49 48.5805 1221.16 48.4196 1220.74 48.2587L1229.78 43.2709V47.776C1229.78 49.4655 1230.95 50.994 1232.88 52.0398C1234.88 53.0857 1237.06 53.5684 1239.32 53.5684C1241.58 53.5684 1243.84 53.0857 1245.77 52.0398C1248.28 50.6722 1248.78 48.9828 1248.78 47.8565V43.3514L1257.82 48.3392C1257.48 48.5001 1257.06 48.661 1256.73 48.8219C1254.8 49.8677 1253.72 51.3962 1253.72 53.0052V53.0857V60.6479C1253.8 62.3373 1254.89 63.8658 1256.81 64.9116C1260.83 66.9229 1265.68 66.9229 1269.79 64.9116C1272.3 63.544 1272.8 61.8546 1272.8 60.7283V56.545L1283.51 62.4982L1239.49 86.7937ZM1284.77 104.412C1284.77 104.573 1284.68 104.734 1284.52 104.814L1240.58 129.19V89.4485C1240.58 89.2876 1240.66 89.1267 1240.83 89.0463L1284.77 64.6703V104.412Z" fill="white"/>
<path d="M1245.68 61.6133C1242.08 59.6021 1236.39 59.6021 1232.71 61.6133C1230.78 62.6591 1229.7 64.1876 1229.7 65.7966V65.8771V73.4393C1229.7 75.1287 1230.87 76.6572 1232.79 77.7031C1236.81 79.7143 1241.66 79.7143 1245.77 77.7031C1248.28 76.3354 1248.78 74.646 1248.78 73.5197V65.9575C1248.78 64.2681 1247.69 62.7396 1245.68 61.6133ZM1246.1 73.6002C1246.1 74.4851 1245.18 75.1287 1244.43 75.6114C1241.66 77.1399 1236.98 77.1399 1234.13 75.6114C1233.04 74.9678 1232.37 74.2438 1232.37 73.6002V70.1409L1232.79 70.3822C1233.04 70.5431 1233.29 70.6236 1233.46 70.704C1233.63 70.7845 1233.8 70.8649 1233.96 70.8649L1234.22 70.9454C1234.3 71.0258 1234.47 71.0258 1234.63 71.1063C1234.8 71.1867 1234.88 71.1867 1235.05 71.2671L1235.3 71.3476C1235.47 71.428 1235.64 71.428 1235.81 71.5085L1236.06 71.5889C1236.22 71.6694 1236.47 71.6694 1236.64 71.6694H1236.89C1237.06 71.6694 1237.31 71.7498 1237.56 71.7498H1237.73L1238.4 71.8303H1238.57C1238.82 71.8303 1239.07 71.8303 1239.24 71.8303H1239.4C1239.66 71.8303 1239.82 71.8303 1240.07 71.8303H1240.32C1240.58 71.8303 1240.74 71.8303 1240.99 71.7498H1241.08C1241.33 71.7498 1241.58 71.6694 1241.83 71.6694L1242.17 71.5889L1242.67 71.5085L1243 71.4281L1243.51 71.2671C1243.67 71.1867 1243.84 71.1867 1244.01 71.1063L1244.26 71.0258C1244.51 70.9454 1244.68 70.8649 1244.84 70.7845L1244.93 70.704C1245.18 70.6236 1245.43 70.4627 1245.6 70.3822C1245.77 70.3018 1245.85 70.2213 1246.02 70.1409L1246.1 73.6002ZM1246.1 65.9575C1246.1 66.1184 1246.1 66.1184 1246.1 66.1989V66.2793C1245.85 66.9229 1245.43 67.4861 1244.84 67.8078L1244.76 67.8883C1244.68 67.9687 1244.51 68.0492 1244.43 68.1296C1241.83 69.5777 1237.48 69.6582 1234.72 68.371C1234.55 68.2905 1234.38 68.2101 1234.22 68.1296C1234.05 68.0492 1233.96 67.9687 1233.8 67.8883L1233.63 67.7274L1233.46 67.6469L1233.29 67.4861L1233.21 67.4056C1233.13 67.3252 1233.13 67.2447 1233.04 67.2447L1232.96 67.1643C1232.88 67.0838 1232.88 67.0034 1232.79 66.9229C1232.79 66.9229 1232.79 66.9229 1232.79 66.8425C1232.71 66.762 1232.71 66.6816 1232.62 66.6011C1232.62 66.5207 1232.54 66.4402 1232.54 66.3598C1232.54 66.2793 1232.54 66.1989 1232.54 66.1184V65.9575C1232.54 65.2335 1233.21 64.429 1234.22 63.8658C1236.98 62.3373 1241.66 62.3373 1244.51 63.8658C1245.6 64.5094 1246.18 65.2335 1246.1 65.9575Z" fill="white"/>
<path d="M1198.64 141.016C1198.47 140.292 1198.14 139.729 1197.55 139.246C1197.47 139.166 1197.47 139.166 1197.39 139.085C1197.3 139.005 1197.22 138.925 1197.13 138.925L1183.91 131.604V131.121C1183.91 129.432 1182.82 127.903 1180.81 126.777C1178.3 125.49 1175.46 125.007 1172.7 125.329L1160.06 118.33V118.249C1160.06 116.56 1158.97 115.031 1156.96 113.905C1153.36 111.894 1147.67 111.894 1143.99 113.905C1142.06 114.951 1140.97 116.479 1140.97 118.088V118.169V118.33L1128.25 125.329C1125.41 125.007 1122.31 125.49 1120.05 126.777C1118.13 127.823 1117.04 129.351 1117.04 130.96V131.041V131.523L1103.9 138.844C1103.81 138.925 1103.73 138.925 1103.65 139.005L1103.48 139.166C1102.98 139.649 1102.56 140.292 1102.39 140.936C1102.39 141.016 1102.39 141.097 1102.39 141.097C1102.39 141.177 1102.39 141.338 1102.39 141.419V182.367C1102.39 183.413 1103.06 184.459 1103.98 185.022L1149.01 209.961C1149.09 210.041 1149.18 210.041 1149.34 210.122C1150.18 210.444 1151.1 210.444 1151.94 210.122C1152.02 210.041 1152.19 210.041 1152.27 209.961L1197.3 185.022C1198.22 184.459 1198.89 183.493 1198.89 182.367V141.419C1198.89 141.338 1198.89 141.177 1198.89 141.097C1198.72 141.097 1198.72 141.097 1198.64 141.016ZM1179.56 128.949C1180.65 129.593 1181.32 130.317 1181.32 131.041V131.121C1181.32 131.202 1181.32 131.282 1181.32 131.282V131.362C1181.06 132.006 1180.65 132.569 1180.06 132.891L1179.98 132.971C1179.89 133.052 1179.73 133.132 1179.64 133.213C1176.88 134.741 1172.19 134.741 1169.35 133.213C1169.18 133.132 1169.1 133.052 1168.93 132.971L1168.76 132.891C1168.68 132.81 1168.59 132.81 1168.59 132.73L1168.43 132.569C1168.34 132.569 1168.34 132.489 1168.26 132.489C1168.18 132.408 1168.18 132.328 1168.09 132.328L1168.01 132.247C1167.92 132.167 1167.92 132.086 1167.84 132.006V131.926C1167.76 131.845 1167.76 131.765 1167.67 131.684C1167.59 131.523 1167.59 131.282 1167.59 131.121V131.041C1167.59 130.317 1168.26 129.593 1169.26 128.949C1172.11 127.42 1176.8 127.42 1179.56 128.949ZM1181.32 135.224V138.683C1181.32 139.568 1180.4 140.212 1179.64 140.694C1176.88 142.223 1172.19 142.223 1169.35 140.694C1168.26 140.051 1167.59 139.327 1167.59 138.683V135.224C1167.76 135.304 1167.84 135.385 1168.01 135.465C1168.51 135.707 1168.93 135.948 1169.43 136.109H1169.51C1169.77 136.189 1169.93 136.27 1170.18 136.35L1170.69 136.511L1171.02 136.592L1171.69 136.752H1171.86C1172.11 136.752 1172.28 136.833 1172.53 136.833H1172.7C1172.95 136.833 1173.28 136.913 1173.53 136.913C1173.78 136.913 1174.03 136.913 1174.29 136.913H1174.37C1174.62 136.913 1174.87 136.913 1175.12 136.913H1175.21C1177.13 136.833 1179.06 136.35 1180.81 135.385C1181.06 135.385 1181.23 135.304 1181.32 135.224ZM1143.65 118.169C1143.65 117.445 1144.32 116.64 1145.33 116.077C1148.09 114.549 1152.78 114.549 1155.62 116.077C1156.71 116.721 1157.38 117.445 1157.38 118.169V118.249C1157.38 118.33 1157.38 118.41 1157.38 118.41V118.491C1157.13 119.134 1156.71 119.697 1156.12 120.019C1156.12 120.019 1156.04 120.019 1156.04 120.1C1155.96 120.18 1155.79 120.26 1155.71 120.341C1153.11 121.789 1148.76 121.869 1146 120.582C1145.83 120.502 1145.66 120.421 1145.49 120.341C1145.33 120.26 1145.24 120.18 1145.08 120.1L1144.91 119.939L1144.74 119.858L1144.57 119.697L1144.49 119.617C1144.41 119.536 1144.41 119.456 1144.32 119.456L1144.24 119.376C1144.16 119.295 1144.16 119.215 1144.07 119.134L1143.99 119.054C1143.9 118.973 1143.9 118.893 1143.9 118.812V118.732C1143.9 118.651 1143.82 118.571 1143.82 118.491C1143.82 118.41 1143.82 118.33 1143.82 118.249V118.169H1143.65ZM1144.07 122.513C1145.49 123.318 1147.17 123.8 1148.84 123.961C1149.09 123.961 1149.43 124.042 1149.68 124.042C1149.93 124.042 1150.18 124.042 1150.52 124.042H1150.68H1151.35H1151.69L1152.19 123.961C1152.44 123.961 1152.61 123.881 1152.86 123.881H1153.11C1153.36 123.8 1153.61 123.8 1153.78 123.72H1153.95C1155.04 123.478 1156.04 123.076 1156.96 122.593C1157.13 122.513 1157.21 122.433 1157.38 122.352V125.811C1157.38 126.696 1156.46 127.34 1155.71 127.823C1152.94 129.351 1148.26 129.351 1145.41 127.823C1144.32 127.179 1143.65 126.455 1143.65 125.731V122.272L1144.07 122.513ZM1119.72 131.041C1119.72 130.317 1120.39 129.512 1121.47 128.949C1124.24 127.42 1128.92 127.42 1131.77 128.949C1132.86 129.593 1133.53 130.317 1133.53 131.041V131.121C1133.53 131.202 1133.53 131.282 1133.53 131.282V131.362C1133.27 132.006 1132.86 132.569 1132.27 132.891L1132.19 132.971C1132.1 133.052 1131.94 133.132 1131.85 133.213C1129.09 134.741 1124.4 134.741 1121.56 133.213C1121.39 133.132 1121.31 133.052 1121.14 132.971L1120.97 132.891C1120.89 132.81 1120.8 132.81 1120.8 132.73L1120.64 132.569L1120.47 132.489C1120.39 132.408 1120.39 132.408 1120.3 132.328L1120.22 132.247C1120.13 132.167 1120.13 132.086 1120.05 132.006C1120.05 132.006 1120.05 132.006 1119.97 131.926C1119.88 131.845 1119.88 131.765 1119.88 131.684C1119.88 131.604 1119.8 131.523 1119.8 131.443C1119.8 131.282 1119.8 131.201 1119.72 131.041C1119.8 131.121 1119.8 131.121 1119.72 131.041ZM1120.13 135.465C1120.64 135.707 1121.06 135.948 1121.56 136.109H1121.64C1121.89 136.189 1122.14 136.27 1122.31 136.35L1122.81 136.511L1123.15 136.592L1123.82 136.752H1123.98C1124.24 136.752 1124.4 136.833 1124.65 136.833H1124.82C1125.07 136.833 1125.41 136.913 1125.66 136.913C1125.91 136.913 1126.16 136.913 1126.41 136.913H1126.5C1126.75 136.913 1127 136.913 1127.25 136.913H1127.42C1129.34 136.833 1131.27 136.35 1133.02 135.385C1133.19 135.304 1133.27 135.224 1133.44 135.143V138.683C1133.44 139.568 1132.52 140.212 1131.77 140.694C1129.01 142.223 1124.32 142.223 1121.47 140.694C1120.39 140.051 1119.72 139.327 1119.72 138.683V135.224C1119.88 135.304 1120.05 135.385 1120.13 135.465ZM1149.18 207.226L1105.24 182.85C1105.07 182.769 1104.99 182.608 1104.99 182.447V142.706L1148.93 167.082C1149.09 167.162 1149.18 167.323 1149.18 167.484V207.226ZM1150.77 164.829C1150.6 164.91 1150.43 164.91 1150.26 164.829L1106.32 140.453L1117.12 134.5V138.603C1117.21 140.292 1118.29 141.821 1120.22 142.867C1124.24 144.878 1129.09 144.878 1133.19 142.867C1135.7 141.499 1136.2 139.81 1136.2 138.683V131.121C1136.2 129.432 1135.12 127.903 1133.11 126.777C1132.77 126.616 1132.44 126.455 1132.02 126.294L1141.06 121.306V125.811C1141.06 127.501 1142.23 129.029 1144.16 130.075C1146.16 131.121 1148.34 131.604 1150.6 131.604C1152.86 131.604 1155.12 131.121 1157.04 130.075C1159.56 128.708 1160.06 127.018 1160.06 125.892V121.387L1169.1 126.375C1168.76 126.535 1168.34 126.696 1168.01 126.857C1166.08 127.903 1165 129.432 1165 131.041V131.121V131.202V138.764C1165.08 140.453 1166.17 141.982 1168.09 143.027C1172.11 145.039 1176.96 145.039 1181.06 143.027C1183.58 141.66 1184.08 139.97 1184.08 138.844V134.661L1194.79 140.614L1150.77 164.829ZM1196.05 182.447C1196.05 182.608 1195.96 182.769 1195.8 182.85L1151.86 207.226V167.484C1151.86 167.323 1151.94 167.162 1152.11 167.082L1196.05 142.706V182.447Z" fill="white"/>
<path d="M1156.96 139.649C1153.36 137.637 1147.67 137.637 1143.99 139.649C1142.06 140.694 1140.97 142.223 1140.97 143.832V143.912V151.475C1140.97 153.164 1142.15 154.692 1144.07 155.738C1148.09 157.75 1152.94 157.75 1157.04 155.738C1159.56 154.371 1160.06 152.681 1160.06 151.555V143.993C1160.06 142.303 1158.97 140.775 1156.96 139.649ZM1157.38 151.635C1157.38 152.52 1156.46 153.164 1155.71 153.647C1152.94 155.175 1148.26 155.175 1145.41 153.647C1144.32 153.003 1143.65 152.279 1143.65 151.635V148.176L1144.07 148.417C1144.32 148.578 1144.57 148.659 1144.74 148.739C1144.91 148.82 1145.08 148.9 1145.24 148.9L1145.49 148.981C1145.58 149.061 1145.75 149.061 1145.91 149.142C1146.08 149.222 1146.16 149.222 1146.33 149.302L1146.58 149.383C1146.75 149.463 1146.92 149.463 1147.08 149.544L1147.34 149.624C1147.5 149.705 1147.75 149.705 1147.92 149.705H1148.17C1148.34 149.705 1148.59 149.785 1148.84 149.785H1149.01L1149.68 149.866H1149.85C1150.1 149.866 1150.35 149.866 1150.52 149.866H1150.68C1150.93 149.866 1151.1 149.866 1151.35 149.866H1151.6C1151.86 149.866 1152.02 149.866 1152.27 149.785H1152.36C1152.61 149.785 1152.86 149.705 1153.11 149.705L1153.45 149.624L1153.95 149.544L1154.28 149.463L1154.78 149.302C1154.95 149.222 1155.12 149.222 1155.29 149.142L1155.54 149.061C1155.79 148.981 1155.96 148.9 1156.12 148.82L1156.21 148.739C1156.46 148.659 1156.71 148.498 1156.88 148.417C1157.04 148.337 1157.13 148.257 1157.3 148.176L1157.38 151.635ZM1157.38 143.993C1157.38 144.154 1157.38 144.154 1157.38 144.234V144.315C1157.13 144.958 1156.71 145.521 1156.12 145.843L1156.04 145.924C1155.96 146.004 1155.79 146.084 1155.71 146.165C1153.11 147.613 1148.76 147.693 1146 146.406C1145.83 146.326 1145.66 146.245 1145.49 146.165C1145.33 146.084 1145.24 146.004 1145.08 145.924L1144.91 145.763L1144.74 145.682L1144.57 145.521L1144.49 145.441C1144.41 145.36 1144.41 145.28 1144.32 145.28L1144.24 145.2C1144.16 145.119 1144.16 145.039 1144.07 144.958C1144.07 144.958 1144.07 144.958 1144.07 144.878C1143.99 144.797 1143.99 144.717 1143.9 144.636C1143.9 144.556 1143.82 144.475 1143.82 144.395C1143.82 144.315 1143.82 144.234 1143.82 144.154V143.993C1143.82 143.269 1144.49 142.464 1145.49 141.901C1148.26 140.373 1152.94 140.373 1155.79 141.901C1156.88 142.545 1157.46 143.269 1157.38 143.993Z" fill="white"/>
<path d="M1350.97 199.744C1350.8 199.02 1350.47 198.457 1349.88 197.974C1349.8 197.894 1349.8 197.894 1349.71 197.813C1349.63 197.733 1349.55 197.652 1349.46 197.652L1336.24 190.331V189.849C1336.24 188.159 1335.15 186.631 1333.14 185.504C1330.63 184.217 1327.79 183.735 1325.02 184.056L1312.39 177.057V176.977C1312.39 175.287 1311.3 173.759 1309.29 172.633C1305.69 170.621 1300 170.621 1296.32 172.633C1294.39 173.679 1293.3 175.207 1293.3 176.816V176.896V177.057L1280.58 184.056C1277.74 183.735 1274.64 184.217 1272.38 185.504C1270.45 186.55 1269.37 188.079 1269.37 189.688V189.768V190.251L1256.23 197.572C1256.14 197.652 1256.06 197.652 1255.97 197.733L1255.81 197.894C1255.3 198.376 1254.89 199.02 1254.72 199.663C1254.72 199.744 1254.72 199.824 1254.72 199.824C1254.72 199.905 1254.72 200.066 1254.72 200.146V241.095C1254.72 242.14 1255.39 243.186 1256.31 243.749L1301.34 268.689C1301.42 268.769 1301.5 268.769 1301.67 268.85C1302.51 269.171 1303.43 269.171 1304.27 268.85C1304.35 268.769 1304.52 268.769 1304.6 268.689L1349.63 243.749C1350.55 243.186 1351.22 242.221 1351.22 241.095V200.146C1351.22 200.066 1351.22 199.905 1351.22 199.824C1351.05 199.824 1351.05 199.824 1350.97 199.744ZM1331.89 187.677C1332.97 188.32 1333.64 189.044 1333.64 189.768V189.849C1333.64 189.929 1333.64 190.01 1333.64 190.01V190.09C1333.39 190.734 1332.97 191.297 1332.39 191.619L1332.31 191.699C1332.22 191.78 1332.05 191.86 1331.97 191.94C1329.21 193.469 1324.52 193.469 1321.68 191.94C1321.51 191.86 1321.42 191.78 1321.26 191.699L1321.09 191.619C1321.01 191.538 1320.92 191.538 1320.92 191.458L1320.76 191.297C1320.67 191.297 1320.67 191.216 1320.59 191.216C1320.5 191.136 1320.5 191.055 1320.42 191.055L1320.34 190.975C1320.25 190.895 1320.25 190.814 1320.17 190.734V190.653C1320.09 190.573 1320.09 190.492 1320 190.412C1319.92 190.251 1319.92 190.01 1319.92 189.849V189.768C1319.92 189.044 1320.59 188.32 1321.59 187.677C1324.44 186.148 1329.12 186.148 1331.89 187.677ZM1333.64 193.952V197.411C1333.64 198.296 1332.72 198.939 1331.97 199.422C1329.21 200.951 1324.52 200.951 1321.68 199.422C1320.59 198.779 1319.92 198.055 1319.92 197.411V193.952C1320.09 194.032 1320.17 194.113 1320.34 194.193C1320.84 194.434 1321.26 194.676 1321.76 194.837H1321.84C1322.09 194.917 1322.26 194.997 1322.51 195.078L1323.01 195.239L1323.35 195.319L1324.02 195.48H1324.19C1324.44 195.48 1324.61 195.561 1324.86 195.561H1325.02C1325.27 195.561 1325.61 195.641 1325.86 195.641C1326.11 195.641 1326.36 195.641 1326.61 195.641H1326.7C1326.95 195.641 1327.2 195.641 1327.45 195.641H1327.53C1329.46 195.561 1331.38 195.078 1333.14 194.113C1333.39 194.113 1333.56 194.032 1333.64 193.952ZM1295.98 176.896C1295.98 176.172 1296.65 175.368 1297.65 174.805C1300.42 173.276 1305.1 173.276 1307.95 174.805C1309.04 175.448 1309.71 176.172 1309.71 176.896V176.977C1309.71 177.057 1309.71 177.138 1309.71 177.138V177.218C1309.46 177.862 1309.04 178.425 1308.45 178.747C1308.45 178.747 1308.37 178.747 1308.37 178.827C1308.28 178.908 1308.12 178.988 1308.03 179.069C1305.44 180.517 1301.09 180.597 1298.32 179.31C1298.16 179.229 1297.99 179.149 1297.82 179.069C1297.65 178.988 1297.57 178.908 1297.4 178.827L1297.24 178.666L1297.07 178.586L1296.9 178.425L1296.82 178.345C1296.73 178.264 1296.73 178.184 1296.65 178.184L1296.57 178.103C1296.48 178.023 1296.48 177.942 1296.4 177.862L1296.32 177.781C1296.23 177.701 1296.23 177.621 1296.23 177.54V177.46C1296.23 177.379 1296.15 177.299 1296.15 177.218C1296.15 177.138 1296.15 177.057 1296.15 176.977V176.896H1295.98ZM1296.4 181.241C1297.82 182.045 1299.5 182.528 1301.17 182.689C1301.42 182.689 1301.76 182.769 1302.01 182.769C1302.26 182.769 1302.51 182.769 1302.84 182.769H1303.01H1303.68H1304.02L1304.52 182.689C1304.77 182.689 1304.94 182.608 1305.19 182.608H1305.44C1305.69 182.528 1305.94 182.528 1306.11 182.447H1306.28C1307.36 182.206 1308.37 181.804 1309.29 181.321C1309.46 181.241 1309.54 181.16 1309.71 181.08V184.539C1309.71 185.424 1308.79 186.068 1308.03 186.55C1305.27 188.079 1300.58 188.079 1297.74 186.55C1296.65 185.907 1295.98 185.183 1295.98 184.459V180.999L1296.4 181.241ZM1272.04 189.768C1272.04 189.044 1272.71 188.24 1273.8 187.677C1276.56 186.148 1281.25 186.148 1284.1 187.677C1285.18 188.32 1285.85 189.044 1285.85 189.768V189.849C1285.85 189.929 1285.85 190.01 1285.85 190.01V190.09C1285.6 190.734 1285.18 191.297 1284.6 191.619L1284.51 191.699C1284.43 191.78 1284.26 191.86 1284.18 191.94C1281.42 193.469 1276.73 193.469 1273.89 191.94C1273.72 191.86 1273.63 191.78 1273.47 191.699L1273.3 191.619C1273.22 191.538 1273.13 191.538 1273.13 191.458L1272.96 191.297L1272.8 191.216C1272.71 191.136 1272.71 191.136 1272.63 191.055L1272.55 190.975C1272.46 190.895 1272.46 190.814 1272.38 190.734C1272.38 190.734 1272.38 190.734 1272.3 190.653C1272.21 190.573 1272.21 190.492 1272.21 190.412C1272.21 190.331 1272.13 190.251 1272.13 190.171C1272.13 190.01 1272.13 189.929 1272.04 189.768C1272.13 189.849 1272.13 189.849 1272.04 189.768ZM1272.46 194.193C1272.96 194.434 1273.38 194.676 1273.89 194.837H1273.97C1274.22 194.917 1274.47 194.997 1274.64 195.078L1275.14 195.239L1275.48 195.319L1276.15 195.48H1276.31C1276.56 195.48 1276.73 195.561 1276.98 195.561H1277.15C1277.4 195.561 1277.74 195.641 1277.99 195.641C1278.24 195.641 1278.49 195.641 1278.74 195.641H1278.82C1279.07 195.641 1279.33 195.641 1279.58 195.641H1279.74C1281.67 195.561 1283.59 195.078 1285.35 194.113C1285.52 194.032 1285.6 193.952 1285.77 193.871V197.411C1285.77 198.296 1284.85 198.939 1284.1 199.422C1281.33 200.951 1276.65 200.951 1273.8 199.422C1272.71 198.779 1272.04 198.055 1272.04 197.411V193.952C1272.21 194.032 1272.38 194.113 1272.46 194.193ZM1301.5 265.953L1257.56 241.577C1257.4 241.497 1257.31 241.336 1257.31 241.175V201.433L1301.25 225.809C1301.42 225.89 1301.5 226.051 1301.5 226.212V265.953ZM1303.1 223.557C1302.93 223.637 1302.76 223.637 1302.59 223.557L1258.65 199.181L1269.45 193.228V197.33C1269.53 199.02 1270.62 200.548 1272.55 201.594C1276.56 203.605 1281.42 203.605 1285.52 201.594C1288.03 200.227 1288.53 198.537 1288.53 197.411V189.849C1288.53 188.159 1287.44 186.631 1285.44 185.504C1285.1 185.344 1284.77 185.183 1284.35 185.022L1293.39 180.034V184.539C1293.39 186.229 1294.56 187.757 1296.48 188.803C1298.49 189.849 1300.67 190.331 1302.93 190.331C1305.19 190.331 1307.45 189.849 1309.37 188.803C1311.88 187.435 1312.39 185.746 1312.39 184.62V180.114L1321.42 185.102C1321.09 185.263 1320.67 185.424 1320.34 185.585C1318.41 186.631 1317.32 188.159 1317.32 189.768V189.849V189.929V197.491C1317.41 199.181 1318.5 200.709 1320.42 201.755C1324.44 203.766 1329.29 203.766 1333.39 201.755C1335.9 200.388 1336.41 198.698 1336.41 197.572V193.388L1347.12 199.342L1303.1 223.557ZM1348.37 241.175C1348.37 241.336 1348.29 241.497 1348.12 241.577L1304.18 265.953V226.212C1304.18 226.051 1304.27 225.89 1304.43 225.809L1348.37 201.433V241.175Z" fill="white"/>
<path d="M1309.29 198.376C1305.69 196.365 1300 196.365 1296.32 198.376C1294.39 199.422 1293.3 200.951 1293.3 202.559V202.64V210.202C1293.3 211.892 1294.47 213.42 1296.4 214.466C1300.42 216.477 1305.27 216.477 1309.37 214.466C1311.88 213.098 1312.39 211.409 1312.39 210.283V202.72C1312.39 201.031 1311.3 199.502 1309.29 198.376ZM1309.71 210.363C1309.71 211.248 1308.79 211.892 1308.03 212.374C1305.27 213.903 1300.58 213.903 1297.74 212.374C1296.65 211.731 1295.98 211.007 1295.98 210.363V206.904L1296.4 207.145C1296.65 207.306 1296.9 207.386 1297.07 207.467C1297.24 207.547 1297.4 207.628 1297.57 207.628L1297.82 207.708C1297.91 207.789 1298.07 207.789 1298.24 207.869C1298.41 207.95 1298.49 207.95 1298.66 208.03L1298.91 208.11C1299.08 208.191 1299.25 208.191 1299.41 208.271L1299.66 208.352C1299.83 208.432 1300.08 208.432 1300.25 208.432H1300.5C1300.67 208.432 1300.92 208.513 1301.17 208.513H1301.34L1302.01 208.593H1302.17C1302.43 208.593 1302.68 208.593 1302.84 208.593H1303.01C1303.26 208.593 1303.43 208.593 1303.68 208.593H1303.93C1304.18 208.593 1304.35 208.593 1304.6 208.513H1304.69C1304.94 208.513 1305.19 208.432 1305.44 208.432L1305.77 208.352L1306.28 208.271L1306.61 208.191L1307.11 208.03C1307.28 207.95 1307.45 207.95 1307.61 207.869L1307.87 207.789C1308.12 207.708 1308.28 207.628 1308.45 207.547L1308.54 207.467C1308.79 207.386 1309.04 207.226 1309.21 207.145C1309.37 207.065 1309.46 206.984 1309.62 206.904L1309.71 210.363ZM1309.71 202.72C1309.71 202.881 1309.71 202.881 1309.71 202.962V203.042C1309.46 203.686 1309.04 204.249 1308.45 204.571L1308.37 204.651C1308.28 204.732 1308.12 204.812 1308.03 204.892C1305.44 206.341 1301.09 206.421 1298.32 205.134C1298.16 205.053 1297.99 204.973 1297.82 204.892C1297.66 204.812 1297.57 204.732 1297.4 204.651L1297.24 204.49L1297.07 204.41L1296.9 204.249L1296.82 204.168C1296.73 204.088 1296.73 204.008 1296.65 204.008L1296.57 203.927C1296.48 203.847 1296.48 203.766 1296.4 203.686C1296.4 203.686 1296.4 203.686 1296.4 203.605C1296.32 203.525 1296.32 203.444 1296.23 203.364C1296.23 203.284 1296.15 203.203 1296.15 203.123C1296.15 203.042 1296.15 202.962 1296.15 202.881V202.72C1296.15 201.996 1296.82 201.192 1297.82 200.629C1300.58 199.1 1305.27 199.1 1308.12 200.629C1309.21 201.272 1309.79 201.996 1309.71 202.72Z" fill="white"/>
<path d="M1171.86 263.298C1171.69 262.574 1171.36 262.011 1170.77 261.529C1170.69 261.448 1170.69 261.448 1170.6 261.368C1170.52 261.287 1170.44 261.207 1170.35 261.207L1157.13 253.886V253.403C1157.13 251.714 1156.04 250.185 1154.03 249.059C1151.52 247.772 1148.68 247.289 1145.91 247.611L1133.28 240.612V240.531C1133.28 238.842 1132.19 237.313 1130.18 236.187C1126.58 234.176 1120.89 234.176 1117.21 236.187C1115.28 237.233 1114.19 238.761 1114.19 240.37V240.451V240.612L1101.47 247.611C1098.63 247.289 1095.53 247.772 1093.27 249.059C1091.34 250.105 1090.26 251.633 1090.26 253.242V253.323V253.805L1077.12 261.126C1077.03 261.207 1076.95 261.207 1076.87 261.287L1076.7 261.448C1076.2 261.931 1075.78 262.574 1075.61 263.218C1075.61 263.298 1075.61 263.379 1075.61 263.379C1075.61 263.459 1075.61 263.62 1075.61 263.701V304.649C1075.61 305.695 1076.28 306.741 1077.2 307.304L1122.23 332.243C1122.31 332.323 1122.4 332.323 1122.56 332.404C1123.4 332.726 1124.32 332.726 1125.16 332.404C1125.24 332.323 1125.41 332.323 1125.49 332.243L1170.52 307.304C1171.44 306.741 1172.11 305.775 1172.11 304.649V263.701C1172.11 263.62 1172.11 263.459 1172.11 263.379C1171.94 263.379 1171.94 263.379 1171.86 263.298ZM1152.78 251.231C1153.87 251.875 1154.53 252.599 1154.53 253.323V253.403C1154.53 253.484 1154.53 253.564 1154.53 253.564V253.645C1154.28 254.288 1153.87 254.851 1153.28 255.173L1153.2 255.253C1153.11 255.334 1152.94 255.414 1152.86 255.495C1150.1 257.023 1145.41 257.023 1142.57 255.495C1142.4 255.414 1142.32 255.334 1142.15 255.253L1141.98 255.173C1141.9 255.093 1141.81 255.093 1141.81 255.012L1141.65 254.851C1141.56 254.851 1141.56 254.771 1141.48 254.771C1141.39 254.69 1141.39 254.61 1141.31 254.61L1141.23 254.529C1141.14 254.449 1141.14 254.369 1141.06 254.288V254.208C1140.98 254.127 1140.98 254.047 1140.89 253.966C1140.81 253.805 1140.81 253.564 1140.81 253.403V253.323C1140.81 252.599 1141.48 251.875 1142.48 251.231C1145.33 249.703 1150.02 249.703 1152.78 251.231ZM1154.53 257.506V260.965C1154.53 261.85 1153.61 262.494 1152.86 262.977C1150.1 264.505 1145.41 264.505 1142.57 262.977C1141.48 262.333 1140.81 261.609 1140.81 260.965V257.506C1140.98 257.587 1141.06 257.667 1141.23 257.747C1141.73 257.989 1142.15 258.23 1142.65 258.391H1142.73C1142.98 258.471 1143.15 258.552 1143.4 258.632L1143.91 258.793L1144.24 258.874L1144.91 259.035H1145.08C1145.33 259.035 1145.5 259.115 1145.75 259.115H1145.91C1146.17 259.115 1146.5 259.195 1146.75 259.195C1147 259.195 1147.25 259.195 1147.5 259.195H1147.59C1147.84 259.195 1148.09 259.195 1148.34 259.195H1148.43C1150.35 259.115 1152.28 258.632 1154.03 257.667C1154.28 257.667 1154.45 257.587 1154.53 257.506ZM1116.87 240.451C1116.87 239.727 1117.54 238.922 1118.55 238.359C1121.31 236.831 1125.99 236.831 1128.84 238.359C1129.93 239.003 1130.6 239.727 1130.6 240.451V240.531C1130.6 240.612 1130.6 240.692 1130.6 240.692V240.773C1130.35 241.416 1129.93 241.979 1129.34 242.301C1129.34 242.301 1129.26 242.301 1129.26 242.382C1129.18 242.462 1129.01 242.543 1128.92 242.623C1126.33 244.071 1121.98 244.152 1119.22 242.864C1119.05 242.784 1118.88 242.703 1118.71 242.623C1118.55 242.543 1118.46 242.462 1118.29 242.382L1118.13 242.221L1117.96 242.14L1117.79 241.979L1117.71 241.899C1117.63 241.819 1117.62 241.738 1117.54 241.738L1117.46 241.658C1117.37 241.577 1117.37 241.497 1117.29 241.416L1117.21 241.336C1117.12 241.255 1117.12 241.175 1117.12 241.095V241.014C1117.12 240.934 1117.04 240.853 1117.04 240.773C1117.04 240.692 1117.04 240.612 1117.04 240.531V240.451H1116.87ZM1117.29 244.795C1118.71 245.6 1120.39 246.082 1122.06 246.243C1122.31 246.243 1122.65 246.324 1122.9 246.324C1123.15 246.324 1123.4 246.324 1123.73 246.324H1123.9H1124.57H1124.91L1125.41 246.243C1125.66 246.243 1125.83 246.163 1126.08 246.163H1126.33C1126.58 246.082 1126.83 246.082 1127 246.002H1127.17C1128.25 245.761 1129.26 245.358 1130.18 244.876C1130.35 244.795 1130.43 244.715 1130.6 244.634V248.094C1130.6 248.978 1129.68 249.622 1128.92 250.105C1126.16 251.633 1121.48 251.633 1118.63 250.105C1117.54 249.461 1116.87 248.737 1116.87 248.013V244.554L1117.29 244.795ZM1092.93 253.323C1092.93 252.599 1093.6 251.794 1094.69 251.231C1097.45 249.703 1102.14 249.703 1104.99 251.231C1106.07 251.875 1106.74 252.599 1106.74 253.323V253.403C1106.74 253.484 1106.74 253.564 1106.74 253.564V253.645C1106.49 254.288 1106.07 254.851 1105.49 255.173L1105.41 255.253C1105.32 255.334 1105.15 255.414 1105.07 255.495C1102.31 257.023 1097.62 257.023 1094.78 255.495C1094.61 255.414 1094.52 255.334 1094.36 255.253L1094.19 255.173C1094.11 255.093 1094.02 255.093 1094.02 255.012L1093.86 254.851L1093.69 254.771C1093.6 254.69 1093.6 254.69 1093.52 254.61L1093.44 254.529C1093.35 254.449 1093.35 254.369 1093.27 254.288C1093.27 254.288 1093.27 254.288 1093.19 254.208C1093.1 254.127 1093.1 254.047 1093.1 253.966C1093.1 253.886 1093.02 253.805 1093.02 253.725C1093.02 253.564 1093.02 253.484 1092.93 253.323C1093.02 253.403 1093.02 253.403 1092.93 253.323ZM1093.35 257.747C1093.86 257.989 1094.27 258.23 1094.78 258.391H1094.86C1095.11 258.471 1095.36 258.552 1095.53 258.632L1096.03 258.793L1096.37 258.874L1097.04 259.035H1097.2C1097.45 259.035 1097.62 259.115 1097.87 259.115H1098.04C1098.29 259.115 1098.63 259.195 1098.88 259.195C1099.13 259.195 1099.38 259.195 1099.63 259.195H1099.71C1099.97 259.195 1100.22 259.195 1100.47 259.195H1100.63C1102.56 259.115 1104.48 258.632 1106.24 257.667C1106.41 257.586 1106.49 257.506 1106.66 257.426V260.965C1106.66 261.85 1105.74 262.494 1104.99 262.977C1102.22 264.505 1097.54 264.505 1094.69 262.977C1093.6 262.333 1092.93 261.609 1092.93 260.965V257.506C1093.1 257.587 1093.27 257.667 1093.35 257.747ZM1122.4 329.508L1078.46 305.132C1078.29 305.051 1078.2 304.89 1078.2 304.73V264.988L1122.14 289.364C1122.31 289.444 1122.4 289.605 1122.4 289.766V329.508ZM1123.99 287.111C1123.82 287.192 1123.65 287.192 1123.48 287.111L1079.54 262.735L1090.34 256.782V260.885C1090.42 262.574 1091.51 264.103 1093.44 265.149C1097.45 267.16 1102.31 267.16 1106.41 265.149C1108.92 263.781 1109.42 262.092 1109.42 260.965V253.403C1109.42 251.714 1108.33 250.185 1106.33 249.059C1105.99 248.898 1105.66 248.737 1105.24 248.576L1114.28 243.588V248.094C1114.28 249.783 1115.45 251.312 1117.37 252.357C1119.38 253.403 1121.56 253.886 1123.82 253.886C1126.08 253.886 1128.34 253.403 1130.26 252.357C1132.77 250.99 1133.28 249.3 1133.28 248.174V243.669L1142.32 248.657C1141.98 248.818 1141.56 248.978 1141.23 249.139C1139.3 250.185 1138.21 251.714 1138.21 253.323V253.403V253.484V261.046C1138.3 262.735 1139.39 264.264 1141.31 265.31C1145.33 267.321 1150.18 267.321 1154.28 265.31C1156.79 263.942 1157.3 262.253 1157.3 261.126V256.943L1168.01 262.896L1123.99 287.111ZM1169.27 304.73C1169.27 304.89 1169.18 305.051 1169.01 305.132L1125.07 329.508V289.766C1125.07 289.605 1125.16 289.444 1125.33 289.364L1169.27 264.988V304.73Z" fill="white"/>
<path d="M1130.18 261.931C1126.58 259.919 1120.89 259.919 1117.21 261.931C1115.28 262.977 1114.19 264.505 1114.19 266.114V266.194V273.757C1114.19 275.446 1115.37 276.975 1117.29 278.02C1121.31 280.032 1126.16 280.032 1130.26 278.02C1132.77 276.653 1133.28 274.963 1133.28 273.837V266.275C1133.28 264.586 1132.19 263.057 1130.18 261.931ZM1130.6 273.918C1130.6 274.803 1129.68 275.446 1128.92 275.929C1126.16 277.457 1121.48 277.457 1118.63 275.929C1117.54 275.285 1116.87 274.561 1116.87 273.918V270.458L1117.29 270.7C1117.54 270.861 1117.79 270.941 1117.96 271.021C1118.13 271.102 1118.29 271.182 1118.46 271.182L1118.71 271.263C1118.8 271.343 1118.96 271.343 1119.13 271.424C1119.3 271.504 1119.38 271.504 1119.55 271.585L1119.8 271.665C1119.97 271.745 1120.14 271.745 1120.3 271.826L1120.55 271.906C1120.72 271.987 1120.97 271.987 1121.14 271.987H1121.39C1121.56 271.987 1121.81 272.067 1122.06 272.067H1122.23L1122.9 272.148H1123.07C1123.32 272.148 1123.57 272.148 1123.73 272.148H1123.9C1124.15 272.148 1124.32 272.148 1124.57 272.148H1124.82C1125.07 272.148 1125.24 272.148 1125.49 272.067H1125.58C1125.83 272.067 1126.08 271.987 1126.33 271.987L1126.66 271.906L1127.17 271.826L1127.5 271.745L1128 271.585C1128.17 271.504 1128.34 271.504 1128.51 271.424L1128.76 271.343C1129.01 271.263 1129.18 271.182 1129.34 271.102L1129.43 271.021C1129.68 270.941 1129.93 270.78 1130.1 270.7C1130.26 270.619 1130.35 270.539 1130.51 270.458L1130.6 273.918ZM1130.6 266.275C1130.6 266.436 1130.6 266.436 1130.6 266.516V266.597C1130.35 267.24 1129.93 267.803 1129.34 268.125L1129.26 268.206C1129.18 268.286 1129.01 268.367 1128.92 268.447C1126.33 269.895 1121.98 269.976 1119.22 268.688C1119.05 268.608 1118.88 268.528 1118.71 268.447C1118.55 268.367 1118.46 268.286 1118.29 268.206L1118.13 268.045L1117.96 267.964L1117.79 267.803L1117.71 267.723C1117.63 267.643 1117.63 267.562 1117.54 267.562L1117.46 267.482C1117.37 267.401 1117.37 267.321 1117.29 267.24C1117.29 267.24 1117.29 267.24 1117.29 267.16C1117.21 267.079 1117.21 266.999 1117.12 266.919C1117.12 266.838 1117.04 266.758 1117.04 266.677C1117.04 266.597 1117.04 266.516 1117.04 266.436V266.275C1117.04 265.551 1117.71 264.746 1118.71 264.183C1121.48 262.655 1126.16 262.655 1129.01 264.183C1130.1 264.827 1130.68 265.551 1130.6 266.275Z" fill="white"/>
<path d="M1120.47 28.6292C1120.3 27.9051 1119.97 27.342 1119.38 26.8593C1119.3 26.7789 1119.3 26.7789 1119.21 26.6984C1119.13 26.618 1119.05 26.5375 1118.96 26.5375L1105.74 19.2167V18.8144C1105.74 17.125 1104.65 15.5965 1102.64 14.4702C1100.13 13.183 1097.29 12.7003 1094.52 13.0221L1081.89 5.94262V5.86217C1081.89 4.17275 1080.8 2.64422 1078.79 1.51794C1075.19 -0.493284 1069.5 -0.493284 1065.82 1.51794C1063.89 2.56377 1062.8 4.0923 1062.8 5.70127V5.78172V5.94262L1050.08 13.0221C1047.24 12.7003 1044.14 13.183 1041.88 14.4702C1039.95 15.516 1038.87 17.0446 1038.87 18.6535V18.734V19.2167L1025.73 26.5375C1025.64 26.618 1025.56 26.618 1025.47 26.6984L1025.31 26.8593C1024.8 27.342 1024.39 27.9856 1024.22 28.6292C1024.22 28.7096 1024.22 28.7901 1024.22 28.7901C1024.22 28.8705 1024.22 29.0314 1024.22 29.1119V70.0603C1024.22 71.1062 1024.89 72.152 1025.81 72.7151L1070.84 97.6543C1070.92 97.7347 1071 97.7347 1071.17 97.8152C1072.01 98.137 1072.93 98.137 1073.77 97.8152C1073.85 97.7347 1074.02 97.7347 1074.1 97.6543L1119.13 72.7151C1120.05 72.152 1120.72 71.1866 1120.72 70.0603V29.1923C1120.72 29.1119 1120.72 28.951 1120.72 28.8705C1120.47 28.7901 1120.47 28.7096 1120.47 28.6292ZM1101.39 16.6423C1102.47 17.2859 1103.14 18.0099 1103.14 18.734V18.8144C1103.14 18.8949 1103.14 18.9753 1103.14 18.9753V19.0558C1102.89 19.6994 1102.47 20.2625 1101.89 20.5843L1101.81 20.6648C1101.72 20.7452 1101.55 20.8257 1101.47 20.9061C1098.71 22.4346 1094.02 22.4346 1091.18 20.9061C1091.01 20.8257 1090.92 20.7452 1090.76 20.6648L1090.59 20.5843C1090.51 20.5039 1090.42 20.5039 1090.42 20.4234L1090.26 20.2625C1090.17 20.2625 1090.17 20.1821 1090.09 20.1821C1090 20.1016 1090 20.0212 1089.92 20.0212L1089.84 19.9407C1089.75 19.8603 1089.75 19.7798 1089.67 19.6994V19.6189C1089.59 19.5385 1089.59 19.458 1089.5 19.3776C1089.42 19.1362 1089.42 18.9753 1089.42 18.734V18.6535C1089.42 17.9295 1090.09 17.2055 1091.09 16.5619C1093.85 15.1138 1098.54 15.1138 1101.39 16.6423ZM1103.14 22.8369V26.2962C1103.14 27.1811 1102.22 27.8247 1101.47 28.3074C1098.71 29.8359 1094.02 29.8359 1091.18 28.3074C1090.09 27.6638 1089.42 26.9398 1089.42 26.2962V22.8369C1089.59 22.9173 1089.67 22.9978 1089.84 23.0782C1090.34 23.3196 1090.76 23.5609 1091.26 23.7218H1091.34C1091.59 23.8023 1091.76 23.8827 1092.01 23.9632L1092.51 24.1241L1092.85 24.2045L1093.52 24.3654H1093.69C1093.94 24.3654 1094.11 24.4458 1094.36 24.4458H1094.52C1094.77 24.4458 1095.11 24.5263 1095.36 24.5263C1095.61 24.5263 1095.86 24.5263 1096.11 24.5263H1096.2C1096.45 24.5263 1096.7 24.5263 1096.95 24.5263H1097.03C1098.96 24.4458 1100.88 23.9632 1102.64 22.9978C1102.89 22.9978 1102.98 22.9173 1103.14 22.8369ZM1065.48 5.78172C1065.48 5.05768 1066.15 4.2532 1067.15 3.69005C1069.92 2.16153 1074.6 2.16153 1077.45 3.69005C1078.54 4.33364 1079.21 5.05768 1079.21 5.78172V5.86217C1079.21 5.94262 1079.21 6.02307 1079.21 6.02307V6.10352C1078.96 6.74711 1078.54 7.31025 1077.95 7.63205C1077.95 7.63205 1077.87 7.63205 1077.87 7.7125C1077.78 7.79294 1077.62 7.87339 1077.53 7.95384C1074.94 9.40192 1070.59 9.48237 1067.82 8.19519C1067.66 8.11474 1067.49 8.03429 1067.32 7.95384C1067.15 7.87339 1067.07 7.79294 1066.9 7.7125L1066.74 7.5516L1066.57 7.47115L1066.4 7.31025L1066.23 7.2298C1066.15 7.14935 1066.15 7.06891 1066.07 7.06891L1065.98 6.90801C1065.9 6.82756 1065.9 6.74711 1065.82 6.66666L1065.73 6.58621C1065.65 6.50576 1065.65 6.42531 1065.65 6.34487V6.42531C1065.65 6.34487 1065.56 6.26442 1065.56 6.18397C1065.56 6.10352 1065.56 6.02307 1065.56 5.94262V5.78172H1065.48ZM1065.9 10.2064C1067.32 11.0109 1069 11.4936 1070.67 11.6545C1070.92 11.6545 1071.26 11.7349 1071.51 11.7349C1071.76 11.7349 1072.01 11.7349 1072.34 11.7349H1072.51H1073.18H1073.52L1074.02 11.6545C1074.27 11.6545 1074.44 11.574 1074.69 11.574H1074.94C1075.19 11.4936 1075.44 11.4936 1075.61 11.4131H1075.78C1076.86 11.1718 1077.87 10.7696 1078.79 10.2869C1078.96 10.2064 1079.04 10.126 1079.21 10.0455V13.5048C1079.21 14.3897 1078.29 15.0333 1077.53 15.516C1074.77 17.0446 1070.08 17.0446 1067.24 15.516C1066.15 14.8724 1065.48 14.1484 1065.48 13.4244V9.96506L1065.9 10.2064ZM1041.54 18.734C1041.54 18.0099 1042.21 17.2055 1043.3 16.6423C1046.06 15.1138 1050.75 15.1138 1053.6 16.6423C1054.68 17.2859 1055.35 18.0099 1055.35 18.734V18.8144C1055.35 18.8949 1055.35 18.9753 1055.35 18.9753V19.0558C1055.1 19.6994 1054.68 20.2625 1054.1 20.5843L1054.01 20.6648C1053.93 20.7452 1053.76 20.8257 1053.68 20.9061C1050.92 22.4346 1046.23 22.4346 1043.39 20.9061C1043.22 20.8257 1043.13 20.7452 1042.97 20.6648L1042.8 20.5843C1042.72 20.5039 1042.63 20.5039 1042.63 20.4234L1042.46 20.2625L1042.21 20.1016C1042.13 20.0212 1042.13 20.0212 1042.05 19.9407L1041.96 19.8603C1041.88 19.7798 1041.88 19.6994 1041.8 19.6189C1041.8 19.6189 1041.8 19.6189 1041.71 19.5385C1041.63 19.458 1041.63 19.3776 1041.63 19.2971C1041.63 19.2167 1041.54 19.1362 1041.54 19.0558C1041.63 18.9753 1041.63 18.8949 1041.54 18.734C1041.63 18.8144 1041.63 18.8144 1041.54 18.734ZM1041.96 23.0782C1042.46 23.3196 1042.88 23.5609 1043.39 23.7218H1043.47C1043.72 23.8023 1043.97 23.8827 1044.14 23.9632L1044.64 24.1241L1044.98 24.2045L1045.65 24.3654H1045.81C1046.06 24.3654 1046.23 24.4458 1046.48 24.4458H1046.65C1046.9 24.4458 1047.24 24.5263 1047.49 24.5263C1047.74 24.5263 1047.99 24.5263 1048.24 24.5263H1048.41C1048.66 24.5263 1048.91 24.5263 1049.16 24.5263H1049.33C1051.25 24.4458 1053.18 23.9632 1054.94 22.9978C1055.1 22.9173 1055.19 22.8369 1055.35 22.7564V26.2962C1055.35 27.1811 1054.43 27.8247 1053.68 28.3074C1050.92 29.8359 1046.23 29.8359 1043.39 28.3074C1042.3 27.6638 1041.63 26.9398 1041.63 26.2962V22.8369C1041.63 22.9173 1041.8 22.9978 1041.96 23.0782ZM1071 94.919L1027.06 70.543C1026.9 70.4626 1026.81 70.3017 1026.81 70.1408V30.3991L1070.75 54.6946C1070.92 54.775 1071 54.9359 1071 55.0968V94.919ZM1072.6 52.5225C1072.43 52.6029 1072.26 52.6029 1072.09 52.5225L1028.07 28.1465L1038.87 22.1933V26.2962C1038.95 27.9856 1040.04 29.5141 1041.96 30.56C1045.98 32.5712 1050.83 32.5712 1054.94 30.56C1057.45 29.1923 1057.95 27.5029 1057.95 26.3766V18.8144C1057.95 17.125 1056.86 15.5965 1054.85 14.4702C1054.52 14.3093 1054.18 14.1484 1053.76 13.9875L1062.8 8.99968V13.5048C1062.8 15.1942 1063.97 16.7228 1065.9 17.7686C1067.91 18.8144 1070.08 19.2971 1072.34 19.2971C1074.6 19.2971 1076.86 18.8144 1078.79 17.7686C1081.3 16.401 1081.8 14.7115 1081.8 13.5853V9.08013L1090.84 14.068C1090.51 14.2288 1090.09 14.3897 1089.75 14.5506C1087.83 15.5965 1086.74 17.125 1086.74 18.734V18.8144V18.8949V26.4571C1086.82 28.1465 1087.91 29.675 1089.84 30.7209C1093.85 32.7321 1098.71 32.7321 1102.81 30.7209C1105.32 29.3532 1105.82 27.6638 1105.82 26.5375V22.3542L1116.54 28.3074L1072.6 52.5225ZM1117.87 70.0603C1117.87 70.2212 1117.79 70.3821 1117.62 70.4626L1073.68 94.919V55.1773C1073.68 55.0164 1073.77 54.8555 1073.93 54.775L1117.87 30.3991V70.0603Z" fill="white"/>
<path d="M1078.79 27.342C1075.19 25.3308 1069.5 25.3308 1065.82 27.342C1063.89 28.3879 1062.8 29.9164 1062.8 31.5254V31.6058V39.168C1062.8 40.8575 1063.97 42.386 1065.9 43.4318C1069.92 45.443 1074.77 45.443 1078.87 43.4318C1081.38 42.0642 1081.89 40.3748 1081.89 39.2485V31.6058C1081.89 29.9968 1080.71 28.4683 1078.79 27.342ZM1079.21 39.2485C1079.21 40.1334 1078.29 40.777 1077.53 41.2597C1074.77 42.7882 1070.08 42.7882 1067.24 41.2597C1066.15 40.6161 1065.48 39.8921 1065.48 39.2485V35.7892L1065.9 36.0305C1066.15 36.1914 1066.4 36.2719 1066.57 36.3523C1066.74 36.4328 1066.9 36.5132 1067.07 36.5132L1067.32 36.5937C1067.41 36.6741 1067.57 36.6741 1067.74 36.7546C1067.91 36.835 1067.99 36.835 1068.16 36.9155L1068.41 36.9959C1068.58 37.0764 1068.75 37.0764 1068.91 37.1568L1069.16 37.2373C1069.33 37.3177 1069.58 37.3177 1069.75 37.3177H1070C1070.17 37.3177 1070.42 37.3981 1070.67 37.3981H1070.84L1071.51 37.4786H1071.67C1071.93 37.4786 1072.18 37.4786 1072.34 37.4786H1072.51C1072.76 37.4786 1072.93 37.4786 1073.18 37.4786H1073.43C1073.68 37.4786 1073.85 37.4786 1074.1 37.3981H1074.19C1074.44 37.3981 1074.69 37.3177 1074.94 37.3177L1075.27 37.2373L1075.78 37.1568L1076.11 37.0764L1076.61 36.9155C1076.78 36.835 1076.95 36.835 1077.11 36.7546L1077.37 36.6741C1077.62 36.5937 1077.78 36.5132 1077.95 36.4328L1078.04 36.3523C1078.29 36.2719 1078.54 36.111 1078.71 36.0305C1078.87 35.9501 1078.96 35.8696 1079.12 35.7892L1079.21 39.2485ZM1079.21 31.6863C1079.21 31.8472 1079.21 31.8472 1079.21 31.9276V32.0081C1078.96 32.6517 1078.54 33.2148 1077.95 33.5366L1077.87 33.617C1077.78 33.6975 1077.62 33.7779 1077.53 33.8584C1074.94 35.3065 1070.59 35.3869 1067.82 34.0997C1067.66 34.0193 1067.49 33.9388 1067.32 33.8584C1067.16 33.7779 1067.07 33.6975 1066.9 33.617L1066.74 33.4562L1066.57 33.3757L1066.4 33.2148L1066.32 33.1344C1066.23 33.0539 1066.23 32.9735 1066.15 32.9735L1065.98 32.8126C1065.9 32.7321 1065.9 32.6517 1065.82 32.5712C1065.82 32.5712 1065.82 32.5712 1065.82 32.4908C1065.73 32.4103 1065.73 32.3299 1065.65 32.2494C1065.65 32.169 1065.56 32.0885 1065.56 32.0081C1065.56 31.9276 1065.56 31.8472 1065.56 31.7667V31.6863C1065.56 30.9622 1066.23 30.1577 1067.24 29.5946C1070 28.0661 1074.69 28.0661 1077.53 29.5946C1078.62 30.1577 1079.29 30.9622 1079.21 31.6863Z" fill="white"/>
</g>
<g opacity="0.15">
<path d="M64.6381 62.9809C64.8055 62.2568 65.1402 61.6937 65.7261 61.211C65.8098 61.1306 65.8098 61.1306 65.8935 61.0501C65.9772 60.9697 66.0609 60.8892 66.1446 60.8892L79.2849 53.5684V53.0857C79.2849 51.3962 80.3729 49.8677 82.3816 48.7414C84.8925 47.4543 87.7381 46.9716 90.5001 47.2934L103.138 40.2943V40.2139C103.138 38.5244 104.226 36.9959 106.235 35.8696C109.834 33.8584 115.525 33.8584 119.208 35.8696C121.133 36.9155 122.221 38.444 122.221 40.053V40.1334V40.2943L134.943 47.2934C137.788 46.9716 140.885 47.4543 143.145 48.7414C145.07 49.7873 146.158 51.3158 146.158 52.9248V53.0052V53.4879L159.298 60.8088C159.382 60.8892 159.466 60.8892 159.549 60.9697L159.717 61.1306C160.219 61.6133 160.637 62.2568 160.805 62.9004C160.805 62.9809 160.805 63.0613 160.805 63.0613C160.805 63.1418 160.805 63.3027 160.805 63.3831V104.332C160.805 105.377 160.135 106.423 159.214 106.986L114.186 131.926C114.102 132.006 114.019 132.006 113.851 132.086C113.014 132.408 112.094 132.408 111.257 132.086C111.173 132.006 111.006 132.006 110.922 131.926L65.8935 106.986C64.9728 106.423 64.3033 105.458 64.3033 104.332V63.4636C64.3033 63.3831 64.3033 63.2222 64.3033 63.1418C64.5544 63.0613 64.5544 63.0613 64.6381 62.9809ZM83.7207 50.9136C82.6327 51.5571 81.9631 52.2812 81.9631 53.0052V53.0857C81.9631 53.1661 81.9631 53.2466 81.9631 53.2466V53.327C82.2142 53.9706 82.6327 54.5338 83.2186 54.8555L83.3022 54.936C83.3859 55.0164 83.5534 55.0969 83.637 55.1773C86.399 56.7059 91.086 56.7059 93.9316 55.1773C94.099 55.0969 94.1827 55.0164 94.3501 54.936L94.5175 54.8555C94.6012 54.7751 94.6849 54.7751 94.6849 54.6947L94.8523 54.5338C94.936 54.5338 94.936 54.4533 95.0197 54.4533C95.1034 54.3729 95.1034 54.2924 95.1871 54.2924L95.2708 54.212C95.3545 54.1315 95.3545 54.0511 95.4382 53.9706V53.8902C95.5219 53.8097 95.5219 53.7293 95.6056 53.6488C95.6893 53.4879 95.6893 53.2466 95.6893 53.0857V53.0052C95.6893 52.2812 95.0197 51.5571 94.0153 50.9136C91.1697 49.385 86.4827 49.385 83.7207 50.9136ZM81.9631 57.1886V60.6479C81.9631 61.5328 82.8838 62.1764 83.637 62.6591C86.399 64.1876 91.086 64.1876 93.9316 62.6591C95.0197 62.0155 95.6893 61.2915 95.6893 60.6479V57.1886C95.5219 57.269 95.4382 57.3495 95.2708 57.4299C94.7686 57.6713 94.3501 57.9126 93.8479 58.0735H93.7642C93.5132 58.1539 93.3458 58.2344 93.0947 58.3148L92.5925 58.4757L92.2577 58.5562L91.5882 58.7171H91.4208C91.1697 58.7171 91.0023 58.7975 90.7512 58.7975H90.5838C90.3327 58.7975 89.9979 58.878 89.7468 58.878C89.4958 58.878 89.2447 58.878 88.9936 58.878H88.9099C88.6588 58.878 88.4077 58.878 88.1566 58.878H88.0729C86.1479 58.7975 84.2229 58.3148 82.4653 57.3495C82.2142 57.3495 82.0468 57.269 81.9631 57.1886ZM119.626 40.1334C119.626 39.4094 118.957 38.6049 117.952 38.0417C115.19 36.5132 110.503 36.5132 107.658 38.0417C106.57 38.6853 105.9 39.4094 105.9 40.1334V40.2139C105.9 40.2943 105.9 40.3748 105.9 40.3748V40.4552C106.151 41.0988 106.57 41.6619 107.156 41.9837C107.156 41.9837 107.239 41.9837 107.239 42.0642C107.323 42.1446 107.49 42.2251 107.574 42.3055C110.169 43.7536 114.521 43.8341 117.283 42.5469C117.45 42.4664 117.618 42.386 117.785 42.3055C117.952 42.2251 118.036 42.1446 118.203 42.0642L118.371 41.9033L118.538 41.8228L118.706 41.6619L118.789 41.5815C118.873 41.501 118.873 41.4206 118.957 41.4206L119.04 41.3401C119.124 41.2597 119.124 41.1792 119.208 41.0988L119.292 41.0183C119.375 40.9379 119.375 40.8575 119.375 40.777V40.6966C119.375 40.6161 119.459 40.5357 119.459 40.4552C119.459 40.3748 119.459 40.2943 119.459 40.2139V40.1334H119.626ZM119.208 44.4776C117.785 45.2821 116.111 45.7648 114.437 45.9257C114.186 45.9257 113.851 46.0062 113.6 46.0062C113.349 46.0062 113.098 46.0062 112.763 46.0062H112.596H111.926H111.591L111.089 45.9257C110.838 45.9257 110.671 45.8453 110.42 45.8453H110.169C109.918 45.7648 109.666 45.7648 109.499 45.6844H109.332C108.244 45.443 107.239 45.0408 106.319 44.5581C106.151 44.4776 106.068 44.3972 105.9 44.3167V47.7761C105.9 48.661 106.821 49.3046 107.574 49.7873C110.336 51.3158 115.023 51.3158 117.869 49.7873C118.957 49.1437 119.626 48.4196 119.626 47.6956V44.2363L119.208 44.4776ZM143.563 53.0052C143.563 52.2812 142.894 51.4767 141.806 50.9136C139.044 49.385 134.357 49.385 131.511 50.9136C130.423 51.5571 129.754 52.2812 129.754 53.0052V53.0857C129.754 53.1661 129.754 53.2466 129.754 53.2466V53.327C130.005 53.9706 130.423 54.5338 131.009 54.8555L131.093 54.936C131.176 55.0164 131.344 55.0969 131.427 55.1773C134.189 56.7059 138.876 56.7059 141.722 55.1773C141.889 55.0969 141.973 55.0164 142.141 54.936L142.308 54.8555C142.392 54.7751 142.475 54.7751 142.475 54.6947L142.643 54.5338L142.81 54.4533C142.894 54.3729 142.894 54.3729 142.977 54.2924L143.061 54.212C143.145 54.1315 143.145 54.0511 143.229 53.9706C143.229 53.9706 143.229 53.9706 143.312 53.8902C143.396 53.8097 143.396 53.7293 143.396 53.6488C143.396 53.5684 143.48 53.4879 143.48 53.4075C143.48 53.2466 143.48 53.1661 143.563 53.0052C143.48 53.0857 143.48 53.0857 143.563 53.0052ZM143.145 57.4299C142.643 57.6713 142.224 57.9126 141.722 58.0735H141.638C141.387 58.1539 141.136 58.2344 140.969 58.3148L140.467 58.4757L140.132 58.5562L139.462 58.7171H139.295C139.044 58.7171 138.876 58.7975 138.625 58.7975H138.458C138.207 58.7975 137.872 58.878 137.621 58.878C137.37 58.878 137.119 58.878 136.868 58.878H136.784C136.533 58.878 136.282 58.878 136.031 58.878H135.863C133.938 58.7975 132.013 58.3148 130.256 57.3495C130.088 57.269 130.005 57.1886 129.837 57.1081V60.6479C129.837 61.5328 130.758 62.1764 131.511 62.6591C134.273 64.1876 138.96 64.1876 141.806 62.6591C142.894 62.0155 143.563 61.2915 143.563 60.6479V57.1886C143.396 57.269 143.229 57.3495 143.145 57.4299ZM114.102 129.19L158.043 104.814C158.21 104.734 158.294 104.573 158.294 104.412V64.6703L114.353 89.0463C114.186 89.1268 114.102 89.2876 114.102 89.4485V129.19ZM112.512 86.7937C112.68 86.8742 112.847 86.8742 113.014 86.7937L156.955 62.4177L146.158 56.4645V60.5674C146.074 62.2568 144.986 63.7854 143.061 64.8312C139.044 66.8424 134.189 66.8424 130.088 64.8312C127.577 63.4636 127.075 61.7741 127.075 60.6479V53.0857C127.075 51.3962 128.163 49.8677 130.172 48.7414C130.507 48.5805 130.842 48.4196 131.26 48.2587L122.221 43.2709V47.7761C122.221 49.4655 121.049 50.994 119.124 52.0398C117.115 53.0857 114.939 53.5684 112.68 53.5684C110.42 53.5684 108.16 53.0857 106.235 52.0398C103.724 50.6722 103.222 48.9828 103.222 47.8565V43.3514L94.1827 48.3392C94.5175 48.5001 94.936 48.661 95.2708 48.8219C97.1958 49.8677 98.2838 51.3962 98.2838 53.0052V53.0857V60.6479C98.2001 62.3373 97.1121 63.8658 95.1871 64.9116C91.1697 66.9229 86.3153 66.9229 82.2142 64.9116C79.7033 63.544 79.2011 61.8546 79.2011 60.7283V56.545L68.4881 62.4982L112.512 86.7937ZM67.2326 104.412C67.2326 104.573 67.3163 104.734 67.4837 104.814L111.424 129.19V89.4485C111.424 89.2876 111.34 89.1268 111.173 89.0463L67.2326 64.6703V104.412Z" fill="white"/>
<path d="M106.319 61.6132C109.918 59.6019 115.609 59.6019 119.292 61.6132C121.217 62.659 122.305 64.1875 122.305 65.7965V65.8769V73.4391C122.305 75.1285 121.133 76.6571 119.208 77.7029C115.191 79.7141 110.336 79.7141 106.235 77.7029C103.724 76.3353 103.222 74.6459 103.222 73.5196V65.9574C103.222 64.268 104.31 62.7394 106.319 61.6132ZM105.9 73.6C105.9 74.485 106.821 75.1285 107.574 75.6112C110.336 77.1398 115.023 77.1398 117.869 75.6112C118.957 74.9676 119.626 74.2436 119.626 73.6V70.1407L119.208 70.3821C118.957 70.543 118.706 70.6234 118.538 70.7039C118.371 70.7843 118.204 70.8648 118.036 70.8648L117.785 70.9452C117.701 71.0257 117.534 71.0257 117.367 71.1061C117.199 71.1866 117.116 71.1866 116.948 71.267L116.697 71.3474C116.53 71.4279 116.362 71.4279 116.195 71.5083L115.944 71.5888C115.776 71.6692 115.525 71.6692 115.358 71.6692H115.107C114.939 71.6692 114.688 71.7497 114.437 71.7497H114.27L113.6 71.8301H113.433C113.182 71.8301 112.931 71.8301 112.763 71.8301H112.596C112.345 71.8301 112.177 71.8301 111.926 71.8301H111.675C111.424 71.8301 111.257 71.8301 111.006 71.7497H110.922C110.671 71.7497 110.42 71.6692 110.169 71.6692L109.834 71.5888L109.332 71.5083L108.997 71.4279L108.495 71.267C108.327 71.1866 108.16 71.1866 107.993 71.1061L107.742 71.0257C107.491 70.9452 107.323 70.8648 107.156 70.7843L107.072 70.7039C106.821 70.6234 106.57 70.4625 106.402 70.3821C106.235 70.3016 106.151 70.2212 105.984 70.1407L105.9 73.6ZM105.9 65.9574C105.9 66.1183 105.9 66.1183 105.9 66.1987V66.2792C106.151 66.9228 106.57 67.4859 107.156 67.8077L107.239 67.8882C107.323 67.9686 107.49 68.049 107.574 68.1295C110.169 69.5776 114.521 69.658 117.283 68.3708C117.45 68.2904 117.618 68.2099 117.785 68.1295C117.953 68.049 118.036 67.9686 118.204 67.8882L118.371 67.7273L118.538 67.6468L118.706 67.4859L118.789 67.4055C118.873 67.325 118.873 67.2446 118.957 67.2446L119.041 67.1641C119.124 67.0837 119.124 67.0032 119.208 66.9228C119.208 66.9228 119.208 66.9228 119.208 66.8423C119.292 66.7619 119.292 66.6814 119.375 66.601C119.375 66.5205 119.459 66.4401 119.459 66.3596C119.459 66.2792 119.459 66.1987 119.459 66.1183V65.9574C119.459 65.2333 118.789 64.4289 117.785 63.8657C115.023 62.3372 110.336 62.3372 107.491 63.8657C106.402 64.5093 105.817 65.2333 105.9 65.9574Z" fill="white"/>
<path d="M153.359 141.016C153.526 140.292 153.861 139.729 154.447 139.246C154.531 139.166 154.531 139.166 154.615 139.085C154.698 139.005 154.782 138.924 154.866 138.924L168.09 131.604V131.121C168.09 129.432 169.178 127.903 171.186 126.777C173.697 125.49 176.543 125.007 179.305 125.329L191.943 118.33V118.249C191.943 116.56 193.031 115.031 195.04 113.905C198.639 111.894 204.33 111.894 208.013 113.905C209.938 114.951 211.026 116.479 211.026 118.088V118.169V118.33L223.747 125.329C226.593 125.007 229.69 125.49 231.95 126.777C233.875 127.823 234.963 129.351 234.963 130.96V131.04V131.523L248.103 138.844C248.187 138.924 248.27 138.924 248.354 139.005L248.521 139.166C249.024 139.649 249.442 140.292 249.609 140.936C249.609 141.016 249.609 141.097 249.609 141.097C249.609 141.177 249.609 141.338 249.609 141.418V182.367C249.609 183.413 248.94 184.459 248.019 185.022L202.991 209.961C202.907 210.041 202.823 210.041 202.656 210.122C201.819 210.444 200.898 210.444 200.061 210.122C199.978 210.041 199.81 210.041 199.727 209.961L154.698 185.022C153.778 184.459 153.108 183.493 153.108 182.367V141.418C153.108 141.338 153.108 141.177 153.108 141.097C153.275 141.097 153.275 141.097 153.359 141.016ZM172.442 128.949C171.354 129.592 170.684 130.316 170.684 131.04V131.121C170.684 131.201 170.684 131.282 170.684 131.282V131.362C170.935 132.006 171.354 132.569 171.94 132.891L172.023 132.971C172.107 133.052 172.274 133.132 172.358 133.213C175.12 134.741 179.807 134.741 182.653 133.213C182.82 133.132 182.904 133.052 183.071 132.971L183.239 132.891C183.322 132.81 183.406 132.81 183.406 132.73L183.573 132.569C183.657 132.569 183.657 132.489 183.741 132.489C183.824 132.408 183.824 132.328 183.908 132.328L183.992 132.247C184.075 132.167 184.075 132.086 184.159 132.006V131.925C184.243 131.845 184.243 131.765 184.327 131.684C184.41 131.523 184.41 131.282 184.41 131.121V131.04C184.41 130.316 183.741 129.592 182.736 128.949C179.891 127.42 175.204 127.42 172.442 128.949ZM170.684 135.224V138.683C170.684 139.568 171.605 140.212 172.358 140.694C175.12 142.223 179.807 142.223 182.653 140.694C183.741 140.051 184.41 139.327 184.41 138.683V135.224C184.243 135.304 184.159 135.385 183.992 135.465C183.49 135.707 183.071 135.948 182.569 136.109H182.485C182.234 136.189 182.067 136.27 181.816 136.35L181.313 136.511L180.979 136.591L180.309 136.752H180.142C179.891 136.752 179.723 136.833 179.472 136.833H179.305C179.054 136.833 178.719 136.913 178.468 136.913C178.217 136.913 177.966 136.913 177.715 136.913H177.631C177.38 136.913 177.129 136.913 176.878 136.913H176.794C174.869 136.833 172.944 136.35 171.186 135.385C170.935 135.385 170.768 135.304 170.684 135.224ZM208.347 118.169C208.347 117.445 207.678 116.64 206.673 116.077C203.911 114.548 199.224 114.548 196.379 116.077C195.291 116.721 194.621 117.445 194.621 118.169V118.249C194.621 118.33 194.621 118.41 194.621 118.41V118.49C194.872 119.134 195.291 119.697 195.877 120.019C195.877 120.019 195.96 120.019 195.96 120.099C196.044 120.18 196.211 120.26 196.295 120.341C198.89 121.789 203.242 121.869 206.004 120.582C206.171 120.502 206.339 120.421 206.506 120.341C206.673 120.26 206.757 120.18 206.924 120.099L207.092 119.939L207.259 119.858L207.427 119.697L207.51 119.617C207.594 119.536 207.594 119.456 207.678 119.456L207.761 119.375C207.845 119.295 207.845 119.215 207.929 119.134L208.013 119.054C208.096 118.973 208.096 118.893 208.096 118.812V118.732C208.096 118.651 208.18 118.571 208.18 118.49C208.18 118.41 208.18 118.33 208.18 118.249V118.169H208.347ZM207.929 122.513C206.506 123.317 204.832 123.8 203.158 123.961C202.907 123.961 202.572 124.041 202.321 124.041C202.07 124.041 201.819 124.041 201.484 124.041H201.317H200.647H200.312L199.81 123.961C199.559 123.961 199.392 123.881 199.141 123.881H198.89C198.639 123.8 198.387 123.8 198.22 123.72H198.053C196.965 123.478 195.96 123.076 195.04 122.593C194.872 122.513 194.789 122.432 194.621 122.352V125.811C194.621 126.696 195.542 127.34 196.295 127.823C199.057 129.351 203.744 129.351 206.59 127.823C207.678 127.179 208.347 126.455 208.347 125.731V122.272L207.929 122.513ZM232.284 131.04C232.284 130.316 231.615 129.512 230.527 128.949C227.765 127.42 223.078 127.42 220.232 128.949C219.144 129.592 218.474 130.316 218.474 131.04V131.121C218.474 131.201 218.474 131.282 218.474 131.282V131.362C218.726 132.006 219.144 132.569 219.73 132.891L219.814 132.971C219.897 133.052 220.065 133.132 220.148 133.213C222.91 134.741 227.597 134.741 230.443 133.213C230.61 133.132 230.694 133.052 230.861 132.971L231.029 132.891C231.113 132.81 231.196 132.81 231.196 132.73L231.364 132.569L231.531 132.489C231.615 132.408 231.615 132.408 231.698 132.328L231.782 132.247C231.866 132.167 231.866 132.086 231.95 132.006C231.95 132.006 231.95 132.006 232.033 131.925C232.117 131.845 232.117 131.765 232.117 131.684C232.117 131.604 232.201 131.523 232.201 131.443C232.201 131.282 232.201 131.201 232.284 131.04C232.201 131.121 232.201 131.121 232.284 131.04ZM231.866 135.465C231.364 135.707 230.945 135.948 230.443 136.109H230.359C230.108 136.189 229.857 136.27 229.69 136.35L229.188 136.511L228.853 136.591L228.183 136.752H228.016C227.765 136.752 227.597 136.833 227.346 136.833H227.179C226.928 136.833 226.593 136.913 226.342 136.913C226.091 136.913 225.84 136.913 225.589 136.913H225.505C225.254 136.913 225.003 136.913 224.752 136.913H224.584C222.659 136.833 220.734 136.35 218.977 135.385C218.809 135.304 218.726 135.224 218.558 135.143V138.683C218.558 139.568 219.479 140.212 220.232 140.694C222.994 142.223 227.681 142.223 230.527 140.694C231.615 140.051 232.284 139.327 232.284 138.683V135.224C232.117 135.304 231.95 135.385 231.866 135.465ZM202.823 207.226L246.764 182.85C246.931 182.769 247.015 182.608 247.015 182.447V142.706L203.074 167.082C202.907 167.162 202.823 167.323 202.823 167.484V207.226ZM201.233 164.829C201.401 164.909 201.568 164.909 201.735 164.829L245.676 140.453L234.879 134.5V138.603C234.795 140.292 233.707 141.821 231.782 142.866C227.765 144.878 222.91 144.878 218.809 142.866C216.298 141.499 215.796 139.809 215.796 138.683V131.121C215.796 129.432 216.884 127.903 218.893 126.777C219.228 126.616 219.563 126.455 219.981 126.294L210.942 121.306V125.811C210.942 127.501 209.77 129.029 207.845 130.075C205.836 131.121 203.66 131.604 201.401 131.604C199.141 131.604 196.881 131.121 194.956 130.075C192.445 128.707 191.943 127.018 191.943 125.892V121.387L182.904 126.374C183.239 126.535 183.657 126.696 183.992 126.857C185.917 127.903 187.005 129.432 187.005 131.04V131.121V131.201V138.764C186.921 140.453 185.833 141.982 183.908 143.027C179.891 145.039 175.036 145.039 170.935 143.027C168.424 141.66 167.922 139.97 167.922 138.844V134.661L157.209 140.614L201.233 164.829ZM155.954 182.447C155.954 182.608 156.037 182.769 156.205 182.85L200.145 207.226V167.484C200.145 167.323 200.061 167.162 199.894 167.082L155.954 142.706V182.447Z" fill="white"/>
<path d="M195.039 139.648C198.638 137.637 204.33 137.637 208.012 139.648C209.937 140.694 211.025 142.223 211.025 143.832V143.912V151.474C211.025 153.164 209.854 154.692 207.929 155.738C203.911 157.749 199.057 157.749 194.956 155.738C192.445 154.371 191.943 152.681 191.943 151.555V143.993C191.943 142.303 193.031 140.775 195.039 139.648ZM194.621 151.635C194.621 152.52 195.542 153.164 196.295 153.647C199.057 155.175 203.744 155.175 206.59 153.647C207.678 153.003 208.347 152.279 208.347 151.635V148.176L207.929 148.417C207.678 148.578 207.426 148.659 207.259 148.739C207.092 148.82 206.924 148.9 206.757 148.9L206.506 148.98C206.422 149.061 206.255 149.061 206.087 149.141C205.92 149.222 205.836 149.222 205.669 149.302L205.418 149.383C205.25 149.463 205.083 149.463 204.916 149.544L204.665 149.624C204.497 149.705 204.246 149.705 204.079 149.705H203.828C203.66 149.705 203.409 149.785 203.158 149.785H202.991L202.321 149.865H202.154C201.903 149.865 201.651 149.865 201.484 149.865H201.317C201.066 149.865 200.898 149.865 200.647 149.865H200.396C200.145 149.865 199.978 149.865 199.726 149.785H199.643C199.392 149.785 199.141 149.705 198.889 149.705L198.555 149.624L198.053 149.544L197.718 149.463L197.216 149.302C197.048 149.222 196.881 149.222 196.713 149.141L196.462 149.061C196.211 148.98 196.044 148.9 195.876 148.82L195.793 148.739C195.542 148.659 195.291 148.498 195.123 148.417C194.956 148.337 194.872 148.256 194.705 148.176L194.621 151.635ZM194.621 143.993C194.621 144.154 194.621 144.154 194.621 144.234V144.314C194.872 144.958 195.291 145.521 195.876 145.843L195.96 145.923C196.044 146.004 196.211 146.084 196.295 146.165C198.889 147.613 203.242 147.693 206.004 146.406C206.171 146.326 206.338 146.245 206.506 146.165C206.673 146.084 206.757 146.004 206.924 145.923L207.092 145.763L207.259 145.682L207.426 145.521L207.51 145.441C207.594 145.36 207.594 145.28 207.678 145.28L207.761 145.199C207.845 145.119 207.845 145.038 207.929 144.958C207.929 144.958 207.929 144.958 207.929 144.878C208.012 144.797 208.012 144.717 208.096 144.636C208.096 144.556 208.18 144.475 208.18 144.395C208.18 144.314 208.18 144.234 208.18 144.154V143.993C208.18 143.269 207.51 142.464 206.506 141.901C203.744 140.372 199.057 140.372 196.211 141.901C195.123 142.545 194.537 143.269 194.621 143.993Z" fill="white"/>
<path d="M1.03096 199.744C1.19835 199.02 1.53312 198.457 2.119 197.974C2.20269 197.894 2.2027 197.894 2.2864 197.813C2.37009 197.733 2.45378 197.652 2.53748 197.652L15.7614 190.331V189.849C15.7614 188.159 16.8495 186.631 18.8582 185.504C21.369 184.217 24.2147 183.735 26.9767 184.056L39.6148 177.057V176.977C39.6148 175.287 40.7028 173.759 42.7115 172.633C46.3104 170.621 52.0018 170.621 55.6844 172.633C57.6094 173.679 58.6974 175.207 58.6974 176.816V176.896V177.057L71.4192 184.056C74.2649 183.735 77.3616 184.217 79.6214 185.504C81.5464 186.55 82.6345 188.079 82.6345 189.688V189.768V190.251L95.7747 197.572C95.8584 197.652 95.9421 197.652 96.0258 197.733L96.1932 197.894C96.6954 198.376 97.1139 199.02 97.2812 199.663C97.2812 199.744 97.2812 199.824 97.2812 199.824C97.2812 199.905 97.2812 200.066 97.2812 200.146V241.095C97.2812 242.14 96.6117 243.186 95.691 243.749L50.6626 268.689C50.5789 268.769 50.4952 268.769 50.3278 268.849C49.4909 269.171 48.5702 269.171 47.7333 268.849C47.6496 268.769 47.4822 268.769 47.3985 268.689L2.37009 243.749C1.44944 243.186 0.779877 242.221 0.779877 241.095V200.146C0.779877 200.066 0.779877 199.905 0.779877 199.824C0.947273 199.824 0.947258 199.824 1.03096 199.744ZM20.1136 187.677C19.0256 188.32 18.356 189.044 18.356 189.768V189.849C18.356 189.929 18.356 190.01 18.356 190.01V190.09C18.6071 190.734 19.0256 191.297 19.6115 191.619L19.6951 191.699C19.7788 191.779 19.9462 191.86 20.0299 191.94C22.7919 193.469 27.4789 193.469 30.3245 191.94C30.4919 191.86 30.5756 191.779 30.743 191.699L30.9104 191.619C30.9941 191.538 31.0778 191.538 31.0778 191.458L31.2452 191.297C31.3289 191.297 31.3289 191.216 31.4126 191.216C31.4963 191.136 31.4963 191.055 31.58 191.055L31.6637 190.975C31.7474 190.895 31.7473 190.814 31.831 190.734V190.653C31.9147 190.573 31.9147 190.492 31.9984 190.412C32.0821 190.251 32.0821 190.01 32.0821 189.849V189.768C32.0821 189.044 31.4126 188.32 30.4082 187.677C27.5626 186.148 22.8756 186.148 20.1136 187.677ZM18.356 193.952V197.411C18.356 198.296 19.2767 198.939 20.0299 199.422C22.7919 200.951 27.4789 200.951 30.3245 199.422C31.4126 198.779 32.0821 198.054 32.0821 197.411V193.952C31.9147 194.032 31.8311 194.113 31.6637 194.193C31.1615 194.434 30.743 194.676 30.2408 194.837H30.1571C29.906 194.917 29.7387 194.997 29.4876 195.078L28.9854 195.239L28.6506 195.319L27.981 195.48H27.8136C27.5626 195.48 27.3952 195.561 27.1441 195.561H26.9767C26.7256 195.561 26.3908 195.641 26.1397 195.641C25.8886 195.641 25.6376 195.641 25.3865 195.641H25.3028C25.0517 195.641 24.8006 195.641 24.5495 195.641H24.4658C22.5408 195.561 20.6158 195.078 18.8582 194.113C18.6071 194.113 18.4397 194.032 18.356 193.952ZM56.0192 176.896C56.0192 176.172 55.3496 175.368 54.3453 174.805C51.5833 173.276 46.8963 173.276 44.0506 174.805C42.9626 175.448 42.293 176.172 42.293 176.896V176.977C42.293 177.057 42.293 177.138 42.293 177.138V177.218C42.5441 177.862 42.9626 178.425 43.5485 178.747C43.5485 178.747 43.6322 178.747 43.6322 178.827C43.7159 178.908 43.8833 178.988 43.9669 179.069C46.5615 180.517 50.9137 180.597 53.6757 179.31C53.8431 179.229 54.0105 179.149 54.1779 179.069C54.3452 178.988 54.4289 178.908 54.5963 178.827L54.7637 178.666L54.9311 178.586L55.0985 178.425L55.1822 178.345C55.2659 178.264 55.2659 178.184 55.3496 178.184L55.4333 178.103C55.517 178.023 55.517 177.942 55.6007 177.862L55.6844 177.781C55.7681 177.701 55.7681 177.621 55.7681 177.54V177.46C55.7681 177.379 55.8518 177.299 55.8518 177.218C55.8518 177.138 55.8518 177.057 55.8518 176.977V176.896H56.0192ZM55.6007 181.241C54.1779 182.045 52.5039 182.528 50.83 182.689C50.5789 182.689 50.2442 182.769 49.9931 182.769C49.742 182.769 49.4909 182.769 49.1561 182.769H48.9887H48.3191H47.9844L47.4822 182.689C47.2311 182.689 47.0637 182.608 46.8126 182.608H46.5615C46.3104 182.528 46.0594 182.528 45.892 182.447H45.7246C44.6365 182.206 43.6322 181.804 42.7115 181.321C42.5441 181.241 42.4604 181.16 42.293 181.08V184.539C42.293 185.424 43.2137 186.068 43.9669 186.55C46.7289 188.079 51.4159 188.079 54.2616 186.55C55.3496 185.907 56.0192 185.183 56.0192 184.459V180.999L55.6007 181.241ZM79.9562 189.768C79.9562 189.044 79.2866 188.24 78.1986 187.677C75.4366 186.148 70.7496 186.148 67.904 187.677C66.8159 188.32 66.1464 189.044 66.1464 189.768V189.849C66.1464 189.929 66.1464 190.01 66.1464 190.01V190.09C66.3974 190.734 66.8159 191.297 67.4018 191.619L67.4855 191.699C67.5692 191.779 67.7366 191.86 67.8203 191.94C70.5822 193.469 75.2692 193.469 78.1149 191.94C78.2823 191.86 78.366 191.779 78.5334 191.699L78.7007 191.619C78.7844 191.538 78.8682 191.538 78.8682 191.458L79.0356 191.297L79.2029 191.216C79.2866 191.136 79.2866 191.136 79.3703 191.055L79.454 190.975C79.5377 190.895 79.5377 190.814 79.6214 190.734C79.6214 190.734 79.6214 190.734 79.7051 190.653C79.7888 190.573 79.7888 190.492 79.7888 190.412C79.7888 190.331 79.8725 190.251 79.8725 190.171C79.8725 190.01 79.8725 189.929 79.9562 189.768C79.8725 189.849 79.8725 189.849 79.9562 189.768ZM79.5377 194.193C79.0355 194.434 78.6171 194.676 78.1149 194.837H78.0312C77.7801 194.917 77.529 194.997 77.3616 195.078L76.8595 195.239L76.5247 195.319L75.8551 195.48H75.6877C75.4366 195.48 75.2692 195.561 75.0181 195.561H74.8508C74.5997 195.561 74.2649 195.641 74.0138 195.641C73.7627 195.641 73.5116 195.641 73.2605 195.641H73.1768C72.9258 195.641 72.6746 195.641 72.4236 195.641H72.2562C70.3312 195.561 68.4062 195.078 66.6485 194.113C66.4812 194.032 66.3975 193.952 66.2301 193.871V197.411C66.2301 198.296 67.1507 198.939 67.904 199.422C70.6659 200.951 75.3529 200.951 78.1986 199.422C79.2866 198.779 79.9562 198.054 79.9562 197.411V193.952C79.7888 194.032 79.6214 194.113 79.5377 194.193ZM50.4952 265.953L94.4356 241.577C94.603 241.497 94.6867 241.336 94.6867 241.175V201.433L50.7463 225.809C50.5789 225.89 50.4952 226.051 50.4952 226.212V265.953ZM48.905 223.557C49.0724 223.637 49.2398 223.637 49.4072 223.557L93.3475 199.181L82.5508 193.228V197.33C82.4671 199.02 81.379 200.548 79.454 201.594C75.4366 203.605 70.5823 203.605 66.4812 201.594C63.9703 200.227 63.4681 198.537 63.4681 197.411V189.849C63.4681 188.159 64.5561 186.631 66.5648 185.504C66.8996 185.344 67.2344 185.183 67.6529 185.022L58.6137 180.034V184.539C58.6137 186.229 57.442 187.757 55.517 188.803C53.5083 189.849 51.3322 190.331 49.0724 190.331C46.8126 190.331 44.5528 189.849 42.6278 188.803C40.117 187.435 39.6148 185.746 39.6148 184.62V180.114L30.5756 185.102C30.9104 185.263 31.3289 185.424 31.6637 185.585C33.5887 186.631 34.6767 188.159 34.6767 189.768V189.849V189.929V197.491C34.593 199.181 33.505 200.709 31.58 201.755C27.5626 203.766 22.7082 203.766 18.6071 201.755C16.0962 200.388 15.594 198.698 15.594 197.572V193.388L4.88097 199.342L48.905 223.557ZM3.62553 241.175C3.62553 241.336 3.70922 241.497 3.87661 241.577L47.817 265.953V226.212C47.817 226.051 47.7333 225.89 47.5659 225.809L3.62553 201.433V241.175Z" fill="white"/>
<path d="M42.7114 198.376C46.3103 196.365 52.0016 196.365 55.6842 198.376C57.6092 199.422 58.6973 200.951 58.6973 202.56V202.64V210.202C58.6973 211.892 57.5255 213.42 55.6005 214.466C51.5831 216.477 46.7288 216.477 42.6277 214.466C40.1168 213.098 39.6146 211.409 39.6146 210.283V202.72C39.6146 201.031 40.7027 199.503 42.7114 198.376ZM42.2929 210.363C42.2929 211.248 43.2135 211.892 43.9668 212.374C46.7288 213.903 51.4157 213.903 54.2614 212.374C55.3494 211.731 56.019 211.007 56.019 210.363V206.904L55.6005 207.145C55.3494 207.306 55.0983 207.387 54.931 207.467C54.7636 207.547 54.5962 207.628 54.4288 207.628L54.1777 207.708C54.094 207.789 53.9266 207.789 53.7592 207.869C53.5918 207.95 53.5081 207.95 53.3407 208.03L53.0897 208.111C52.9223 208.191 52.7549 208.191 52.5875 208.271L52.3364 208.352C52.169 208.432 51.9179 208.432 51.7505 208.432H51.4994C51.332 208.432 51.0809 208.513 50.8299 208.513H50.6625L49.9929 208.593H49.8255C49.5744 208.593 49.3233 208.593 49.1559 208.593H48.9885C48.7375 208.593 48.5701 208.593 48.319 208.593H48.0679C47.8168 208.593 47.6494 208.593 47.3983 208.513H47.3146C47.0635 208.513 46.8125 208.432 46.5614 208.432L46.2266 208.352L45.7244 208.271L45.3896 208.191L44.8875 208.03C44.7201 207.95 44.5527 207.95 44.3853 207.869L44.1342 207.789C43.8831 207.708 43.7157 207.628 43.5483 207.547L43.4646 207.467C43.2136 207.387 42.9624 207.226 42.7951 207.145C42.6277 207.065 42.544 206.984 42.3766 206.904L42.2929 210.363ZM42.2929 202.72C42.2929 202.881 42.2929 202.881 42.2929 202.962V203.042C42.544 203.686 42.9624 204.249 43.5483 204.571L43.632 204.651C43.7157 204.732 43.8831 204.812 43.9668 204.893C46.5614 206.341 50.9136 206.421 53.6755 205.134C53.8429 205.054 54.0103 204.973 54.1777 204.893C54.3451 204.812 54.4288 204.732 54.5962 204.651L54.7636 204.49L54.931 204.41L55.0984 204.249L55.1821 204.169C55.2658 204.088 55.2657 204.008 55.3494 204.008L55.4331 203.927C55.5168 203.847 55.5168 203.766 55.6005 203.686C55.6005 203.686 55.6005 203.686 55.6005 203.605C55.6842 203.525 55.6842 203.445 55.7679 203.364C55.7679 203.284 55.8516 203.203 55.8516 203.123C55.8516 203.042 55.8516 202.962 55.8516 202.881V202.72C55.8516 201.996 55.182 201.192 54.1777 200.629C51.4157 199.1 46.7288 199.1 43.8831 200.629C42.7951 201.272 42.2092 201.996 42.2929 202.72Z" fill="white"/>
<path d="M180.14 263.298C180.308 262.574 180.642 262.011 181.228 261.528C181.312 261.448 181.312 261.448 181.396 261.368C181.479 261.287 181.563 261.207 181.647 261.207L194.871 253.886V253.403C194.871 251.714 195.959 250.185 197.968 249.059C200.478 247.772 203.324 247.289 206.086 247.611L218.724 240.612V240.531C218.724 238.842 219.812 237.313 221.821 236.187C225.42 234.176 231.111 234.176 234.794 236.187C236.719 237.233 237.807 238.761 237.807 240.37V240.451V240.612L250.529 247.611C253.374 247.289 256.471 247.772 258.731 249.059C260.656 250.105 261.744 251.633 261.744 253.242V253.323V253.805L274.884 261.126C274.968 261.207 275.051 261.207 275.135 261.287L275.303 261.448C275.805 261.931 276.223 262.574 276.391 263.218C276.391 263.298 276.391 263.379 276.391 263.379C276.391 263.459 276.391 263.62 276.391 263.701V304.649C276.391 305.695 275.721 306.741 274.8 307.304L229.772 332.243C229.688 332.323 229.605 332.323 229.437 332.404C228.6 332.726 227.68 332.726 226.843 332.404C226.759 332.323 226.592 332.323 226.508 332.243L181.479 307.304C180.559 306.741 179.889 305.775 179.889 304.649V263.701C179.889 263.62 179.889 263.459 179.889 263.379C180.057 263.379 180.057 263.379 180.14 263.298ZM199.223 251.231C198.135 251.875 197.465 252.599 197.465 253.323V253.403C197.465 253.484 197.465 253.564 197.465 253.564V253.644C197.716 254.288 198.135 254.851 198.721 255.173L198.804 255.253C198.888 255.334 199.056 255.414 199.139 255.495C201.901 257.023 206.588 257.023 209.434 255.495C209.601 255.414 209.685 255.334 209.852 255.253L210.02 255.173C210.103 255.093 210.187 255.093 210.187 255.012L210.355 254.851C210.438 254.851 210.438 254.771 210.522 254.771C210.606 254.69 210.606 254.61 210.689 254.61L210.773 254.529C210.857 254.449 210.857 254.369 210.94 254.288V254.208C211.024 254.127 211.024 254.047 211.108 253.966C211.191 253.805 211.191 253.564 211.191 253.403V253.323C211.191 252.599 210.522 251.875 209.518 251.231C206.672 249.703 201.985 249.703 199.223 251.231ZM197.465 257.506V260.965C197.465 261.85 198.386 262.494 199.139 262.977C201.901 264.505 206.588 264.505 209.434 262.977C210.522 262.333 211.191 261.609 211.191 260.965V257.506C211.024 257.587 210.94 257.667 210.773 257.747C210.271 257.989 209.852 258.23 209.35 258.391H209.266C209.015 258.471 208.848 258.552 208.597 258.632L208.095 258.793L207.76 258.874L207.09 259.035H206.923C206.672 259.035 206.505 259.115 206.253 259.115H206.086C205.835 259.115 205.5 259.195 205.249 259.195C204.998 259.195 204.747 259.195 204.496 259.195H204.412C204.161 259.195 203.91 259.195 203.659 259.195H203.575C201.65 259.115 199.725 258.632 197.968 257.667C197.716 257.667 197.549 257.587 197.465 257.506ZM235.129 240.451C235.129 239.727 234.459 238.922 233.455 238.359C230.693 236.831 226.006 236.831 223.16 238.359C222.072 239.003 221.402 239.727 221.402 240.451V240.531C221.402 240.612 221.402 240.692 221.402 240.692V240.773C221.653 241.416 222.072 241.979 222.658 242.301C222.658 242.301 222.742 242.301 222.742 242.382C222.825 242.462 222.993 242.543 223.076 242.623C225.671 244.071 230.023 244.152 232.785 242.864C232.952 242.784 233.12 242.703 233.287 242.623C233.455 242.543 233.538 242.462 233.706 242.382L233.873 242.221L234.04 242.14L234.208 241.979L234.292 241.899C234.375 241.819 234.375 241.738 234.459 241.738L234.543 241.658C234.626 241.577 234.626 241.497 234.71 241.416L234.794 241.336C234.877 241.255 234.877 241.175 234.877 241.095V241.014C234.877 240.934 234.961 240.853 234.961 240.773C234.961 240.692 234.961 240.612 234.961 240.531V240.451H235.129ZM234.71 244.795C233.287 245.6 231.613 246.082 229.939 246.243C229.688 246.243 229.354 246.324 229.102 246.324C228.851 246.324 228.6 246.324 228.265 246.324H228.098H227.429H227.094L226.592 246.243C226.34 246.243 226.173 246.163 225.922 246.163H225.671C225.42 246.082 225.169 246.082 225.001 246.002H224.834C223.746 245.761 222.742 245.358 221.821 244.876C221.653 244.795 221.57 244.715 221.402 244.634V248.094C221.402 248.978 222.323 249.622 223.076 250.105C225.838 251.633 230.525 251.633 233.371 250.105C234.459 249.461 235.129 248.737 235.129 248.013V244.554L234.71 244.795ZM259.066 253.323C259.066 252.599 258.396 251.794 257.308 251.231C254.546 249.703 249.859 249.703 247.013 251.231C245.925 251.875 245.256 252.599 245.256 253.323V253.403C245.256 253.484 245.256 253.564 245.256 253.564V253.644C245.507 254.288 245.925 254.851 246.511 255.173L246.595 255.253C246.679 255.334 246.846 255.414 246.93 255.495C249.692 257.023 254.379 257.023 257.224 255.495C257.392 255.414 257.475 255.334 257.643 255.253L257.81 255.173C257.894 255.093 257.978 255.093 257.978 255.012L258.145 254.851L258.312 254.771C258.396 254.69 258.396 254.69 258.48 254.61L258.563 254.529C258.647 254.449 258.647 254.369 258.731 254.288C258.731 254.288 258.731 254.288 258.814 254.208C258.898 254.127 258.898 254.047 258.898 253.966C258.898 253.886 258.982 253.805 258.982 253.725C258.982 253.564 258.982 253.484 259.066 253.323C258.982 253.403 258.982 253.403 259.066 253.323ZM258.647 257.747C258.145 257.989 257.726 258.23 257.224 258.391H257.141C256.889 258.471 256.638 258.552 256.471 258.632L255.969 258.793L255.634 258.874L254.964 259.035H254.797C254.546 259.035 254.379 259.115 254.128 259.115H253.96C253.709 259.115 253.374 259.195 253.123 259.195C252.872 259.195 252.621 259.195 252.37 259.195H252.286C252.035 259.195 251.784 259.195 251.533 259.195H251.366C249.441 259.115 247.516 258.632 245.758 257.667C245.591 257.586 245.507 257.506 245.339 257.426V260.965C245.339 261.85 246.26 262.494 247.013 262.977C249.775 264.505 254.462 264.505 257.308 262.977C258.396 262.333 259.066 261.609 259.066 260.965V257.506C258.898 257.587 258.731 257.667 258.647 257.747ZM229.605 329.508L273.545 305.132C273.712 305.051 273.796 304.89 273.796 304.729V264.988L229.856 289.364C229.688 289.444 229.605 289.605 229.605 289.766V329.508ZM228.014 287.111C228.182 287.192 228.349 287.192 228.517 287.111L272.457 262.735L261.66 256.782V260.885C261.576 262.574 260.488 264.103 258.563 265.149C254.546 267.16 249.692 267.16 245.591 265.149C243.08 263.781 242.577 262.092 242.577 260.965V253.403C242.577 251.714 243.666 250.185 245.674 249.059C246.009 248.898 246.344 248.737 246.762 248.576L237.723 243.588V248.094C237.723 249.783 236.551 251.312 234.626 252.357C232.618 253.403 230.442 253.886 228.182 253.886C225.922 253.886 223.662 253.403 221.737 252.357C219.226 250.99 218.724 249.3 218.724 248.174V243.669L209.685 248.657C210.02 248.818 210.438 248.978 210.773 249.139C212.698 250.185 213.786 251.714 213.786 253.323V253.403V253.484V261.046C213.702 262.735 212.614 264.264 210.689 265.31C206.672 267.321 201.818 267.321 197.716 265.31C195.206 263.942 194.703 262.253 194.703 261.126V256.943L183.99 262.896L228.014 287.111ZM182.735 304.729C182.735 304.89 182.819 305.051 182.986 305.132L226.926 329.508V289.766C226.926 289.605 226.843 289.444 226.675 289.364L182.735 264.988V304.729Z" fill="white"/>
<path d="M221.821 261.931C225.42 259.92 231.111 259.92 234.794 261.931C236.719 262.977 237.807 264.505 237.807 266.114V266.195V273.757C237.807 275.446 236.635 276.975 234.71 278.021C230.692 280.032 225.838 280.032 221.737 278.021C219.226 276.653 218.724 274.964 218.724 273.837V266.275C218.724 264.586 219.812 263.057 221.821 261.931ZM221.402 273.918C221.402 274.803 222.323 275.446 223.076 275.929C225.838 277.457 230.525 277.457 233.371 275.929C234.459 275.285 235.128 274.561 235.128 273.918V270.458L234.71 270.7C234.459 270.861 234.208 270.941 234.04 271.022C233.873 271.102 233.706 271.182 233.538 271.182L233.287 271.263C233.203 271.343 233.036 271.343 232.869 271.424C232.701 271.504 232.617 271.504 232.45 271.585L232.199 271.665C232.032 271.746 231.864 271.746 231.697 271.826L231.446 271.906C231.278 271.987 231.027 271.987 230.86 271.987H230.609C230.441 271.987 230.19 272.067 229.939 272.067H229.772L229.102 272.148H228.935C228.684 272.148 228.433 272.148 228.265 272.148H228.098C227.847 272.148 227.679 272.148 227.428 272.148H227.177C226.926 272.148 226.759 272.148 226.508 272.067H226.424C226.173 272.067 225.922 271.987 225.671 271.987L225.336 271.906L224.834 271.826L224.499 271.746L223.997 271.585C223.829 271.504 223.662 271.504 223.495 271.424L223.244 271.343C222.992 271.263 222.825 271.182 222.658 271.102L222.574 271.022C222.323 270.941 222.072 270.78 221.904 270.7C221.737 270.619 221.653 270.539 221.486 270.458L221.402 273.918ZM221.402 266.275C221.402 266.436 221.402 266.436 221.402 266.516V266.597C221.653 267.24 222.072 267.804 222.658 268.125L222.741 268.206C222.825 268.286 222.992 268.367 223.076 268.447C225.671 269.895 230.023 269.976 232.785 268.689C232.952 268.608 233.12 268.528 233.287 268.447C233.454 268.367 233.538 268.286 233.706 268.206L233.873 268.045L234.04 267.964L234.208 267.804L234.291 267.723C234.375 267.643 234.375 267.562 234.459 267.562L234.542 267.482C234.626 267.401 234.626 267.321 234.71 267.24C234.71 267.24 234.71 267.24 234.71 267.16C234.794 267.08 234.794 266.999 234.877 266.919C234.877 266.838 234.961 266.758 234.961 266.677C234.961 266.597 234.961 266.516 234.961 266.436V266.275C234.961 265.551 234.291 264.747 233.287 264.183C230.525 262.655 225.838 262.655 222.992 264.183C221.904 264.827 221.319 265.551 221.402 266.275Z" fill="white"/>
<path d="M231.531 28.6292C231.698 27.9051 232.033 27.342 232.619 26.8593C232.703 26.7789 232.703 26.7789 232.786 26.6984C232.87 26.618 232.954 26.5375 233.037 26.5375L246.261 19.2167V18.8144C246.261 17.125 247.349 15.5965 249.358 14.4702C251.869 13.183 254.715 12.7003 257.477 13.0221L270.115 5.94262V5.86217C270.115 4.17275 271.203 2.64422 273.212 1.51794C276.81 -0.493284 282.502 -0.493284 286.184 1.51794C288.109 2.56377 289.197 4.0923 289.197 5.70127V5.78172V5.94262L301.919 13.0221C304.765 12.7003 307.862 13.183 310.121 14.4702C312.046 15.516 313.134 17.0446 313.134 18.6535V18.734V19.2167L326.275 26.5375C326.358 26.618 326.442 26.618 326.526 26.6984L326.693 26.8593C327.195 27.342 327.614 27.9856 327.781 28.6292C327.781 28.7096 327.781 28.7901 327.781 28.7901C327.781 28.8705 327.781 29.0314 327.781 29.1119V70.0603C327.781 71.1062 327.112 72.152 326.191 72.7151L281.163 97.6543C281.079 97.7347 280.995 97.7347 280.828 97.8152C279.991 98.137 279.07 98.137 278.233 97.8152C278.15 97.7347 277.982 97.7347 277.898 97.6543L232.87 72.7151C231.949 72.152 231.28 71.1866 231.28 70.0603V29.1923C231.28 29.1119 231.28 28.951 231.28 28.8705C231.531 28.7901 231.531 28.7096 231.531 28.6292ZM250.614 16.6423C249.526 17.2859 248.856 18.0099 248.856 18.734V18.8144C248.856 18.8949 248.856 18.9753 248.856 18.9753V19.0558C249.107 19.6994 249.526 20.2625 250.111 20.5843L250.195 20.6648C250.279 20.7452 250.446 20.8257 250.53 20.9061C253.292 22.4346 257.979 22.4346 260.825 20.9061C260.992 20.8257 261.076 20.7452 261.243 20.6648L261.41 20.5843C261.494 20.5039 261.578 20.5039 261.578 20.4234L261.745 20.2625C261.829 20.2625 261.829 20.1821 261.913 20.1821C261.996 20.1016 261.996 20.0212 262.08 20.0212L262.164 19.9407C262.247 19.8603 262.247 19.7798 262.331 19.6994V19.6189C262.415 19.5385 262.415 19.458 262.498 19.3776C262.582 19.1362 262.582 18.9753 262.582 18.734V18.6535C262.582 17.9295 261.913 17.2055 260.908 16.5619C258.146 15.1138 253.459 15.1138 250.614 16.6423ZM248.856 22.8369V26.2962C248.856 27.1811 249.777 27.8247 250.53 28.3074C253.292 29.8359 257.979 29.8359 260.825 28.3074C261.913 27.6638 262.582 26.9398 262.582 26.2962V22.8369C262.415 22.9173 262.331 22.9978 262.164 23.0782C261.661 23.3196 261.243 23.5609 260.741 23.7218H260.657C260.406 23.8023 260.239 23.8827 259.988 23.9632L259.485 24.1241L259.151 24.2045L258.481 24.3654H258.314C258.063 24.3654 257.895 24.4458 257.644 24.4458H257.477C257.226 24.4458 256.891 24.5263 256.64 24.5263C256.389 24.5263 256.138 24.5263 255.886 24.5263H255.803C255.552 24.5263 255.301 24.5263 255.049 24.5263H254.966C253.041 24.4458 251.116 23.9632 249.358 22.9978C249.107 22.9978 249.023 22.9173 248.856 22.8369ZM286.519 5.78172C286.519 5.05768 285.85 4.2532 284.845 3.69005C282.083 2.16153 277.396 2.16153 274.551 3.69005C273.463 4.33364 272.793 5.05768 272.793 5.78172V5.86217C272.793 5.94262 272.793 6.02307 272.793 6.02307V6.10352C273.044 6.74711 273.463 7.31025 274.048 7.63205C274.048 7.63205 274.132 7.63205 274.132 7.7125C274.216 7.79294 274.383 7.87339 274.467 7.95384C277.062 9.40192 281.414 9.48237 284.176 8.19519C284.343 8.11474 284.51 8.03429 284.678 7.95384C284.845 7.87339 284.929 7.79294 285.096 7.7125L285.264 7.5516L285.431 7.47115L285.599 7.31025L285.766 7.2298C285.85 7.14935 285.85 7.06891 285.933 7.06891L286.017 6.90801C286.101 6.82756 286.101 6.74711 286.184 6.66666L286.268 6.58621C286.352 6.50576 286.352 6.42531 286.352 6.34487V6.42531C286.352 6.34487 286.435 6.26442 286.435 6.18397C286.435 6.10352 286.435 6.02307 286.435 5.94262V5.78172H286.519ZM286.101 10.2064C284.678 11.0109 283.004 11.4936 281.33 11.6545C281.079 11.6545 280.744 11.7349 280.493 11.7349C280.242 11.7349 279.991 11.7349 279.656 11.7349H279.489H278.819H278.484L277.982 11.6545C277.731 11.6545 277.564 11.574 277.313 11.574H277.062C276.81 11.4936 276.559 11.4936 276.392 11.4131H276.225C275.137 11.1718 274.132 10.7696 273.212 10.2869C273.044 10.2064 272.96 10.126 272.793 10.0455V13.5048C272.793 14.3897 273.714 15.0333 274.467 15.516C277.229 17.0446 281.916 17.0446 284.762 15.516C285.85 14.8724 286.519 14.1484 286.519 13.4244V9.96506L286.101 10.2064ZM310.456 18.734C310.456 18.0099 309.787 17.2055 308.699 16.6423C305.937 15.1138 301.25 15.1138 298.404 16.6423C297.316 17.2859 296.646 18.0099 296.646 18.734V18.8144C296.646 18.8949 296.646 18.9753 296.646 18.9753V19.0558C296.897 19.6994 297.316 20.2625 297.902 20.5843L297.985 20.6648C298.069 20.7452 298.237 20.8257 298.32 20.9061C301.082 22.4346 305.769 22.4346 308.615 20.9061C308.782 20.8257 308.866 20.7452 309.033 20.6648L309.201 20.5843C309.284 20.5039 309.368 20.5039 309.368 20.4234L309.536 20.2625L309.787 20.1016C309.87 20.0212 309.87 20.0212 309.954 19.9407L310.038 19.8603C310.121 19.7798 310.121 19.6994 310.205 19.6189C310.205 19.6189 310.205 19.6189 310.289 19.5385C310.372 19.458 310.372 19.3776 310.372 19.2971C310.372 19.2167 310.456 19.1362 310.456 19.0558C310.372 18.9753 310.372 18.8949 310.456 18.734C310.372 18.8144 310.372 18.8144 310.456 18.734ZM310.038 23.0782C309.536 23.3196 309.117 23.5609 308.615 23.7218H308.531C308.28 23.8023 308.029 23.8827 307.862 23.9632L307.359 24.1241L307.025 24.2045L306.355 24.3654H306.188C305.937 24.3654 305.769 24.4458 305.518 24.4458H305.351C305.1 24.4458 304.765 24.5263 304.514 24.5263C304.263 24.5263 304.012 24.5263 303.761 24.5263H303.593C303.342 24.5263 303.091 24.5263 302.84 24.5263H302.672C300.747 24.4458 298.822 23.9632 297.065 22.9978C296.897 22.9173 296.814 22.8369 296.646 22.7564V26.2962C296.646 27.1811 297.567 27.8247 298.32 28.3074C301.082 29.8359 305.769 29.8359 308.615 28.3074C309.703 27.6638 310.372 26.9398 310.372 26.2962V22.8369C310.372 22.9173 310.205 22.9978 310.038 23.0782ZM280.995 94.919L324.936 70.543C325.103 70.4626 325.187 70.3017 325.187 70.1408V30.3991L281.246 54.6946C281.079 54.775 280.995 54.9359 280.995 55.0968V94.919ZM279.405 52.5225C279.572 52.6029 279.74 52.6029 279.907 52.5225L323.931 28.1465L313.134 22.1933V26.2962C313.051 27.9856 311.963 29.5141 310.038 30.56C306.02 32.5712 301.166 32.5712 297.065 30.56C294.554 29.1923 294.052 27.5029 294.052 26.3766V18.8144C294.052 17.125 295.14 15.5965 297.149 14.4702C297.483 14.3093 297.818 14.1484 298.237 13.9875L289.197 8.99968V13.5048C289.197 15.1942 288.026 16.7228 286.101 17.7686C284.092 18.8144 281.916 19.2971 279.656 19.2971C277.396 19.2971 275.137 18.8144 273.212 17.7686C270.701 16.401 270.198 14.7115 270.198 13.5853V9.08013L261.159 14.068C261.494 14.2288 261.913 14.3897 262.247 14.5506C264.172 15.5965 265.26 17.125 265.26 18.734V18.8144V18.8949V26.4571C265.177 28.1465 264.089 29.675 262.164 30.7209C258.146 32.7321 253.292 32.7321 249.191 30.7209C246.68 29.3532 246.178 27.6638 246.178 26.5375V22.3542L235.465 28.3074L279.405 52.5225ZM234.126 70.0603C234.126 70.2212 234.209 70.3821 234.377 70.4626L278.317 94.919V55.1773C278.317 55.0164 278.233 54.8555 278.066 54.775L234.126 30.3991V70.0603Z" fill="white"/>
<path d="M273.211 27.3419C276.81 25.3307 282.502 25.3307 286.184 27.3419C288.109 28.3877 289.197 29.9163 289.197 31.5253V31.6057V39.1679C289.197 40.8573 288.026 42.3859 286.101 43.4317C282.083 45.4429 277.229 45.4429 273.128 43.4317C270.617 42.0641 270.115 40.3746 270.115 39.2483V31.6057C270.115 29.9967 271.286 28.4682 273.211 27.3419ZM272.793 39.2483C272.793 40.1333 273.714 40.7769 274.467 41.2596C277.229 42.7881 281.916 42.7881 284.761 41.2596C285.849 40.616 286.519 39.8919 286.519 39.2483V35.789L286.101 36.0304C285.849 36.1913 285.598 36.2717 285.431 36.3522C285.264 36.4326 285.096 36.5131 284.929 36.5131L284.678 36.5935C284.594 36.674 284.427 36.674 284.259 36.7544C284.092 36.8349 284.008 36.8349 283.841 36.9153L283.59 36.9958C283.422 37.0762 283.255 37.0762 283.087 37.1567L282.836 37.2371C282.669 37.3176 282.418 37.3176 282.251 37.3176H281.999C281.832 37.3176 281.581 37.398 281.33 37.398H281.162L280.493 37.4785H280.325C280.074 37.4785 279.823 37.4785 279.656 37.4785H279.489C279.237 37.4785 279.07 37.4785 278.819 37.4785H278.568C278.317 37.4785 278.149 37.4785 277.898 37.398H277.815C277.564 37.398 277.312 37.3176 277.061 37.3176L276.727 37.2371L276.224 37.1567L275.89 37.0762L275.387 36.9153C275.22 36.8349 275.053 36.8349 274.885 36.7544L274.634 36.674C274.383 36.5935 274.216 36.5131 274.048 36.4326L273.965 36.3522C273.714 36.2717 273.462 36.1108 273.295 36.0304C273.128 35.9499 273.044 35.8695 272.877 35.789L272.793 39.2483ZM272.793 31.6862C272.793 31.8471 272.793 31.847 272.793 31.9275V32.0079C273.044 32.6515 273.462 33.2147 274.048 33.5365L274.132 33.6169C274.216 33.6974 274.383 33.7778 274.467 33.8583C277.061 35.3063 281.414 35.3868 284.176 34.0996C284.343 34.0192 284.51 33.9387 284.678 33.8583C284.845 33.7778 284.929 33.6974 285.096 33.6169L285.264 33.456L285.431 33.3756L285.598 33.2147L285.682 33.1342C285.766 33.0538 285.766 32.9733 285.849 32.9733L286.017 32.8124C286.101 32.732 286.101 32.6515 286.184 32.5711C286.184 32.5711 286.184 32.5711 286.184 32.4906C286.268 32.4102 286.268 32.3297 286.352 32.2493C286.352 32.1688 286.435 32.0884 286.435 32.0079C286.435 31.9275 286.435 31.847 286.435 31.7666V31.6862C286.435 30.9621 285.766 30.1576 284.761 29.5945C281.999 28.066 277.312 28.066 274.467 29.5945C273.379 30.1576 272.709 30.9621 272.793 31.6862Z" fill="white"/>
</g>
</svg>
