<?xml version="1.0" encoding="utf-8"?>
<!-- Generator: Adobe Illustrator 25.2.0, SVG Export Plug-In . SVG Version: 6.00 Build 0)  -->
<svg version="1.1" id="Calque_1" xmlns="http://www.w3.org/2000/svg" xmlns:xlink="http://www.w3.org/1999/xlink" x="0px" y="0px"
	 viewBox="0 0 1440 362" style="enable-background:new 0 0 1440 362;" xml:space="preserve">
<style type="text/css">
	.st0{filter:url(#Adobe_OpacityMaskFilter);}
	.st1{fill-rule:evenodd;clip-rule:evenodd;fill:#FFFFFF;}
	.st2{opacity:5.504300e-02;mask:url(#mask-2_1_);}
	.st3{fill:none;stroke:#FFFFFF;stroke-width:5;stroke-linecap:round;}
</style>
<g id="Blog-tech---home">
	<g id="Blog---home" transform="translate(0.000000, -79.000000)">
		<g id="pattern" transform="translate(0.000000, 79.256213)">
			<g id="Mask">
			</g>
			<defs>
				<filter id="Adobe_OpacityMaskFilter" filterUnits="userSpaceOnUse" x="-1692.1" y="-466.9" width="3304" height="1095.1">
					<feColorMatrix  type="matrix" values="1 0 0 0 0  0 1 0 0 0  0 0 1 0 0  0 0 0 1 0"/>
				</filter>
			</defs>
			<mask maskUnits="userSpaceOnUse" x="-1692.1" y="-466.9" width="3304" height="1095.1" id="mask-2_1_">
				<g class="st0">
					<rect id="path-1_1_" y="0.9" class="st1" width="1440" height="360"/>
				</g>
			</mask>
			<g class="st2">
				<g transform="translate(-1860.065379, -716.360577)">
					<path id="Shape" class="st3" d="M170.5,1120.3c0,0,29.6-126.8,71.2-208.4c49.3-125,79.3-192,116.3-321.2
						c62.3-219.1-19.1-75.5-26.6,52.2c15.9,174.7,124.1-54,112.9,129.5c7.6,82-24.9,149.8-58.5,147.1c-21-5.2,40-94.8,123.5-81
						c47.6-4.6,166.9,144.7,101.8,405.6c-35.2,109.5-80.7,154.3-117.9-10.7c-17.7-146.8,75.1-389.5,97.5-429.5
						c104.2-232.8,3.9,129.5,83.5,13.7c63.6-72.4,17.5,70.6,161.8-156.1 M921.5,530.2c0,0-20.6,129.3-10.2,161.4 M888.6,429.2
						c107-173.7,248.5-249.7,180.9-88.8c-33.5,89.9,61,61.9,109,109c44,34.8,16.8,160.7-32,220.2c-127,112.1-70.2-148.9,106.4-91.8
						c54.8,17.6,129.8-44.9,219.9-153.2c240.1-326-31.2-96.1-60,24.9c-59.2,136.4-1,240.1,261.8,59.4
						c51.1-35.7,204.4-159.1,273.4-173.3"/>
					<path id="Shape-Copy" class="st3" d="M3469.5,767.3c0,0-67.4,111.4-132.1,176.2c-85.5,103.7-134.7,158.1-209.9,269.5
						c-127,189.2-5.2,77.7,41.5-41.5c38.9-171-137.9,13.9-76.5-158.3c26.1-84.1,79.1-134.6,110.2-121.6
						c18.4,11.5-67.4,77.7-142.5,38.9c-55-29-114-189.2,28.5-417.2c67.4-93.3,124.4-121.8,108.8,46.6
						c-28.5,145.1-191.7,347.2-225.4,378.3c-171,189.2,36.3-124.4-75.1-38.9c-82.9,49.2,5.2-72.6-202.1,98.5 M2533,1093.8
						c0,0,59.6-116.6,59.6-150.3 M2533,1200.1c-155.5,132.2-313.5,160.7-199.5,28.5c59.6-75.1-38.9-77.7-70-137.3
						c-31.1-46.6,26.4-165.1,98.5-199.5c155.5-67.4,20.7,163.3-129.6,54.4c-46.6-33.7-137.3,2.6-256.5,77.7
						c-329.1,235.8,0,101.1,64.8-5.2c98.5-111.4,75.1-228-230.6-137.3c-59.6,18.1-243.6,88.1-313.5,80.3"/>
					<path id="Path-9" class="st3" d="M2282,769.8c80.7-6,130.6-40.6,149.9-103.7c28.9-94.7,208-59.7,271.1-16.9"/>
				</g>
			</g>
		</g>
	</g>
</g>
</svg>
