<?xml version="1.0" standalone="no"?>
<!DOCTYPE svg PUBLIC "-//W3C//DTD SVG 20010904//EN"
 "http://www.w3.org/TR/2001/REC-SVG-20010904/DTD/svg10.dtd">
<svg version="1.0" xmlns="http://www.w3.org/2000/svg"
 width="1024.000000pt" height="1024.000000pt" viewBox="0 0 1024.000000 1024.000000"
 preserveAspectRatio="xMidYMid meet">
<metadata>
Created by potrace 1.11, written by Peter Selinger 2001-2013
</metadata>
<g transform="translate(0.000000,1024.000000) scale(0.100000,-0.100000)"
fill="#000000" stroke="none">
<path d="M4850 10234 c-1795 -104 -3379 -1107 -4234 -2680 -322 -592 -515
-1225 -592 -1939 -25 -223 -25 -765 0 -990 69 -651 225 -1199 501 -1760 405
-826 1004 -1506 1775 -2017 1389 -921 3142 -1104 4705 -491 196 77 571 263
759 377 714 433 1309 1028 1742 1742 114 188 300 563 377 759 748 1908 300
4064 -1143 5505 -842 841 -1930 1355 -3120 1475 -147 15 -631 27 -770 19z
m631 -84 c667 -51 1268 -214 1854 -500 1371 -671 2364 -1924 2704 -3410 78
-342 111 -631 118 -1020 9 -519 -35 -906 -158 -1379 -387 -1495 -1470 -2750
-2896 -3360 -469 -200 -947 -323 -1498 -383 -162 -18 -808 -18 -970 0 -919
100 -1723 402 -2445 918 -1174 839 -1929 2133 -2085 3574 -23 207 -31 664 -16
872 78 1066 463 2037 1133 2855 850 1038 2114 1710 3428 1823 69 5 141 12 160
14 86 8 549 5 671 -4z"/>
<path d="M3087 8085 c-48 -17 -85 -50 -103 -92 -16 -37 -19 -126 -5 -151 5 -9
116 -539 246 -1177 193 -947 241 -1167 261 -1197 45 -70 134 -118 218 -118 46
0 112 27 138 57 10 10 263 550 563 1198 500 1083 545 1184 545 1233 0 69 -29
129 -90 186 -84 79 -47 76 -944 76 -644 -1 -798 -3 -829 -15z"/>
<path d="M6050 8091 c-49 -15 -89 -41 -113 -73 -13 -18 -610 -1302 -1327
-2853 -1268 -2744 -1303 -2822 -1303 -2880 -1 -109 66 -210 175 -264 l61 -31
694 0 c662 0 695 1 731 19 20 10 47 30 60 44 13 13 611 1295 1330 2848 l1306
2824 0 75 c0 54 -5 85 -18 110 -35 66 -84 116 -148 151 l-63 34 -680 2 c-374
1 -691 -2 -705 -6z m1340 -276 c10 -12 -222 -519 -1271 -2790 l-1282 -2775
-617 0 c-575 0 -618 1 -632 18 -13 15 100 266 1266 2789 l1281 2772 621 1
c534 0 623 -2 634 -15z"/>
</g>
</svg>
